%
M48
M72
T01C0.0236
T02C0.0320
T03C0.0400
T04C0.1181
%
T01
X5200Y6500
X1200Y10000
X1200Y19500
X7200Y23250
X7700Y22750
X8200Y22250
X7200Y27000
X1200Y27500
X1200Y34500
X7200Y41500
X14200Y41500
X13700Y33750
X21200Y27000
X23700Y27000
X30700Y33750
X37700Y27000
X31200Y21000
X30700Y16000
X22700Y16000
X14200Y20500
X12200Y16000
X14200Y6500
X22700Y6500
X30700Y6500
X37700Y6500
X37700Y41500
X22700Y42000
T02
X19700Y41500
X18700Y41500
X16700Y41500
X15700Y41500
X12700Y41500
X11700Y41500
X9700Y41500
X8700Y41500
X5700Y41500
X4700Y41500
X2700Y41500
X1700Y41500
X2700Y27500
X3700Y27500
X25700Y41500
X26700Y41500
X28700Y41500
X29700Y41500
X31700Y41500
X32700Y41500
X34700Y41500
X35700Y41500
T03
X35900Y38500
X35900Y37500
X35900Y36500
X34500Y36500
X34500Y37500
X34500Y38500
X32900Y38500
X32900Y37500
X32900Y36500
X31500Y36500
X31500Y37500
X31500Y38500
X29900Y38500
X29900Y37500
X29900Y36500
X28500Y36500
X28500Y37500
X28500Y38500
X26900Y38500
X26900Y37500
X26900Y36500
X25500Y36500
X25500Y37500
X25500Y38500
X19900Y38500
X19900Y37500
X19900Y36500
X18500Y36500
X18500Y37500
X18500Y38500
X16900Y38500
X16900Y37500
X16900Y36500
X15500Y36500
X15500Y37500
X15500Y38500
X12900Y38500
X12900Y37500
X12900Y36500
X11500Y36500
X11500Y37500
X11500Y38500
X9900Y38500
X9900Y37500
X9900Y36500
X8500Y36500
X8500Y37500
X8500Y38500
X5900Y38500
X5900Y37500
X5900Y36500
X4500Y36500
X4500Y37500
X4500Y38500
X2900Y38500
X2900Y37500
X2900Y36500
X1500Y36500
X1500Y37500
X1500Y38500
X3200Y32500
X3200Y31500
X9700Y31500
X12700Y31500
X15700Y31500
X18700Y31500
X26200Y31500
X29200Y31500
X32200Y31500
X35200Y31500
X35200Y22500
X32200Y22500
X29200Y22500
X26200Y22500
X18700Y22500
X15700Y22500
X12700Y22500
X9700Y22500
X3200Y22500
X3200Y21500
T04
X7900Y20700
X7900Y33300
X20500Y33300
X24400Y33300
X24400Y20700
X20500Y20700
X37000Y20700
X37000Y33300
M30
