G75*
%MOIN*%
%OFA0B0*%
%FSLAX25Y25*%
%IPPOS*%
%LPD*%
%AMOC8*
5,1,8,0,0,1.08239X$1,22.5*
%
%ADD10R,0.20000X0.22500*%
%ADD11C,0.05600*%
%ADD12R,0.02400X0.01200*%
%ADD13C,0.02400*%
%ADD14OC8,0.05200*%
%ADD15R,0.04600X0.06300*%
%ADD16C,0.07000*%
%ADD17R,0.07400X0.07400*%
%ADD18C,0.07400*%
%ADD19OC8,0.06000*%
%ADD20C,0.01000*%
%ADD21C,0.02000*%
%ADD22C,0.05000*%
%ADD23C,0.03962*%
%ADD24C,0.04000*%
%ADD25C,0.03000*%
%ADD26R,0.03962X0.03962*%
%ADD27C,0.06000*%
D10*
X0097000Y0321250D03*
X0127000Y0321250D03*
X0157000Y0321250D03*
X0187000Y0321250D03*
X0262000Y0321250D03*
X0292000Y0321250D03*
X0322000Y0321250D03*
X0352000Y0321250D03*
D11*
X0337000Y0035000D02*
X0337000Y0010000D01*
X0327000Y0010000D02*
X0327000Y0035000D01*
X0317000Y0035000D02*
X0317000Y0010000D01*
X0307000Y0010000D02*
X0307000Y0035000D01*
X0297000Y0035000D02*
X0297000Y0010000D01*
X0287000Y0010000D02*
X0287000Y0035000D01*
X0277000Y0035000D02*
X0277000Y0010000D01*
X0267000Y0010000D02*
X0267000Y0035000D01*
X0257000Y0035000D02*
X0257000Y0010000D01*
X0247000Y0010000D02*
X0247000Y0035000D01*
X0237000Y0035000D02*
X0237000Y0010000D01*
X0227000Y0010000D02*
X0227000Y0035000D01*
X0217000Y0035000D02*
X0217000Y0010000D01*
X0207000Y0010000D02*
X0207000Y0035000D01*
X0197000Y0035000D02*
X0197000Y0010000D01*
X0187000Y0010000D02*
X0187000Y0035000D01*
X0177000Y0035000D02*
X0177000Y0010000D01*
X0167000Y0010000D02*
X0167000Y0035000D01*
X0157000Y0035000D02*
X0157000Y0010000D01*
X0147000Y0010000D02*
X0147000Y0035000D01*
X0137000Y0035000D02*
X0137000Y0010000D01*
X0127000Y0014000D02*
X0127000Y0035000D01*
X0117000Y0035000D02*
X0117000Y0010000D01*
X0107000Y0010000D02*
X0107000Y0035000D01*
X0097000Y0035000D02*
X0097000Y0010000D01*
D12*
X0097000Y0050000D03*
X0107000Y0050000D03*
X0117000Y0050000D03*
X0127000Y0050000D03*
X0137000Y0050000D03*
X0147000Y0050000D03*
X0157000Y0050000D03*
X0167000Y0050000D03*
X0177000Y0050000D03*
X0187000Y0050000D03*
X0197000Y0050000D03*
X0207000Y0050000D03*
X0217000Y0050000D03*
X0227000Y0050000D03*
X0237000Y0050000D03*
X0247000Y0050000D03*
X0257000Y0050000D03*
X0267000Y0050000D03*
X0277000Y0050000D03*
X0287000Y0050000D03*
X0297000Y0050000D03*
X0307000Y0050000D03*
X0317000Y0050000D03*
X0327000Y0050000D03*
X0337000Y0050000D03*
D13*
X0337000Y0035000D01*
X0327000Y0035000D02*
X0327000Y0050000D01*
X0317000Y0050000D02*
X0317000Y0035000D01*
X0307000Y0035000D02*
X0307000Y0050000D01*
X0297000Y0050000D02*
X0297000Y0035000D01*
X0287000Y0035000D02*
X0287000Y0050000D01*
X0277000Y0050000D02*
X0277000Y0035000D01*
X0267000Y0035000D02*
X0267000Y0050000D01*
X0257000Y0050000D02*
X0257000Y0035000D01*
X0247000Y0035000D02*
X0247000Y0050000D01*
X0237000Y0050000D02*
X0237000Y0035000D01*
X0227000Y0035000D02*
X0227000Y0050000D01*
X0217000Y0050000D02*
X0217000Y0035000D01*
X0207000Y0035000D02*
X0207000Y0050000D01*
X0197000Y0050000D02*
X0197000Y0035000D01*
X0187000Y0035000D02*
X0187000Y0050000D01*
X0177000Y0050000D02*
X0177000Y0035000D01*
X0167000Y0035000D02*
X0167000Y0050000D01*
X0157000Y0050000D02*
X0157000Y0035000D01*
X0147000Y0035000D02*
X0147000Y0050000D01*
X0137000Y0050000D02*
X0137000Y0035000D01*
X0127000Y0035000D02*
X0127000Y0050000D01*
X0117000Y0050000D02*
X0117000Y0035000D01*
X0107000Y0035000D02*
X0107000Y0050000D01*
X0097000Y0050000D02*
X0097000Y0035000D01*
D14*
X0037000Y0275000D03*
X0027000Y0275000D03*
X0027000Y0415000D03*
X0017000Y0415000D03*
X0047000Y0415000D03*
X0057000Y0415000D03*
X0087000Y0415000D03*
X0097000Y0415000D03*
X0117000Y0415000D03*
X0127000Y0415000D03*
X0157000Y0415000D03*
X0167000Y0415000D03*
X0187000Y0415000D03*
X0197000Y0415000D03*
X0257000Y0415000D03*
X0267000Y0415000D03*
X0287000Y0415000D03*
X0297000Y0415000D03*
X0317000Y0415000D03*
X0327000Y0415000D03*
X0347000Y0415000D03*
X0357000Y0415000D03*
D15*
X0125000Y0060000D03*
X0119000Y0060000D03*
D16*
X0115000Y0365000D03*
X0115000Y0375000D03*
X0115000Y0385000D03*
X0129000Y0385000D03*
X0129000Y0375000D03*
X0129000Y0365000D03*
X0155000Y0365000D03*
X0155000Y0375000D03*
X0155000Y0385000D03*
X0169000Y0385000D03*
X0169000Y0375000D03*
X0169000Y0365000D03*
X0185000Y0365000D03*
X0185000Y0375000D03*
X0185000Y0385000D03*
X0199000Y0385000D03*
X0199000Y0375000D03*
X0199000Y0365000D03*
X0255000Y0365000D03*
X0255000Y0375000D03*
X0255000Y0385000D03*
X0269000Y0385000D03*
X0269000Y0375000D03*
X0269000Y0365000D03*
X0285000Y0365000D03*
X0285000Y0375000D03*
X0285000Y0385000D03*
X0299000Y0385000D03*
X0299000Y0375000D03*
X0299000Y0365000D03*
X0315000Y0365000D03*
X0315000Y0375000D03*
X0315000Y0385000D03*
X0329000Y0385000D03*
X0329000Y0375000D03*
X0329000Y0365000D03*
X0345000Y0365000D03*
X0345000Y0375000D03*
X0345000Y0385000D03*
X0359000Y0385000D03*
X0359000Y0375000D03*
X0359000Y0365000D03*
X0099000Y0365000D03*
X0099000Y0375000D03*
X0099000Y0385000D03*
X0085000Y0385000D03*
X0085000Y0375000D03*
X0085000Y0365000D03*
X0059000Y0365000D03*
X0059000Y0375000D03*
X0059000Y0385000D03*
X0045000Y0385000D03*
X0045000Y0375000D03*
X0045000Y0365000D03*
X0029000Y0365000D03*
X0029000Y0375000D03*
X0029000Y0385000D03*
X0015000Y0385000D03*
X0015000Y0375000D03*
X0015000Y0365000D03*
D17*
X0032000Y0325000D03*
X0032000Y0225000D03*
D18*
X0032000Y0215000D03*
X0032000Y0315000D03*
D19*
X0097000Y0315000D03*
X0127000Y0315000D03*
X0157000Y0315000D03*
X0187000Y0315000D03*
X0262000Y0315000D03*
X0292000Y0315000D03*
X0322000Y0315000D03*
X0352000Y0315000D03*
X0352000Y0225000D03*
X0322000Y0225000D03*
X0292000Y0225000D03*
X0262000Y0225000D03*
X0187000Y0225000D03*
X0157000Y0225000D03*
X0127000Y0225000D03*
X0097000Y0225000D03*
D20*
X0137000Y0010000D02*
X0134700Y0009500D01*
D21*
X0043036Y0057500D02*
X0042000Y0058536D01*
X0042000Y0087997D01*
X0041619Y0088916D01*
X0038416Y0092119D01*
X0037497Y0092500D01*
X0005536Y0092500D01*
X0004500Y0093536D01*
X0004500Y0212500D01*
X0009500Y0212500D01*
X0009500Y0209503D01*
X0009881Y0208584D01*
X0010584Y0207881D01*
X0011503Y0207500D01*
X0022497Y0207500D01*
X0023416Y0207881D01*
X0024119Y0208584D01*
X0024500Y0209503D01*
X0024500Y0230497D01*
X0024119Y0231416D01*
X0023416Y0232119D01*
X0022497Y0232500D01*
X0011503Y0232500D01*
X0010584Y0232119D01*
X0009881Y0231416D01*
X0009500Y0230497D01*
X0009500Y0227500D01*
X0004500Y0227500D01*
X0004500Y0312500D01*
X0009500Y0312500D01*
X0009500Y0309503D01*
X0009881Y0308584D01*
X0010584Y0307881D01*
X0011503Y0307500D01*
X0022497Y0307500D01*
X0023416Y0307881D01*
X0024119Y0308584D01*
X0024500Y0309503D01*
X0024500Y0330497D01*
X0024119Y0331416D01*
X0023416Y0332119D01*
X0022497Y0332500D01*
X0011503Y0332500D01*
X0010584Y0332119D01*
X0009881Y0331416D01*
X0009500Y0330497D01*
X0009500Y0327500D01*
X0004500Y0327500D01*
X0004500Y0426464D01*
X0005536Y0427500D01*
X0388464Y0427500D01*
X0389500Y0426464D01*
X0389500Y0058536D01*
X0388464Y0057500D01*
X0347753Y0057500D01*
X0346834Y0057119D01*
X0344714Y0055000D01*
X0129800Y0055000D01*
X0129800Y0060557D01*
X0129374Y0061586D01*
X0129100Y0061860D01*
X0129100Y0063896D01*
X0128046Y0064950D01*
X0121954Y0064950D01*
X0115954Y0064950D01*
X0114900Y0063896D01*
X0114900Y0061860D01*
X0114626Y0061586D01*
X0114200Y0060557D01*
X0114200Y0055000D01*
X0111300Y0055000D01*
X0111300Y0063219D01*
X0124436Y0076355D01*
X0125645Y0077564D01*
X0126300Y0079145D01*
X0126300Y0143219D01*
X0224436Y0241355D01*
X0225645Y0242564D01*
X0226300Y0244145D01*
X0226300Y0360855D01*
X0225645Y0362436D01*
X0210645Y0377436D01*
X0209436Y0378645D01*
X0207855Y0379300D01*
X0202195Y0379300D01*
X0202002Y0379493D01*
X0200778Y0380000D01*
X0202002Y0380507D01*
X0203493Y0381998D01*
X0204300Y0383946D01*
X0204300Y0386054D01*
X0203493Y0388002D01*
X0202002Y0389493D01*
X0200054Y0390300D01*
X0197946Y0390300D01*
X0195998Y0389493D01*
X0194507Y0388002D01*
X0193700Y0386054D01*
X0193700Y0383946D01*
X0194507Y0381998D01*
X0195998Y0380507D01*
X0197222Y0380000D01*
X0195998Y0379493D01*
X0194507Y0378002D01*
X0193700Y0376054D01*
X0193700Y0373946D01*
X0194507Y0371998D01*
X0195998Y0370507D01*
X0197222Y0370000D01*
X0195998Y0369493D01*
X0194507Y0368002D01*
X0193700Y0366054D01*
X0193700Y0363946D01*
X0194507Y0361998D01*
X0195998Y0360507D01*
X0197946Y0359700D01*
X0200054Y0359700D01*
X0202002Y0360507D01*
X0203493Y0361998D01*
X0204300Y0363946D01*
X0204300Y0366054D01*
X0203493Y0368002D01*
X0202002Y0369493D01*
X0200778Y0370000D01*
X0202002Y0370507D01*
X0202195Y0370700D01*
X0205219Y0370700D01*
X0217700Y0358219D01*
X0217700Y0246781D01*
X0118355Y0147436D01*
X0117700Y0145855D01*
X0117700Y0081781D01*
X0103355Y0067436D01*
X0102700Y0065855D01*
X0102700Y0055000D01*
X0101300Y0055000D01*
X0101300Y0068219D01*
X0114436Y0081355D01*
X0115645Y0082564D01*
X0116300Y0084145D01*
X0116300Y0193355D01*
X0115645Y0194936D01*
X0085645Y0224936D01*
X0080645Y0229936D01*
X0074436Y0236145D01*
X0072855Y0236800D01*
X0071145Y0236800D01*
X0069564Y0236145D01*
X0068355Y0234936D01*
X0067700Y0233355D01*
X0067700Y0231645D01*
X0068355Y0230064D01*
X0074564Y0223855D01*
X0079564Y0218855D01*
X0107700Y0190719D01*
X0107700Y0086781D01*
X0093355Y0072436D01*
X0092700Y0070855D01*
X0092700Y0055000D01*
X0089286Y0055000D01*
X0087166Y0057119D01*
X0086247Y0057500D01*
X0043036Y0057500D01*
X0042000Y0058960D02*
X0092700Y0058960D01*
X0092700Y0060958D02*
X0042000Y0060958D01*
X0042000Y0062957D02*
X0092700Y0062957D01*
X0092700Y0064955D02*
X0042000Y0064955D01*
X0042000Y0066954D02*
X0092700Y0066954D01*
X0092700Y0068952D02*
X0042000Y0068952D01*
X0042000Y0070951D02*
X0092740Y0070951D01*
X0093868Y0072949D02*
X0042000Y0072949D01*
X0042000Y0074948D02*
X0095867Y0074948D01*
X0097865Y0076946D02*
X0042000Y0076946D01*
X0042000Y0078945D02*
X0099864Y0078945D01*
X0101862Y0080943D02*
X0042000Y0080943D01*
X0042000Y0082942D02*
X0103861Y0082942D01*
X0105859Y0084940D02*
X0042000Y0084940D01*
X0042000Y0086939D02*
X0107700Y0086939D01*
X0107700Y0088937D02*
X0041598Y0088937D01*
X0039600Y0090936D02*
X0107700Y0090936D01*
X0107700Y0092934D02*
X0005101Y0092934D01*
X0004500Y0094933D02*
X0107700Y0094933D01*
X0107700Y0096932D02*
X0004500Y0096932D01*
X0004500Y0098930D02*
X0107700Y0098930D01*
X0107700Y0100929D02*
X0004500Y0100929D01*
X0004500Y0102927D02*
X0107700Y0102927D01*
X0107700Y0104926D02*
X0004500Y0104926D01*
X0004500Y0106924D02*
X0107700Y0106924D01*
X0107700Y0108923D02*
X0004500Y0108923D01*
X0004500Y0110921D02*
X0107700Y0110921D01*
X0107700Y0112920D02*
X0004500Y0112920D01*
X0004500Y0114918D02*
X0107700Y0114918D01*
X0107700Y0116917D02*
X0004500Y0116917D01*
X0004500Y0118915D02*
X0107700Y0118915D01*
X0107700Y0120914D02*
X0004500Y0120914D01*
X0004500Y0122912D02*
X0107700Y0122912D01*
X0107700Y0124911D02*
X0004500Y0124911D01*
X0004500Y0126909D02*
X0107700Y0126909D01*
X0107700Y0128908D02*
X0004500Y0128908D01*
X0004500Y0130906D02*
X0107700Y0130906D01*
X0107700Y0132905D02*
X0004500Y0132905D01*
X0004500Y0134903D02*
X0107700Y0134903D01*
X0107700Y0136902D02*
X0004500Y0136902D01*
X0004500Y0138900D02*
X0107700Y0138900D01*
X0107700Y0140899D02*
X0004500Y0140899D01*
X0004500Y0142897D02*
X0107700Y0142897D01*
X0107700Y0144896D02*
X0004500Y0144896D01*
X0004500Y0146894D02*
X0107700Y0146894D01*
X0107700Y0148893D02*
X0004500Y0148893D01*
X0004500Y0150891D02*
X0107700Y0150891D01*
X0107700Y0152890D02*
X0004500Y0152890D01*
X0004500Y0154888D02*
X0107700Y0154888D01*
X0107700Y0156887D02*
X0004500Y0156887D01*
X0004500Y0158885D02*
X0107700Y0158885D01*
X0107700Y0160884D02*
X0004500Y0160884D01*
X0004500Y0162882D02*
X0107700Y0162882D01*
X0107700Y0164881D02*
X0004500Y0164881D01*
X0004500Y0166879D02*
X0107700Y0166879D01*
X0107700Y0168878D02*
X0004500Y0168878D01*
X0004500Y0170876D02*
X0107700Y0170876D01*
X0107700Y0172875D02*
X0004500Y0172875D01*
X0004500Y0174873D02*
X0107700Y0174873D01*
X0107700Y0176872D02*
X0004500Y0176872D01*
X0004500Y0178870D02*
X0107700Y0178870D01*
X0107700Y0180869D02*
X0004500Y0180869D01*
X0004500Y0182868D02*
X0107700Y0182868D01*
X0107700Y0184866D02*
X0004500Y0184866D01*
X0004500Y0186865D02*
X0107700Y0186865D01*
X0107700Y0188863D02*
X0004500Y0188863D01*
X0004500Y0190862D02*
X0107557Y0190862D01*
X0105559Y0192860D02*
X0004500Y0192860D01*
X0004500Y0194859D02*
X0103560Y0194859D01*
X0101562Y0196857D02*
X0004500Y0196857D01*
X0004500Y0198856D02*
X0099563Y0198856D01*
X0097565Y0200854D02*
X0084034Y0200854D01*
X0083478Y0200298D02*
X0085702Y0202522D01*
X0086905Y0205427D01*
X0086905Y0208573D01*
X0085702Y0211478D01*
X0083478Y0213702D01*
X0080573Y0214905D01*
X0077427Y0214905D01*
X0074522Y0213702D01*
X0072298Y0211478D01*
X0071094Y0208573D01*
X0071094Y0205427D01*
X0072298Y0202522D01*
X0074522Y0200298D01*
X0077427Y0199094D01*
X0080573Y0199094D01*
X0083478Y0200298D01*
X0085839Y0202853D02*
X0095566Y0202853D01*
X0093568Y0204851D02*
X0086667Y0204851D01*
X0086905Y0206850D02*
X0091569Y0206850D01*
X0089571Y0208848D02*
X0086791Y0208848D01*
X0087572Y0210847D02*
X0085964Y0210847D01*
X0085574Y0212845D02*
X0084335Y0212845D01*
X0083575Y0214844D02*
X0080722Y0214844D01*
X0081577Y0216842D02*
X0054216Y0216842D01*
X0054153Y0216779D02*
X0055221Y0217847D01*
X0055800Y0219244D01*
X0055800Y0360705D01*
X0055998Y0360507D01*
X0057946Y0359700D01*
X0060054Y0359700D01*
X0062002Y0360507D01*
X0063493Y0361998D01*
X0064300Y0363946D01*
X0064300Y0366054D01*
X0063493Y0368002D01*
X0062002Y0369493D01*
X0060778Y0370000D01*
X0062002Y0370507D01*
X0063493Y0371998D01*
X0064300Y0373946D01*
X0064300Y0376054D01*
X0063493Y0378002D01*
X0062002Y0379493D01*
X0060778Y0380000D01*
X0062002Y0380507D01*
X0063493Y0381998D01*
X0064300Y0383946D01*
X0064300Y0386054D01*
X0063493Y0388002D01*
X0062002Y0389493D01*
X0060054Y0390300D01*
X0057946Y0390300D01*
X0055998Y0389493D01*
X0054507Y0388002D01*
X0054421Y0387795D01*
X0053779Y0387153D01*
X0050108Y0383482D01*
X0050300Y0383946D01*
X0050300Y0386054D01*
X0049493Y0388002D01*
X0048002Y0389493D01*
X0046054Y0390300D01*
X0043946Y0390300D01*
X0041998Y0389493D01*
X0040507Y0388002D01*
X0039700Y0386054D01*
X0039700Y0383946D01*
X0040507Y0381998D01*
X0041998Y0380507D01*
X0043222Y0380000D01*
X0041998Y0379493D01*
X0040800Y0378295D01*
X0040800Y0380756D01*
X0040221Y0382153D01*
X0039153Y0383221D01*
X0034153Y0388221D01*
X0032756Y0388800D01*
X0032695Y0388800D01*
X0032002Y0389493D01*
X0030054Y0390300D01*
X0027946Y0390300D01*
X0025998Y0389493D01*
X0024507Y0388002D01*
X0023700Y0386054D01*
X0023700Y0383946D01*
X0024507Y0381998D01*
X0025998Y0380507D01*
X0027222Y0380000D01*
X0025998Y0379493D01*
X0024507Y0378002D01*
X0023700Y0376054D01*
X0023700Y0373946D01*
X0024507Y0371998D01*
X0025998Y0370507D01*
X0027222Y0370000D01*
X0025998Y0369493D01*
X0024507Y0368002D01*
X0023700Y0366054D01*
X0023700Y0363946D01*
X0024507Y0361998D01*
X0025998Y0360507D01*
X0027946Y0359700D01*
X0030054Y0359700D01*
X0032002Y0360507D01*
X0033200Y0361705D01*
X0033200Y0339244D01*
X0033779Y0337847D01*
X0038200Y0333426D01*
X0038200Y0330358D01*
X0038030Y0330612D01*
X0037612Y0331030D01*
X0037121Y0331359D01*
X0036575Y0331585D01*
X0035995Y0331700D01*
X0032000Y0331700D01*
X0032000Y0325000D01*
X0032000Y0325000D01*
X0032000Y0325000D01*
X0025300Y0325000D01*
X0025300Y0328995D01*
X0025415Y0329575D01*
X0025641Y0330121D01*
X0025970Y0330612D01*
X0026388Y0331030D01*
X0026879Y0331359D01*
X0027425Y0331585D01*
X0028005Y0331700D01*
X0032000Y0331700D01*
X0032000Y0325000D01*
X0025300Y0325000D01*
X0025300Y0321005D01*
X0025415Y0320425D01*
X0025641Y0319879D01*
X0025970Y0319388D01*
X0026388Y0318970D01*
X0026879Y0318641D01*
X0027425Y0318415D01*
X0027602Y0318380D01*
X0027337Y0318115D01*
X0026500Y0316094D01*
X0026500Y0313906D01*
X0027337Y0311884D01*
X0028884Y0310337D01*
X0030906Y0309500D01*
X0033094Y0309500D01*
X0035115Y0310337D01*
X0035978Y0311200D01*
X0037756Y0311200D01*
X0039153Y0311779D01*
X0040221Y0312847D01*
X0045221Y0317847D01*
X0045800Y0319244D01*
X0045800Y0335756D01*
X0045221Y0337153D01*
X0044153Y0338221D01*
X0040800Y0341574D01*
X0040800Y0361705D01*
X0041998Y0360507D01*
X0043946Y0359700D01*
X0046054Y0359700D01*
X0048002Y0360507D01*
X0048200Y0360705D01*
X0048200Y0221574D01*
X0045426Y0218800D01*
X0037358Y0218800D01*
X0037612Y0218970D01*
X0038030Y0219388D01*
X0038359Y0219879D01*
X0038585Y0220425D01*
X0038700Y0221005D01*
X0038700Y0225000D01*
X0038700Y0228995D01*
X0038585Y0229575D01*
X0038359Y0230121D01*
X0038030Y0230612D01*
X0037612Y0231030D01*
X0037121Y0231359D01*
X0036575Y0231585D01*
X0035995Y0231700D01*
X0032000Y0231700D01*
X0032000Y0225000D01*
X0032000Y0225000D01*
X0038700Y0225000D01*
X0032000Y0225000D01*
X0032000Y0225000D01*
X0032000Y0225000D01*
X0025300Y0225000D01*
X0025300Y0228995D01*
X0025415Y0229575D01*
X0025641Y0230121D01*
X0025970Y0230612D01*
X0026388Y0231030D01*
X0026879Y0231359D01*
X0027425Y0231585D01*
X0028005Y0231700D01*
X0032000Y0231700D01*
X0032000Y0225000D01*
X0025300Y0225000D01*
X0025300Y0221005D01*
X0025415Y0220425D01*
X0025641Y0219879D01*
X0025970Y0219388D01*
X0026388Y0218970D01*
X0026879Y0218641D01*
X0027425Y0218415D01*
X0027602Y0218380D01*
X0027337Y0218115D01*
X0026500Y0216094D01*
X0026500Y0213906D01*
X0027337Y0211884D01*
X0028884Y0210337D01*
X0030906Y0209500D01*
X0033094Y0209500D01*
X0035115Y0210337D01*
X0035978Y0211200D01*
X0047756Y0211200D01*
X0049153Y0211779D01*
X0054153Y0216779D01*
X0055633Y0218841D02*
X0079578Y0218841D01*
X0077580Y0220839D02*
X0055800Y0220839D01*
X0055800Y0222838D02*
X0075581Y0222838D01*
X0073583Y0224836D02*
X0055800Y0224836D01*
X0055800Y0226835D02*
X0071584Y0226835D01*
X0069586Y0228833D02*
X0055800Y0228833D01*
X0055800Y0230832D02*
X0068037Y0230832D01*
X0067700Y0232830D02*
X0055800Y0232830D01*
X0055800Y0234829D02*
X0068310Y0234829D01*
X0075752Y0234829D02*
X0079500Y0234829D01*
X0079500Y0234503D02*
X0079881Y0233584D01*
X0080584Y0232881D01*
X0085584Y0227881D01*
X0086503Y0227500D01*
X0091015Y0227500D01*
X0091000Y0227485D01*
X0091000Y0225000D01*
X0097000Y0225000D01*
X0103000Y0225000D01*
X0103000Y0227485D01*
X0102985Y0227500D01*
X0121015Y0227500D01*
X0121000Y0227485D01*
X0121000Y0225000D01*
X0127000Y0225000D01*
X0133000Y0225000D01*
X0133000Y0227485D01*
X0132985Y0227500D01*
X0151015Y0227500D01*
X0151000Y0227485D01*
X0151000Y0225000D01*
X0157000Y0225000D01*
X0163000Y0225000D01*
X0163000Y0227485D01*
X0162985Y0227500D01*
X0181015Y0227500D01*
X0181000Y0227485D01*
X0181000Y0225000D01*
X0187000Y0225000D01*
X0193000Y0225000D01*
X0193000Y0227485D01*
X0192985Y0227500D01*
X0197497Y0227500D01*
X0198416Y0227881D01*
X0199119Y0228584D01*
X0204119Y0233584D01*
X0204500Y0234503D01*
X0204500Y0305497D01*
X0204119Y0306416D01*
X0203416Y0307119D01*
X0198800Y0311736D01*
X0198800Y0328020D01*
X0200522Y0326298D01*
X0203427Y0325094D01*
X0206573Y0325094D01*
X0209478Y0326298D01*
X0211702Y0328522D01*
X0212905Y0331427D01*
X0212905Y0334573D01*
X0211702Y0337478D01*
X0209478Y0339702D01*
X0206573Y0340905D01*
X0203427Y0340905D01*
X0200522Y0339702D01*
X0198298Y0337478D01*
X0197094Y0334573D01*
X0197094Y0334300D01*
X0191300Y0334300D01*
X0191300Y0335855D01*
X0190645Y0337436D01*
X0181300Y0346781D01*
X0181300Y0361205D01*
X0181998Y0360507D01*
X0183946Y0359700D01*
X0186054Y0359700D01*
X0188002Y0360507D01*
X0189493Y0361998D01*
X0190300Y0363946D01*
X0190300Y0366054D01*
X0189493Y0368002D01*
X0188002Y0369493D01*
X0186778Y0370000D01*
X0188002Y0370507D01*
X0189493Y0371998D01*
X0190300Y0373946D01*
X0190300Y0376054D01*
X0189493Y0378002D01*
X0188002Y0379493D01*
X0186778Y0380000D01*
X0188002Y0380507D01*
X0189493Y0381998D01*
X0190300Y0383946D01*
X0190300Y0386054D01*
X0189493Y0388002D01*
X0188300Y0389195D01*
X0188300Y0410600D01*
X0188823Y0410600D01*
X0191400Y0413177D01*
X0191400Y0416823D01*
X0188823Y0419400D01*
X0185177Y0419400D01*
X0182600Y0416823D01*
X0182600Y0415267D01*
X0182202Y0414869D01*
X0181700Y0413656D01*
X0181700Y0389300D01*
X0181145Y0389300D01*
X0179564Y0388645D01*
X0178355Y0387436D01*
X0173901Y0382982D01*
X0174300Y0383946D01*
X0174300Y0386054D01*
X0173493Y0388002D01*
X0172002Y0389493D01*
X0170054Y0390300D01*
X0167946Y0390300D01*
X0165998Y0389493D01*
X0164507Y0388002D01*
X0163700Y0386054D01*
X0163700Y0383946D01*
X0164507Y0381998D01*
X0165998Y0380507D01*
X0167222Y0380000D01*
X0165998Y0379493D01*
X0164507Y0378002D01*
X0163700Y0376054D01*
X0163700Y0373946D01*
X0164507Y0371998D01*
X0165998Y0370507D01*
X0167222Y0370000D01*
X0165998Y0369493D01*
X0164507Y0368002D01*
X0163700Y0366054D01*
X0163700Y0363946D01*
X0164507Y0361998D01*
X0165998Y0360507D01*
X0167946Y0359700D01*
X0170054Y0359700D01*
X0172002Y0360507D01*
X0172700Y0361205D01*
X0172700Y0344145D01*
X0173355Y0342564D01*
X0174564Y0341355D01*
X0174564Y0341355D01*
X0181619Y0334300D01*
X0176254Y0334300D01*
X0175200Y0333246D01*
X0175200Y0312500D01*
X0168800Y0312500D01*
X0168800Y0333246D01*
X0167746Y0334300D01*
X0161300Y0334300D01*
X0161300Y0335855D01*
X0160645Y0337436D01*
X0146300Y0351781D01*
X0146300Y0378219D01*
X0148781Y0380700D01*
X0151805Y0380700D01*
X0151998Y0380507D01*
X0153222Y0380000D01*
X0151998Y0379493D01*
X0150507Y0378002D01*
X0149700Y0376054D01*
X0149700Y0373946D01*
X0150507Y0371998D01*
X0151998Y0370507D01*
X0153222Y0370000D01*
X0151998Y0369493D01*
X0150507Y0368002D01*
X0149700Y0366054D01*
X0149700Y0363946D01*
X0150507Y0361998D01*
X0151998Y0360507D01*
X0153946Y0359700D01*
X0156054Y0359700D01*
X0158002Y0360507D01*
X0159493Y0361998D01*
X0160300Y0363946D01*
X0160300Y0366054D01*
X0159493Y0368002D01*
X0158002Y0369493D01*
X0156778Y0370000D01*
X0158002Y0370507D01*
X0159493Y0371998D01*
X0160300Y0373946D01*
X0160300Y0376054D01*
X0159493Y0378002D01*
X0158002Y0379493D01*
X0156778Y0380000D01*
X0158002Y0380507D01*
X0159493Y0381998D01*
X0160300Y0383946D01*
X0160300Y0386054D01*
X0159493Y0388002D01*
X0158300Y0389195D01*
X0158300Y0410600D01*
X0158823Y0410600D01*
X0161400Y0413177D01*
X0161400Y0416823D01*
X0158823Y0419400D01*
X0155177Y0419400D01*
X0152600Y0416823D01*
X0152600Y0415267D01*
X0152202Y0414869D01*
X0151700Y0413656D01*
X0151700Y0389300D01*
X0146145Y0389300D01*
X0144564Y0388645D01*
X0143355Y0387436D01*
X0138355Y0382436D01*
X0137700Y0380855D01*
X0137700Y0349145D01*
X0138355Y0347564D01*
X0139564Y0346355D01*
X0151619Y0334300D01*
X0146254Y0334300D01*
X0145200Y0333246D01*
X0145200Y0312500D01*
X0138800Y0312500D01*
X0138800Y0333246D01*
X0137746Y0334300D01*
X0131300Y0334300D01*
X0131300Y0335855D01*
X0130645Y0337436D01*
X0111300Y0356781D01*
X0111300Y0361205D01*
X0111998Y0360507D01*
X0113946Y0359700D01*
X0116054Y0359700D01*
X0118002Y0360507D01*
X0119493Y0361998D01*
X0120300Y0363946D01*
X0120300Y0366054D01*
X0119493Y0368002D01*
X0118002Y0369493D01*
X0116778Y0370000D01*
X0118002Y0370507D01*
X0119493Y0371998D01*
X0120300Y0373946D01*
X0120300Y0376054D01*
X0119493Y0378002D01*
X0118002Y0379493D01*
X0116778Y0380000D01*
X0118002Y0380507D01*
X0119493Y0381998D01*
X0120300Y0383946D01*
X0120300Y0386054D01*
X0119493Y0388002D01*
X0118002Y0389493D01*
X0116054Y0390300D01*
X0113946Y0390300D01*
X0111998Y0389493D01*
X0111805Y0389300D01*
X0111145Y0389300D01*
X0109564Y0388645D01*
X0108355Y0387436D01*
X0103901Y0382982D01*
X0104300Y0383946D01*
X0104300Y0386054D01*
X0103493Y0388002D01*
X0102300Y0389195D01*
X0102300Y0413656D01*
X0101798Y0414869D01*
X0101400Y0415267D01*
X0101400Y0416823D01*
X0098823Y0419400D01*
X0095177Y0419400D01*
X0092600Y0416823D01*
X0092600Y0413177D01*
X0095177Y0410600D01*
X0095700Y0410600D01*
X0095700Y0389195D01*
X0094507Y0388002D01*
X0093700Y0386054D01*
X0093700Y0383946D01*
X0094507Y0381998D01*
X0095998Y0380507D01*
X0097222Y0380000D01*
X0095998Y0379493D01*
X0094507Y0378002D01*
X0093700Y0376054D01*
X0093700Y0373946D01*
X0094507Y0371998D01*
X0095998Y0370507D01*
X0097222Y0370000D01*
X0095998Y0369493D01*
X0094507Y0368002D01*
X0093700Y0366054D01*
X0093700Y0363946D01*
X0094507Y0361998D01*
X0095998Y0360507D01*
X0097946Y0359700D01*
X0100054Y0359700D01*
X0102002Y0360507D01*
X0102700Y0361205D01*
X0102700Y0354145D01*
X0103355Y0352564D01*
X0104564Y0351355D01*
X0121619Y0334300D01*
X0116254Y0334300D01*
X0115200Y0333246D01*
X0115200Y0312500D01*
X0108800Y0312500D01*
X0108800Y0333246D01*
X0107746Y0334300D01*
X0101300Y0334300D01*
X0101300Y0335855D01*
X0100645Y0337436D01*
X0076300Y0361781D01*
X0076300Y0378219D01*
X0078781Y0380700D01*
X0081805Y0380700D01*
X0081998Y0380507D01*
X0083222Y0380000D01*
X0081998Y0379493D01*
X0080507Y0378002D01*
X0079700Y0376054D01*
X0079700Y0373946D01*
X0080507Y0371998D01*
X0081998Y0370507D01*
X0083222Y0370000D01*
X0081998Y0369493D01*
X0080507Y0368002D01*
X0079700Y0366054D01*
X0079700Y0363946D01*
X0080507Y0361998D01*
X0081998Y0360507D01*
X0083946Y0359700D01*
X0086054Y0359700D01*
X0088002Y0360507D01*
X0089493Y0361998D01*
X0090300Y0363946D01*
X0090300Y0366054D01*
X0089493Y0368002D01*
X0088002Y0369493D01*
X0086778Y0370000D01*
X0088002Y0370507D01*
X0089493Y0371998D01*
X0090300Y0373946D01*
X0090300Y0376054D01*
X0089493Y0378002D01*
X0088002Y0379493D01*
X0086778Y0380000D01*
X0088002Y0380507D01*
X0089493Y0381998D01*
X0090300Y0383946D01*
X0090300Y0386054D01*
X0089493Y0388002D01*
X0088002Y0389493D01*
X0086054Y0390300D01*
X0083946Y0390300D01*
X0081998Y0389493D01*
X0081805Y0389300D01*
X0076145Y0389300D01*
X0074564Y0388645D01*
X0073355Y0387436D01*
X0068355Y0382436D01*
X0067700Y0380855D01*
X0067700Y0359145D01*
X0068355Y0357564D01*
X0069564Y0356355D01*
X0091619Y0334300D01*
X0086905Y0334300D01*
X0086905Y0334573D01*
X0085702Y0337478D01*
X0083478Y0339702D01*
X0080573Y0340905D01*
X0077427Y0340905D01*
X0074522Y0339702D01*
X0072298Y0337478D01*
X0071094Y0334573D01*
X0071094Y0331427D01*
X0072298Y0328522D01*
X0074522Y0326298D01*
X0077427Y0325094D01*
X0080573Y0325094D01*
X0083478Y0326298D01*
X0085200Y0328020D01*
X0085200Y0311736D01*
X0084881Y0311416D01*
X0080584Y0307119D01*
X0080584Y0307119D01*
X0079881Y0306416D01*
X0079500Y0305497D01*
X0079500Y0234503D01*
X0080634Y0232830D02*
X0077751Y0232830D01*
X0079749Y0230832D02*
X0082633Y0230832D01*
X0081748Y0228833D02*
X0084631Y0228833D01*
X0083746Y0226835D02*
X0091000Y0226835D01*
X0091000Y0225000D02*
X0091000Y0222515D01*
X0094515Y0219000D01*
X0097000Y0219000D01*
X0099485Y0219000D01*
X0103000Y0222515D01*
X0103000Y0225000D01*
X0097000Y0225000D01*
X0097000Y0225000D01*
X0097000Y0219000D01*
X0097000Y0225000D01*
X0097000Y0225000D01*
X0097000Y0225000D01*
X0091000Y0225000D01*
X0091000Y0224836D02*
X0085745Y0224836D01*
X0087743Y0222838D02*
X0091000Y0222838D01*
X0089742Y0220839D02*
X0092675Y0220839D01*
X0091740Y0218841D02*
X0189760Y0218841D01*
X0189485Y0219000D02*
X0193000Y0222515D01*
X0193000Y0225000D01*
X0187000Y0225000D01*
X0187000Y0225000D01*
X0187000Y0219000D01*
X0189485Y0219000D01*
X0187000Y0219000D02*
X0187000Y0225000D01*
X0187000Y0225000D01*
X0187000Y0225000D01*
X0181000Y0225000D01*
X0181000Y0222515D01*
X0184515Y0219000D01*
X0187000Y0219000D01*
X0187000Y0220839D02*
X0187000Y0220839D01*
X0187000Y0222838D02*
X0187000Y0222838D01*
X0187000Y0224836D02*
X0187000Y0224836D01*
X0191324Y0220839D02*
X0191758Y0220839D01*
X0193000Y0222838D02*
X0193757Y0222838D01*
X0193000Y0224836D02*
X0195755Y0224836D01*
X0197754Y0226835D02*
X0193000Y0226835D01*
X0199369Y0228833D02*
X0199752Y0228833D01*
X0201367Y0230832D02*
X0201751Y0230832D01*
X0203366Y0232830D02*
X0203749Y0232830D01*
X0204500Y0234829D02*
X0205748Y0234829D01*
X0204500Y0236827D02*
X0207746Y0236827D01*
X0209745Y0238826D02*
X0204500Y0238826D01*
X0204500Y0240824D02*
X0211743Y0240824D01*
X0213742Y0242823D02*
X0204500Y0242823D01*
X0204500Y0244821D02*
X0215740Y0244821D01*
X0217700Y0246820D02*
X0204500Y0246820D01*
X0204500Y0248818D02*
X0217700Y0248818D01*
X0217700Y0250817D02*
X0204500Y0250817D01*
X0204500Y0252815D02*
X0217700Y0252815D01*
X0217700Y0254814D02*
X0204500Y0254814D01*
X0204500Y0256812D02*
X0217700Y0256812D01*
X0217700Y0258811D02*
X0204500Y0258811D01*
X0204500Y0260809D02*
X0217700Y0260809D01*
X0217700Y0262808D02*
X0204500Y0262808D01*
X0204500Y0264806D02*
X0217700Y0264806D01*
X0217700Y0266805D02*
X0204500Y0266805D01*
X0204500Y0268803D02*
X0217700Y0268803D01*
X0217700Y0270802D02*
X0204500Y0270802D01*
X0204500Y0272801D02*
X0217700Y0272801D01*
X0217700Y0274799D02*
X0204500Y0274799D01*
X0204500Y0276798D02*
X0217700Y0276798D01*
X0217700Y0278796D02*
X0204500Y0278796D01*
X0204500Y0280795D02*
X0217700Y0280795D01*
X0217700Y0282793D02*
X0204500Y0282793D01*
X0204500Y0284792D02*
X0217700Y0284792D01*
X0217700Y0286790D02*
X0204500Y0286790D01*
X0204500Y0288789D02*
X0217700Y0288789D01*
X0217700Y0290787D02*
X0204500Y0290787D01*
X0204500Y0292786D02*
X0217700Y0292786D01*
X0217700Y0294784D02*
X0204500Y0294784D01*
X0204500Y0296783D02*
X0217700Y0296783D01*
X0217700Y0298781D02*
X0204500Y0298781D01*
X0204500Y0300780D02*
X0217700Y0300780D01*
X0217700Y0302778D02*
X0204500Y0302778D01*
X0204500Y0304777D02*
X0217700Y0304777D01*
X0217700Y0306775D02*
X0203760Y0306775D01*
X0201762Y0308774D02*
X0217700Y0308774D01*
X0217700Y0310772D02*
X0199763Y0310772D01*
X0198800Y0312771D02*
X0217700Y0312771D01*
X0217700Y0314769D02*
X0198800Y0314769D01*
X0198800Y0316768D02*
X0217700Y0316768D01*
X0217700Y0318766D02*
X0198800Y0318766D01*
X0198800Y0320765D02*
X0217700Y0320765D01*
X0217700Y0322763D02*
X0198800Y0322763D01*
X0198800Y0324762D02*
X0217700Y0324762D01*
X0217700Y0326760D02*
X0209940Y0326760D01*
X0211800Y0328759D02*
X0217700Y0328759D01*
X0217700Y0330757D02*
X0212628Y0330757D01*
X0212905Y0332756D02*
X0217700Y0332756D01*
X0217700Y0334754D02*
X0212830Y0334754D01*
X0212002Y0336753D02*
X0217700Y0336753D01*
X0217700Y0338751D02*
X0210429Y0338751D01*
X0206948Y0340750D02*
X0217700Y0340750D01*
X0217700Y0342748D02*
X0185333Y0342748D01*
X0187331Y0340750D02*
X0203052Y0340750D01*
X0199571Y0338751D02*
X0189330Y0338751D01*
X0190928Y0336753D02*
X0197998Y0336753D01*
X0197170Y0334754D02*
X0191300Y0334754D01*
X0198800Y0326760D02*
X0200060Y0326760D01*
X0183334Y0344747D02*
X0217700Y0344747D01*
X0217700Y0346745D02*
X0181336Y0346745D01*
X0181300Y0348744D02*
X0217700Y0348744D01*
X0217700Y0350742D02*
X0181300Y0350742D01*
X0181300Y0352741D02*
X0217700Y0352741D01*
X0217700Y0354739D02*
X0181300Y0354739D01*
X0181300Y0356738D02*
X0217700Y0356738D01*
X0217182Y0358737D02*
X0181300Y0358737D01*
X0181300Y0360735D02*
X0181770Y0360735D01*
X0188230Y0360735D02*
X0195770Y0360735D01*
X0194202Y0362734D02*
X0189798Y0362734D01*
X0190300Y0364732D02*
X0193700Y0364732D01*
X0193980Y0366731D02*
X0190020Y0366731D01*
X0188766Y0368729D02*
X0195234Y0368729D01*
X0195777Y0370728D02*
X0188223Y0370728D01*
X0189795Y0372726D02*
X0194205Y0372726D01*
X0193700Y0374725D02*
X0190300Y0374725D01*
X0190023Y0376723D02*
X0193977Y0376723D01*
X0195226Y0378722D02*
X0188774Y0378722D01*
X0188215Y0380720D02*
X0195785Y0380720D01*
X0194208Y0382719D02*
X0189792Y0382719D01*
X0190300Y0384717D02*
X0193700Y0384717D01*
X0193974Y0386716D02*
X0190026Y0386716D01*
X0188781Y0388714D02*
X0195219Y0388714D01*
X0188300Y0390713D02*
X0251700Y0390713D01*
X0251700Y0389195D02*
X0250507Y0388002D01*
X0249700Y0386054D01*
X0249700Y0383946D01*
X0250507Y0381998D01*
X0251998Y0380507D01*
X0253222Y0380000D01*
X0251998Y0379493D01*
X0250507Y0378002D01*
X0249700Y0376054D01*
X0249700Y0373946D01*
X0250507Y0371998D01*
X0251998Y0370507D01*
X0253222Y0370000D01*
X0251998Y0369493D01*
X0250507Y0368002D01*
X0249700Y0366054D01*
X0249700Y0363946D01*
X0250507Y0361998D01*
X0251998Y0360507D01*
X0253946Y0359700D01*
X0256054Y0359700D01*
X0258002Y0360507D01*
X0259493Y0361998D01*
X0260300Y0363946D01*
X0260300Y0366054D01*
X0259493Y0368002D01*
X0258002Y0369493D01*
X0256778Y0370000D01*
X0258002Y0370507D01*
X0259493Y0371998D01*
X0260300Y0373946D01*
X0260300Y0376054D01*
X0259493Y0378002D01*
X0258002Y0379493D01*
X0256778Y0380000D01*
X0258002Y0380507D01*
X0259493Y0381998D01*
X0260300Y0383946D01*
X0260300Y0386054D01*
X0259493Y0388002D01*
X0258300Y0389195D01*
X0258300Y0410600D01*
X0258823Y0410600D01*
X0261400Y0413177D01*
X0261400Y0416823D01*
X0258823Y0419400D01*
X0255177Y0419400D01*
X0252600Y0416823D01*
X0252600Y0415267D01*
X0252202Y0414869D01*
X0251700Y0413656D01*
X0251700Y0389195D01*
X0251219Y0388714D02*
X0202781Y0388714D01*
X0204026Y0386716D02*
X0249974Y0386716D01*
X0249700Y0384717D02*
X0204300Y0384717D01*
X0203792Y0382719D02*
X0250208Y0382719D01*
X0251785Y0380720D02*
X0202215Y0380720D01*
X0209252Y0378722D02*
X0251226Y0378722D01*
X0249977Y0376723D02*
X0211358Y0376723D01*
X0213357Y0374725D02*
X0249700Y0374725D01*
X0250205Y0372726D02*
X0215355Y0372726D01*
X0217354Y0370728D02*
X0251777Y0370728D01*
X0251234Y0368729D02*
X0219352Y0368729D01*
X0221351Y0366731D02*
X0249980Y0366731D01*
X0249700Y0364732D02*
X0223349Y0364732D01*
X0225348Y0362734D02*
X0250202Y0362734D01*
X0251770Y0360735D02*
X0226300Y0360735D01*
X0226300Y0358737D02*
X0268948Y0358737D01*
X0269912Y0359700D02*
X0257931Y0347719D01*
X0257200Y0345955D01*
X0257200Y0334300D01*
X0251905Y0334300D01*
X0251905Y0334573D01*
X0250702Y0337478D01*
X0248478Y0339702D01*
X0245573Y0340905D01*
X0242427Y0340905D01*
X0239522Y0339702D01*
X0237298Y0337478D01*
X0236094Y0334573D01*
X0236094Y0331427D01*
X0237298Y0328522D01*
X0239522Y0326298D01*
X0242427Y0325094D01*
X0245573Y0325094D01*
X0248478Y0326298D01*
X0250200Y0328020D01*
X0250200Y0311736D01*
X0244881Y0306416D01*
X0244500Y0305497D01*
X0244500Y0234503D01*
X0244881Y0233584D01*
X0245584Y0232881D01*
X0250584Y0227881D01*
X0251503Y0227500D01*
X0256015Y0227500D01*
X0256000Y0227485D01*
X0256000Y0225000D01*
X0262000Y0225000D01*
X0268000Y0225000D01*
X0268000Y0227485D01*
X0267985Y0227500D01*
X0286015Y0227500D01*
X0286000Y0227485D01*
X0286000Y0225000D01*
X0292000Y0225000D01*
X0298000Y0225000D01*
X0298000Y0227485D01*
X0297985Y0227500D01*
X0316015Y0227500D01*
X0316000Y0227485D01*
X0316000Y0225000D01*
X0322000Y0225000D01*
X0328000Y0225000D01*
X0328000Y0227485D01*
X0327985Y0227500D01*
X0346015Y0227500D01*
X0346000Y0227485D01*
X0346000Y0225000D01*
X0352000Y0225000D01*
X0358000Y0225000D01*
X0358000Y0227485D01*
X0357985Y0227500D01*
X0362497Y0227500D01*
X0363416Y0227881D01*
X0364119Y0228584D01*
X0369119Y0233584D01*
X0369500Y0234503D01*
X0369500Y0305497D01*
X0369119Y0306416D01*
X0368416Y0307119D01*
X0363800Y0311736D01*
X0363800Y0328020D01*
X0365522Y0326298D01*
X0368427Y0325094D01*
X0371573Y0325094D01*
X0374478Y0326298D01*
X0376702Y0328522D01*
X0377905Y0331427D01*
X0377905Y0334573D01*
X0376702Y0337478D01*
X0374478Y0339702D01*
X0371573Y0340905D01*
X0368427Y0340905D01*
X0365522Y0339702D01*
X0363298Y0337478D01*
X0362094Y0334573D01*
X0362094Y0334300D01*
X0356800Y0334300D01*
X0356800Y0343012D01*
X0374719Y0360931D01*
X0376069Y0362281D01*
X0376800Y0364045D01*
X0376800Y0380955D01*
X0376069Y0382719D01*
X0371069Y0387719D01*
X0369719Y0389069D01*
X0367955Y0389800D01*
X0361261Y0389800D01*
X0360054Y0390300D01*
X0357946Y0390300D01*
X0355998Y0389493D01*
X0354507Y0388002D01*
X0353700Y0386054D01*
X0353700Y0383946D01*
X0354507Y0381998D01*
X0355998Y0380507D01*
X0357222Y0380000D01*
X0355998Y0379493D01*
X0354507Y0378002D01*
X0353700Y0376054D01*
X0353700Y0373946D01*
X0354507Y0371998D01*
X0355998Y0370507D01*
X0357222Y0370000D01*
X0355998Y0369493D01*
X0354507Y0368002D01*
X0353700Y0366054D01*
X0353700Y0363946D01*
X0354507Y0361998D01*
X0355998Y0360507D01*
X0357946Y0359700D01*
X0359912Y0359700D01*
X0347931Y0347719D01*
X0347200Y0345955D01*
X0347200Y0334300D01*
X0341254Y0334300D01*
X0340200Y0333246D01*
X0340200Y0312500D01*
X0333800Y0312500D01*
X0333800Y0333246D01*
X0332746Y0334300D01*
X0326800Y0334300D01*
X0326800Y0343012D01*
X0339719Y0355931D01*
X0341069Y0357281D01*
X0341800Y0359045D01*
X0341800Y0360705D01*
X0341998Y0360507D01*
X0343946Y0359700D01*
X0346054Y0359700D01*
X0348002Y0360507D01*
X0349493Y0361998D01*
X0350300Y0363946D01*
X0350300Y0366054D01*
X0349493Y0368002D01*
X0348002Y0369493D01*
X0346778Y0370000D01*
X0348002Y0370507D01*
X0349493Y0371998D01*
X0350300Y0373946D01*
X0350300Y0376054D01*
X0349493Y0378002D01*
X0348002Y0379493D01*
X0346778Y0380000D01*
X0348002Y0380507D01*
X0349493Y0381998D01*
X0350300Y0383946D01*
X0350300Y0386054D01*
X0349493Y0388002D01*
X0348300Y0389195D01*
X0348300Y0410600D01*
X0348823Y0410600D01*
X0351400Y0413177D01*
X0351400Y0416823D01*
X0348823Y0419400D01*
X0345177Y0419400D01*
X0342600Y0416823D01*
X0342600Y0415267D01*
X0342202Y0414869D01*
X0341700Y0413656D01*
X0341700Y0389195D01*
X0340507Y0388002D01*
X0339700Y0386054D01*
X0339700Y0384088D01*
X0336069Y0387719D01*
X0334719Y0389069D01*
X0332955Y0389800D01*
X0331261Y0389800D01*
X0330054Y0390300D01*
X0327946Y0390300D01*
X0325998Y0389493D01*
X0324507Y0388002D01*
X0323700Y0386054D01*
X0323700Y0383946D01*
X0324507Y0381998D01*
X0325998Y0380507D01*
X0327222Y0380000D01*
X0325998Y0379493D01*
X0324507Y0378002D01*
X0323700Y0376054D01*
X0323700Y0373946D01*
X0324507Y0371998D01*
X0325998Y0370507D01*
X0327222Y0370000D01*
X0325998Y0369493D01*
X0324507Y0368002D01*
X0323700Y0366054D01*
X0323700Y0363946D01*
X0324507Y0361998D01*
X0325998Y0360507D01*
X0327946Y0359700D01*
X0329912Y0359700D01*
X0317931Y0347719D01*
X0317200Y0345955D01*
X0317200Y0334300D01*
X0311254Y0334300D01*
X0310200Y0333246D01*
X0310200Y0312500D01*
X0303800Y0312500D01*
X0303800Y0333246D01*
X0302746Y0334300D01*
X0296800Y0334300D01*
X0296800Y0343012D01*
X0309719Y0355931D01*
X0311069Y0357281D01*
X0311800Y0359045D01*
X0311800Y0360705D01*
X0311998Y0360507D01*
X0313946Y0359700D01*
X0316054Y0359700D01*
X0318002Y0360507D01*
X0319493Y0361998D01*
X0320300Y0363946D01*
X0320300Y0366054D01*
X0319493Y0368002D01*
X0318002Y0369493D01*
X0316778Y0370000D01*
X0318002Y0370507D01*
X0319493Y0371998D01*
X0320300Y0373946D01*
X0320300Y0376054D01*
X0319493Y0378002D01*
X0318002Y0379493D01*
X0316778Y0380000D01*
X0318002Y0380507D01*
X0319493Y0381998D01*
X0320300Y0383946D01*
X0320300Y0386054D01*
X0319493Y0388002D01*
X0318300Y0389195D01*
X0318300Y0410600D01*
X0318823Y0410600D01*
X0321400Y0413177D01*
X0321400Y0416823D01*
X0318823Y0419400D01*
X0315177Y0419400D01*
X0312600Y0416823D01*
X0312600Y0415267D01*
X0312202Y0414869D01*
X0311700Y0413656D01*
X0311700Y0389195D01*
X0310507Y0388002D01*
X0309700Y0386054D01*
X0309700Y0384088D01*
X0306069Y0387719D01*
X0304719Y0389069D01*
X0302955Y0389800D01*
X0301261Y0389800D01*
X0300054Y0390300D01*
X0297946Y0390300D01*
X0295998Y0389493D01*
X0294507Y0388002D01*
X0293700Y0386054D01*
X0293700Y0383946D01*
X0294507Y0381998D01*
X0295998Y0380507D01*
X0297222Y0380000D01*
X0295998Y0379493D01*
X0294507Y0378002D01*
X0293700Y0376054D01*
X0293700Y0373946D01*
X0294507Y0371998D01*
X0295998Y0370507D01*
X0297222Y0370000D01*
X0295998Y0369493D01*
X0294507Y0368002D01*
X0293700Y0366054D01*
X0293700Y0363946D01*
X0294507Y0361998D01*
X0295998Y0360507D01*
X0297946Y0359700D01*
X0299912Y0359700D01*
X0287931Y0347719D01*
X0287200Y0345955D01*
X0287200Y0334300D01*
X0281254Y0334300D01*
X0280200Y0333246D01*
X0280200Y0312500D01*
X0273800Y0312500D01*
X0273800Y0333246D01*
X0272746Y0334300D01*
X0266800Y0334300D01*
X0266800Y0343012D01*
X0279719Y0355931D01*
X0281069Y0357281D01*
X0281800Y0359045D01*
X0281800Y0360705D01*
X0281998Y0360507D01*
X0283946Y0359700D01*
X0286054Y0359700D01*
X0288002Y0360507D01*
X0289493Y0361998D01*
X0290300Y0363946D01*
X0290300Y0366054D01*
X0289493Y0368002D01*
X0288002Y0369493D01*
X0286778Y0370000D01*
X0288002Y0370507D01*
X0289493Y0371998D01*
X0290300Y0373946D01*
X0290300Y0376054D01*
X0289493Y0378002D01*
X0288002Y0379493D01*
X0286778Y0380000D01*
X0288002Y0380507D01*
X0289493Y0381998D01*
X0290300Y0383946D01*
X0290300Y0386054D01*
X0289493Y0388002D01*
X0288300Y0389195D01*
X0288300Y0410600D01*
X0288823Y0410600D01*
X0291400Y0413177D01*
X0291400Y0416823D01*
X0288823Y0419400D01*
X0285177Y0419400D01*
X0282600Y0416823D01*
X0282600Y0415267D01*
X0282202Y0414869D01*
X0281700Y0413656D01*
X0281700Y0389195D01*
X0280507Y0388002D01*
X0279700Y0386054D01*
X0279700Y0384088D01*
X0276069Y0387719D01*
X0274719Y0389069D01*
X0272955Y0389800D01*
X0271261Y0389800D01*
X0270054Y0390300D01*
X0267946Y0390300D01*
X0265998Y0389493D01*
X0264507Y0388002D01*
X0263700Y0386054D01*
X0263700Y0383946D01*
X0264507Y0381998D01*
X0265998Y0380507D01*
X0267222Y0380000D01*
X0265998Y0379493D01*
X0264507Y0378002D01*
X0263700Y0376054D01*
X0263700Y0373946D01*
X0264507Y0371998D01*
X0265998Y0370507D01*
X0267222Y0370000D01*
X0265998Y0369493D01*
X0264507Y0368002D01*
X0263700Y0366054D01*
X0263700Y0363946D01*
X0264507Y0361998D01*
X0265998Y0360507D01*
X0267946Y0359700D01*
X0269912Y0359700D01*
X0266950Y0356738D02*
X0226300Y0356738D01*
X0226300Y0354739D02*
X0264951Y0354739D01*
X0262953Y0352741D02*
X0226300Y0352741D01*
X0226300Y0350742D02*
X0260954Y0350742D01*
X0258956Y0348744D02*
X0226300Y0348744D01*
X0226300Y0346745D02*
X0257528Y0346745D01*
X0257200Y0344747D02*
X0226300Y0344747D01*
X0226300Y0342748D02*
X0257200Y0342748D01*
X0257200Y0340750D02*
X0245948Y0340750D01*
X0242052Y0340750D02*
X0226300Y0340750D01*
X0226300Y0338751D02*
X0238571Y0338751D01*
X0236998Y0336753D02*
X0226300Y0336753D01*
X0226300Y0334754D02*
X0236170Y0334754D01*
X0236094Y0332756D02*
X0226300Y0332756D01*
X0226300Y0330757D02*
X0236372Y0330757D01*
X0237200Y0328759D02*
X0226300Y0328759D01*
X0226300Y0326760D02*
X0239060Y0326760D01*
X0248940Y0326760D02*
X0250200Y0326760D01*
X0250200Y0324762D02*
X0226300Y0324762D01*
X0226300Y0322763D02*
X0250200Y0322763D01*
X0250200Y0320765D02*
X0226300Y0320765D01*
X0226300Y0318766D02*
X0250200Y0318766D01*
X0250200Y0316768D02*
X0226300Y0316768D01*
X0226300Y0314769D02*
X0250200Y0314769D01*
X0250200Y0312771D02*
X0226300Y0312771D01*
X0226300Y0310772D02*
X0249237Y0310772D01*
X0247238Y0308774D02*
X0226300Y0308774D01*
X0226300Y0306775D02*
X0245240Y0306775D01*
X0244500Y0304777D02*
X0226300Y0304777D01*
X0226300Y0302778D02*
X0244500Y0302778D01*
X0244500Y0300780D02*
X0226300Y0300780D01*
X0226300Y0298781D02*
X0244500Y0298781D01*
X0244500Y0296783D02*
X0226300Y0296783D01*
X0226300Y0294784D02*
X0244500Y0294784D01*
X0244500Y0292786D02*
X0226300Y0292786D01*
X0226300Y0290787D02*
X0244500Y0290787D01*
X0244500Y0288789D02*
X0226300Y0288789D01*
X0226300Y0286790D02*
X0244500Y0286790D01*
X0244500Y0284792D02*
X0226300Y0284792D01*
X0226300Y0282793D02*
X0244500Y0282793D01*
X0244500Y0280795D02*
X0226300Y0280795D01*
X0226300Y0278796D02*
X0244500Y0278796D01*
X0244500Y0276798D02*
X0226300Y0276798D01*
X0226300Y0274799D02*
X0244500Y0274799D01*
X0244500Y0272801D02*
X0226300Y0272801D01*
X0226300Y0270802D02*
X0244500Y0270802D01*
X0244500Y0268803D02*
X0226300Y0268803D01*
X0226300Y0266805D02*
X0244500Y0266805D01*
X0244500Y0264806D02*
X0226300Y0264806D01*
X0226300Y0262808D02*
X0244500Y0262808D01*
X0244500Y0260809D02*
X0226300Y0260809D01*
X0226300Y0258811D02*
X0244500Y0258811D01*
X0244500Y0256812D02*
X0226300Y0256812D01*
X0226300Y0254814D02*
X0244500Y0254814D01*
X0244500Y0252815D02*
X0226300Y0252815D01*
X0226300Y0250817D02*
X0244500Y0250817D01*
X0244500Y0248818D02*
X0226300Y0248818D01*
X0226300Y0246820D02*
X0244500Y0246820D01*
X0244500Y0244821D02*
X0226300Y0244821D01*
X0225752Y0242823D02*
X0244500Y0242823D01*
X0244500Y0240824D02*
X0223905Y0240824D01*
X0221907Y0238826D02*
X0244500Y0238826D01*
X0244500Y0236827D02*
X0219908Y0236827D01*
X0217910Y0234829D02*
X0244500Y0234829D01*
X0245634Y0232830D02*
X0215911Y0232830D01*
X0213913Y0230832D02*
X0247633Y0230832D01*
X0249631Y0228833D02*
X0211914Y0228833D01*
X0209916Y0226835D02*
X0256000Y0226835D01*
X0256000Y0225000D02*
X0256000Y0222515D01*
X0259515Y0219000D01*
X0262000Y0219000D01*
X0264485Y0219000D01*
X0268000Y0222515D01*
X0268000Y0225000D01*
X0262000Y0225000D01*
X0262000Y0225000D01*
X0262000Y0219000D01*
X0262000Y0225000D01*
X0262000Y0225000D01*
X0262000Y0225000D01*
X0256000Y0225000D01*
X0256000Y0224836D02*
X0207917Y0224836D01*
X0205919Y0222838D02*
X0256000Y0222838D01*
X0257675Y0220839D02*
X0203920Y0220839D01*
X0201922Y0218841D02*
X0389500Y0218841D01*
X0389500Y0220839D02*
X0356324Y0220839D01*
X0358000Y0222515D02*
X0358000Y0225000D01*
X0352000Y0225000D01*
X0352000Y0225000D01*
X0352000Y0219000D01*
X0354485Y0219000D01*
X0358000Y0222515D01*
X0358000Y0222838D02*
X0389500Y0222838D01*
X0389500Y0224836D02*
X0358000Y0224836D01*
X0358000Y0226835D02*
X0389500Y0226835D01*
X0389500Y0228833D02*
X0364369Y0228833D01*
X0366367Y0230832D02*
X0389500Y0230832D01*
X0389500Y0232830D02*
X0368366Y0232830D01*
X0369500Y0234829D02*
X0389500Y0234829D01*
X0389500Y0236827D02*
X0369500Y0236827D01*
X0369500Y0238826D02*
X0389500Y0238826D01*
X0389500Y0240824D02*
X0369500Y0240824D01*
X0369500Y0242823D02*
X0389500Y0242823D01*
X0389500Y0244821D02*
X0369500Y0244821D01*
X0369500Y0246820D02*
X0389500Y0246820D01*
X0389500Y0248818D02*
X0369500Y0248818D01*
X0369500Y0250817D02*
X0389500Y0250817D01*
X0389500Y0252815D02*
X0369500Y0252815D01*
X0369500Y0254814D02*
X0389500Y0254814D01*
X0389500Y0256812D02*
X0369500Y0256812D01*
X0369500Y0258811D02*
X0389500Y0258811D01*
X0389500Y0260809D02*
X0369500Y0260809D01*
X0369500Y0262808D02*
X0389500Y0262808D01*
X0389500Y0264806D02*
X0369500Y0264806D01*
X0369500Y0266805D02*
X0389500Y0266805D01*
X0389500Y0268803D02*
X0369500Y0268803D01*
X0369500Y0270802D02*
X0389500Y0270802D01*
X0389500Y0272801D02*
X0369500Y0272801D01*
X0369500Y0274799D02*
X0389500Y0274799D01*
X0389500Y0276798D02*
X0369500Y0276798D01*
X0369500Y0278796D02*
X0389500Y0278796D01*
X0389500Y0280795D02*
X0369500Y0280795D01*
X0369500Y0282793D02*
X0389500Y0282793D01*
X0389500Y0284792D02*
X0369500Y0284792D01*
X0369500Y0286790D02*
X0389500Y0286790D01*
X0389500Y0288789D02*
X0369500Y0288789D01*
X0369500Y0290787D02*
X0389500Y0290787D01*
X0389500Y0292786D02*
X0369500Y0292786D01*
X0369500Y0294784D02*
X0389500Y0294784D01*
X0389500Y0296783D02*
X0369500Y0296783D01*
X0369500Y0298781D02*
X0389500Y0298781D01*
X0389500Y0300780D02*
X0369500Y0300780D01*
X0369500Y0302778D02*
X0389500Y0302778D01*
X0389500Y0304777D02*
X0369500Y0304777D01*
X0368760Y0306775D02*
X0389500Y0306775D01*
X0389500Y0308774D02*
X0366762Y0308774D01*
X0368416Y0307119D02*
X0368416Y0307119D01*
X0364763Y0310772D02*
X0389500Y0310772D01*
X0389500Y0312771D02*
X0363800Y0312771D01*
X0363800Y0314769D02*
X0389500Y0314769D01*
X0389500Y0316768D02*
X0363800Y0316768D01*
X0363800Y0318766D02*
X0389500Y0318766D01*
X0389500Y0320765D02*
X0363800Y0320765D01*
X0363800Y0322763D02*
X0389500Y0322763D01*
X0389500Y0324762D02*
X0363800Y0324762D01*
X0363800Y0326760D02*
X0365060Y0326760D01*
X0362170Y0334754D02*
X0356800Y0334754D01*
X0356800Y0336753D02*
X0362998Y0336753D01*
X0364571Y0338751D02*
X0356800Y0338751D01*
X0356800Y0340750D02*
X0368052Y0340750D01*
X0371948Y0340750D02*
X0389500Y0340750D01*
X0389500Y0342748D02*
X0356800Y0342748D01*
X0358535Y0344747D02*
X0389500Y0344747D01*
X0389500Y0346745D02*
X0360534Y0346745D01*
X0362532Y0348744D02*
X0389500Y0348744D01*
X0389500Y0350742D02*
X0364531Y0350742D01*
X0366529Y0352741D02*
X0389500Y0352741D01*
X0389500Y0354739D02*
X0368528Y0354739D01*
X0370526Y0356738D02*
X0389500Y0356738D01*
X0389500Y0358737D02*
X0372525Y0358737D01*
X0374523Y0360735D02*
X0389500Y0360735D01*
X0389500Y0362734D02*
X0376257Y0362734D01*
X0376800Y0364732D02*
X0389500Y0364732D01*
X0389500Y0366731D02*
X0376800Y0366731D01*
X0376800Y0368729D02*
X0389500Y0368729D01*
X0389500Y0370728D02*
X0376800Y0370728D01*
X0376800Y0372726D02*
X0389500Y0372726D01*
X0389500Y0374725D02*
X0376800Y0374725D01*
X0376800Y0376723D02*
X0389500Y0376723D01*
X0389500Y0378722D02*
X0376800Y0378722D01*
X0376800Y0380720D02*
X0389500Y0380720D01*
X0389500Y0382719D02*
X0376069Y0382719D01*
X0374071Y0384717D02*
X0389500Y0384717D01*
X0389500Y0386716D02*
X0372073Y0386716D01*
X0370074Y0388714D02*
X0389500Y0388714D01*
X0389500Y0390713D02*
X0348300Y0390713D01*
X0348300Y0392711D02*
X0389500Y0392711D01*
X0389500Y0394710D02*
X0348300Y0394710D01*
X0348300Y0396708D02*
X0389500Y0396708D01*
X0389500Y0398707D02*
X0348300Y0398707D01*
X0348300Y0400705D02*
X0389500Y0400705D01*
X0389500Y0402704D02*
X0348300Y0402704D01*
X0348300Y0404702D02*
X0389500Y0404702D01*
X0389500Y0406701D02*
X0348300Y0406701D01*
X0348300Y0408699D02*
X0389500Y0408699D01*
X0389500Y0410698D02*
X0358920Y0410698D01*
X0358823Y0410600D02*
X0361400Y0413177D01*
X0361400Y0416823D01*
X0358823Y0419400D01*
X0355177Y0419400D01*
X0352600Y0416823D01*
X0352600Y0413177D01*
X0355177Y0410600D01*
X0358823Y0410600D01*
X0360919Y0412696D02*
X0389500Y0412696D01*
X0389500Y0414695D02*
X0361400Y0414695D01*
X0361400Y0416693D02*
X0389500Y0416693D01*
X0389500Y0418692D02*
X0359531Y0418692D01*
X0355080Y0410698D02*
X0348920Y0410698D01*
X0350919Y0412696D02*
X0353081Y0412696D01*
X0352600Y0414695D02*
X0351400Y0414695D01*
X0351400Y0416693D02*
X0352600Y0416693D01*
X0354469Y0418692D02*
X0349531Y0418692D01*
X0344469Y0418692D02*
X0329531Y0418692D01*
X0328823Y0419400D02*
X0325177Y0419400D01*
X0322600Y0416823D01*
X0322600Y0413177D01*
X0325177Y0410600D01*
X0328823Y0410600D01*
X0331400Y0413177D01*
X0331400Y0416823D01*
X0328823Y0419400D01*
X0331400Y0416693D02*
X0342600Y0416693D01*
X0342130Y0414695D02*
X0331400Y0414695D01*
X0330919Y0412696D02*
X0341700Y0412696D01*
X0341700Y0410698D02*
X0328920Y0410698D01*
X0325080Y0410698D02*
X0318920Y0410698D01*
X0318300Y0408699D02*
X0341700Y0408699D01*
X0341700Y0406701D02*
X0318300Y0406701D01*
X0318300Y0404702D02*
X0341700Y0404702D01*
X0341700Y0402704D02*
X0318300Y0402704D01*
X0318300Y0400705D02*
X0341700Y0400705D01*
X0341700Y0398707D02*
X0318300Y0398707D01*
X0318300Y0396708D02*
X0341700Y0396708D01*
X0341700Y0394710D02*
X0318300Y0394710D01*
X0318300Y0392711D02*
X0341700Y0392711D01*
X0341700Y0390713D02*
X0318300Y0390713D01*
X0318781Y0388714D02*
X0325219Y0388714D01*
X0323974Y0386716D02*
X0320026Y0386716D01*
X0320300Y0384717D02*
X0323700Y0384717D01*
X0324208Y0382719D02*
X0319792Y0382719D01*
X0318215Y0380720D02*
X0325785Y0380720D01*
X0325226Y0378722D02*
X0318774Y0378722D01*
X0320023Y0376723D02*
X0323977Y0376723D01*
X0323700Y0374725D02*
X0320300Y0374725D01*
X0319795Y0372726D02*
X0324205Y0372726D01*
X0325777Y0370728D02*
X0318223Y0370728D01*
X0318766Y0368729D02*
X0325234Y0368729D01*
X0323980Y0366731D02*
X0320020Y0366731D01*
X0320300Y0364732D02*
X0323700Y0364732D01*
X0324202Y0362734D02*
X0319798Y0362734D01*
X0318230Y0360735D02*
X0325770Y0360735D01*
X0328948Y0358737D02*
X0311672Y0358737D01*
X0310526Y0356738D02*
X0326950Y0356738D01*
X0324951Y0354739D02*
X0308528Y0354739D01*
X0306529Y0352741D02*
X0322953Y0352741D01*
X0320954Y0350742D02*
X0304531Y0350742D01*
X0302532Y0348744D02*
X0318956Y0348744D01*
X0317528Y0346745D02*
X0300534Y0346745D01*
X0298535Y0344747D02*
X0317200Y0344747D01*
X0317200Y0342748D02*
X0296800Y0342748D01*
X0296800Y0340750D02*
X0317200Y0340750D01*
X0317200Y0338751D02*
X0296800Y0338751D01*
X0296800Y0336753D02*
X0317200Y0336753D01*
X0317200Y0334754D02*
X0296800Y0334754D01*
X0303800Y0332756D02*
X0310200Y0332756D01*
X0310200Y0330757D02*
X0303800Y0330757D01*
X0303800Y0328759D02*
X0310200Y0328759D01*
X0310200Y0326760D02*
X0303800Y0326760D01*
X0303800Y0324762D02*
X0310200Y0324762D01*
X0310200Y0322763D02*
X0303800Y0322763D01*
X0303800Y0320765D02*
X0310200Y0320765D01*
X0310200Y0318766D02*
X0303800Y0318766D01*
X0303800Y0316768D02*
X0310200Y0316768D01*
X0310200Y0314769D02*
X0303800Y0314769D01*
X0303800Y0312771D02*
X0310200Y0312771D01*
X0326800Y0334754D02*
X0347200Y0334754D01*
X0347200Y0336753D02*
X0326800Y0336753D01*
X0326800Y0338751D02*
X0347200Y0338751D01*
X0347200Y0340750D02*
X0326800Y0340750D01*
X0326800Y0342748D02*
X0347200Y0342748D01*
X0347200Y0344747D02*
X0328535Y0344747D01*
X0330534Y0346745D02*
X0347528Y0346745D01*
X0348956Y0348744D02*
X0332532Y0348744D01*
X0334531Y0350742D02*
X0350954Y0350742D01*
X0352953Y0352741D02*
X0336529Y0352741D01*
X0338528Y0354739D02*
X0354951Y0354739D01*
X0356950Y0356738D02*
X0340526Y0356738D01*
X0341672Y0358737D02*
X0358948Y0358737D01*
X0355770Y0360735D02*
X0348230Y0360735D01*
X0349798Y0362734D02*
X0354202Y0362734D01*
X0353700Y0364732D02*
X0350300Y0364732D01*
X0350020Y0366731D02*
X0353980Y0366731D01*
X0355234Y0368729D02*
X0348766Y0368729D01*
X0348223Y0370728D02*
X0355777Y0370728D01*
X0354205Y0372726D02*
X0349795Y0372726D01*
X0350300Y0374725D02*
X0353700Y0374725D01*
X0353977Y0376723D02*
X0350023Y0376723D01*
X0348774Y0378722D02*
X0355226Y0378722D01*
X0355785Y0380720D02*
X0348215Y0380720D01*
X0349792Y0382719D02*
X0354208Y0382719D01*
X0353700Y0384717D02*
X0350300Y0384717D01*
X0350026Y0386716D02*
X0353974Y0386716D01*
X0355219Y0388714D02*
X0348781Y0388714D01*
X0341219Y0388714D02*
X0335074Y0388714D01*
X0337073Y0386716D02*
X0339974Y0386716D01*
X0339700Y0384717D02*
X0339071Y0384717D01*
X0323081Y0412696D02*
X0320919Y0412696D01*
X0321400Y0414695D02*
X0322600Y0414695D01*
X0322600Y0416693D02*
X0321400Y0416693D01*
X0319531Y0418692D02*
X0324469Y0418692D01*
X0314469Y0418692D02*
X0299531Y0418692D01*
X0298823Y0419400D02*
X0301400Y0416823D01*
X0301400Y0413177D01*
X0298823Y0410600D01*
X0295177Y0410600D01*
X0292600Y0413177D01*
X0292600Y0416823D01*
X0295177Y0419400D01*
X0298823Y0419400D01*
X0301400Y0416693D02*
X0312600Y0416693D01*
X0312130Y0414695D02*
X0301400Y0414695D01*
X0300919Y0412696D02*
X0311700Y0412696D01*
X0311700Y0410698D02*
X0298920Y0410698D01*
X0295080Y0410698D02*
X0288920Y0410698D01*
X0288300Y0408699D02*
X0311700Y0408699D01*
X0311700Y0406701D02*
X0288300Y0406701D01*
X0288300Y0404702D02*
X0311700Y0404702D01*
X0311700Y0402704D02*
X0288300Y0402704D01*
X0288300Y0400705D02*
X0311700Y0400705D01*
X0311700Y0398707D02*
X0288300Y0398707D01*
X0288300Y0396708D02*
X0311700Y0396708D01*
X0311700Y0394710D02*
X0288300Y0394710D01*
X0288300Y0392711D02*
X0311700Y0392711D01*
X0311700Y0390713D02*
X0288300Y0390713D01*
X0288781Y0388714D02*
X0295219Y0388714D01*
X0293974Y0386716D02*
X0290026Y0386716D01*
X0290300Y0384717D02*
X0293700Y0384717D01*
X0294208Y0382719D02*
X0289792Y0382719D01*
X0288215Y0380720D02*
X0295785Y0380720D01*
X0295226Y0378722D02*
X0288774Y0378722D01*
X0290023Y0376723D02*
X0293977Y0376723D01*
X0293700Y0374725D02*
X0290300Y0374725D01*
X0289795Y0372726D02*
X0294205Y0372726D01*
X0295777Y0370728D02*
X0288223Y0370728D01*
X0288766Y0368729D02*
X0295234Y0368729D01*
X0293980Y0366731D02*
X0290020Y0366731D01*
X0290300Y0364732D02*
X0293700Y0364732D01*
X0294202Y0362734D02*
X0289798Y0362734D01*
X0288230Y0360735D02*
X0295770Y0360735D01*
X0298948Y0358737D02*
X0281672Y0358737D01*
X0280526Y0356738D02*
X0296950Y0356738D01*
X0294951Y0354739D02*
X0278528Y0354739D01*
X0276529Y0352741D02*
X0292953Y0352741D01*
X0290954Y0350742D02*
X0274531Y0350742D01*
X0272532Y0348744D02*
X0288956Y0348744D01*
X0287528Y0346745D02*
X0270534Y0346745D01*
X0268535Y0344747D02*
X0287200Y0344747D01*
X0287200Y0342748D02*
X0266800Y0342748D01*
X0266800Y0340750D02*
X0287200Y0340750D01*
X0287200Y0338751D02*
X0266800Y0338751D01*
X0266800Y0336753D02*
X0287200Y0336753D01*
X0287200Y0334754D02*
X0266800Y0334754D01*
X0273800Y0332756D02*
X0280200Y0332756D01*
X0280200Y0330757D02*
X0273800Y0330757D01*
X0273800Y0328759D02*
X0280200Y0328759D01*
X0280200Y0326760D02*
X0273800Y0326760D01*
X0273800Y0324762D02*
X0280200Y0324762D01*
X0280200Y0322763D02*
X0273800Y0322763D01*
X0273800Y0320765D02*
X0280200Y0320765D01*
X0280200Y0318766D02*
X0273800Y0318766D01*
X0273800Y0316768D02*
X0280200Y0316768D01*
X0280200Y0314769D02*
X0273800Y0314769D01*
X0273800Y0312771D02*
X0280200Y0312771D01*
X0257200Y0334754D02*
X0251830Y0334754D01*
X0251002Y0336753D02*
X0257200Y0336753D01*
X0257200Y0338751D02*
X0249429Y0338751D01*
X0258230Y0360735D02*
X0265770Y0360735D01*
X0264202Y0362734D02*
X0259798Y0362734D01*
X0260300Y0364732D02*
X0263700Y0364732D01*
X0263980Y0366731D02*
X0260020Y0366731D01*
X0258766Y0368729D02*
X0265234Y0368729D01*
X0265777Y0370728D02*
X0258223Y0370728D01*
X0259795Y0372726D02*
X0264205Y0372726D01*
X0263700Y0374725D02*
X0260300Y0374725D01*
X0260023Y0376723D02*
X0263977Y0376723D01*
X0265226Y0378722D02*
X0258774Y0378722D01*
X0258215Y0380720D02*
X0265785Y0380720D01*
X0264208Y0382719D02*
X0259792Y0382719D01*
X0260300Y0384717D02*
X0263700Y0384717D01*
X0263974Y0386716D02*
X0260026Y0386716D01*
X0258781Y0388714D02*
X0265219Y0388714D01*
X0258300Y0390713D02*
X0281700Y0390713D01*
X0281700Y0392711D02*
X0258300Y0392711D01*
X0258300Y0394710D02*
X0281700Y0394710D01*
X0281700Y0396708D02*
X0258300Y0396708D01*
X0258300Y0398707D02*
X0281700Y0398707D01*
X0281700Y0400705D02*
X0258300Y0400705D01*
X0258300Y0402704D02*
X0281700Y0402704D01*
X0281700Y0404702D02*
X0258300Y0404702D01*
X0258300Y0406701D02*
X0281700Y0406701D01*
X0281700Y0408699D02*
X0258300Y0408699D01*
X0258920Y0410698D02*
X0265080Y0410698D01*
X0265177Y0410600D02*
X0268823Y0410600D01*
X0271400Y0413177D01*
X0271400Y0416823D01*
X0268823Y0419400D01*
X0265177Y0419400D01*
X0262600Y0416823D01*
X0262600Y0413177D01*
X0265177Y0410600D01*
X0263081Y0412696D02*
X0260919Y0412696D01*
X0261400Y0414695D02*
X0262600Y0414695D01*
X0262600Y0416693D02*
X0261400Y0416693D01*
X0259531Y0418692D02*
X0264469Y0418692D01*
X0269531Y0418692D02*
X0284469Y0418692D01*
X0282600Y0416693D02*
X0271400Y0416693D01*
X0271400Y0414695D02*
X0282130Y0414695D01*
X0281700Y0412696D02*
X0270919Y0412696D01*
X0268920Y0410698D02*
X0281700Y0410698D01*
X0290919Y0412696D02*
X0293081Y0412696D01*
X0292600Y0414695D02*
X0291400Y0414695D01*
X0291400Y0416693D02*
X0292600Y0416693D01*
X0294469Y0418692D02*
X0289531Y0418692D01*
X0281219Y0388714D02*
X0275074Y0388714D01*
X0277073Y0386716D02*
X0279974Y0386716D01*
X0279700Y0384717D02*
X0279071Y0384717D01*
X0305074Y0388714D02*
X0311219Y0388714D01*
X0309974Y0386716D02*
X0307073Y0386716D01*
X0309071Y0384717D02*
X0309700Y0384717D01*
X0333800Y0332756D02*
X0340200Y0332756D01*
X0340200Y0330757D02*
X0333800Y0330757D01*
X0333800Y0328759D02*
X0340200Y0328759D01*
X0340200Y0326760D02*
X0333800Y0326760D01*
X0333800Y0324762D02*
X0340200Y0324762D01*
X0340200Y0322763D02*
X0333800Y0322763D01*
X0333800Y0320765D02*
X0340200Y0320765D01*
X0340200Y0318766D02*
X0333800Y0318766D01*
X0333800Y0316768D02*
X0340200Y0316768D01*
X0340200Y0314769D02*
X0333800Y0314769D01*
X0333800Y0312771D02*
X0340200Y0312771D01*
X0374940Y0326760D02*
X0389500Y0326760D01*
X0389500Y0328759D02*
X0376800Y0328759D01*
X0377628Y0330757D02*
X0389500Y0330757D01*
X0389500Y0332756D02*
X0377905Y0332756D01*
X0377830Y0334754D02*
X0389500Y0334754D01*
X0389500Y0336753D02*
X0377002Y0336753D01*
X0375429Y0338751D02*
X0389500Y0338751D01*
X0389500Y0420690D02*
X0004500Y0420690D01*
X0004500Y0418692D02*
X0014469Y0418692D01*
X0015177Y0419400D02*
X0012600Y0416823D01*
X0012600Y0413177D01*
X0015177Y0410600D01*
X0018823Y0410600D01*
X0021400Y0413177D01*
X0021400Y0416823D01*
X0018823Y0419400D01*
X0015177Y0419400D01*
X0012600Y0416693D02*
X0004500Y0416693D01*
X0004500Y0414695D02*
X0012600Y0414695D01*
X0013081Y0412696D02*
X0004500Y0412696D01*
X0004500Y0410698D02*
X0015080Y0410698D01*
X0018920Y0410698D02*
X0023383Y0410698D01*
X0024680Y0409400D02*
X0021400Y0412680D01*
X0021400Y0415000D01*
X0027000Y0415000D01*
X0032600Y0415000D01*
X0032600Y0417320D01*
X0029320Y0420600D01*
X0027000Y0420600D01*
X0027000Y0415000D01*
X0027000Y0415000D01*
X0027000Y0415000D01*
X0032600Y0415000D01*
X0032600Y0412680D01*
X0029320Y0409400D01*
X0027000Y0409400D01*
X0027000Y0415000D01*
X0027000Y0415000D01*
X0027000Y0415000D01*
X0027000Y0420600D01*
X0024680Y0420600D01*
X0021400Y0417320D01*
X0021400Y0415000D01*
X0027000Y0415000D01*
X0027000Y0409400D01*
X0024680Y0409400D01*
X0027000Y0410698D02*
X0027000Y0410698D01*
X0027000Y0412696D02*
X0027000Y0412696D01*
X0027000Y0414695D02*
X0027000Y0414695D01*
X0027000Y0416693D02*
X0027000Y0416693D01*
X0027000Y0418692D02*
X0027000Y0418692D01*
X0031228Y0418692D02*
X0044469Y0418692D01*
X0045177Y0419400D02*
X0042600Y0416823D01*
X0042600Y0413177D01*
X0045177Y0410600D01*
X0048823Y0410600D01*
X0051400Y0413177D01*
X0051400Y0416823D01*
X0048823Y0419400D01*
X0045177Y0419400D01*
X0042600Y0416693D02*
X0032600Y0416693D01*
X0032600Y0414695D02*
X0042600Y0414695D01*
X0043081Y0412696D02*
X0032600Y0412696D01*
X0030617Y0410698D02*
X0045080Y0410698D01*
X0048920Y0410698D02*
X0053383Y0410698D01*
X0054680Y0409400D02*
X0051400Y0412680D01*
X0051400Y0415000D01*
X0057000Y0415000D01*
X0062600Y0415000D01*
X0062600Y0417320D01*
X0059320Y0420600D01*
X0057000Y0420600D01*
X0057000Y0415000D01*
X0057000Y0415000D01*
X0057000Y0415000D01*
X0062600Y0415000D01*
X0062600Y0412680D01*
X0059320Y0409400D01*
X0057000Y0409400D01*
X0057000Y0415000D01*
X0057000Y0415000D01*
X0057000Y0415000D01*
X0057000Y0420600D01*
X0054680Y0420600D01*
X0051400Y0417320D01*
X0051400Y0415000D01*
X0057000Y0415000D01*
X0057000Y0409400D01*
X0054680Y0409400D01*
X0057000Y0410698D02*
X0057000Y0410698D01*
X0057000Y0412696D02*
X0057000Y0412696D01*
X0057000Y0414695D02*
X0057000Y0414695D01*
X0057000Y0416693D02*
X0057000Y0416693D01*
X0057000Y0418692D02*
X0057000Y0418692D01*
X0061228Y0418692D02*
X0084469Y0418692D01*
X0085177Y0419400D02*
X0082600Y0416823D01*
X0082600Y0413177D01*
X0085177Y0410600D01*
X0088823Y0410600D01*
X0091400Y0413177D01*
X0091400Y0416823D01*
X0088823Y0419400D01*
X0085177Y0419400D01*
X0082600Y0416693D02*
X0062600Y0416693D01*
X0062600Y0414695D02*
X0082600Y0414695D01*
X0083081Y0412696D02*
X0062600Y0412696D01*
X0060617Y0410698D02*
X0085080Y0410698D01*
X0088920Y0410698D02*
X0095080Y0410698D01*
X0095700Y0408699D02*
X0004500Y0408699D01*
X0004500Y0406701D02*
X0095700Y0406701D01*
X0095700Y0404702D02*
X0004500Y0404702D01*
X0004500Y0402704D02*
X0095700Y0402704D01*
X0095700Y0400705D02*
X0004500Y0400705D01*
X0004500Y0398707D02*
X0095700Y0398707D01*
X0095700Y0396708D02*
X0004500Y0396708D01*
X0004500Y0394710D02*
X0095700Y0394710D01*
X0095700Y0392711D02*
X0004500Y0392711D01*
X0004500Y0390713D02*
X0095700Y0390713D01*
X0095219Y0388714D02*
X0088781Y0388714D01*
X0090026Y0386716D02*
X0093974Y0386716D01*
X0093700Y0384717D02*
X0090300Y0384717D01*
X0089792Y0382719D02*
X0094208Y0382719D01*
X0095785Y0380720D02*
X0088215Y0380720D01*
X0088774Y0378722D02*
X0095226Y0378722D01*
X0093977Y0376723D02*
X0090023Y0376723D01*
X0090300Y0374725D02*
X0093700Y0374725D01*
X0094205Y0372726D02*
X0089795Y0372726D01*
X0088223Y0370728D02*
X0095777Y0370728D01*
X0095234Y0368729D02*
X0088766Y0368729D01*
X0090020Y0366731D02*
X0093980Y0366731D01*
X0093700Y0364732D02*
X0090300Y0364732D01*
X0089798Y0362734D02*
X0094202Y0362734D01*
X0095770Y0360735D02*
X0088230Y0360735D01*
X0083342Y0354739D02*
X0102700Y0354739D01*
X0102700Y0356738D02*
X0081343Y0356738D01*
X0079345Y0358737D02*
X0102700Y0358737D01*
X0102700Y0360735D02*
X0102230Y0360735D01*
X0103281Y0352741D02*
X0085340Y0352741D01*
X0087339Y0350742D02*
X0105176Y0350742D01*
X0107175Y0348744D02*
X0089337Y0348744D01*
X0091336Y0346745D02*
X0109173Y0346745D01*
X0111172Y0344747D02*
X0093334Y0344747D01*
X0095333Y0342748D02*
X0113170Y0342748D01*
X0115169Y0340750D02*
X0097331Y0340750D01*
X0099330Y0338751D02*
X0117167Y0338751D01*
X0119166Y0336753D02*
X0100928Y0336753D01*
X0101300Y0334754D02*
X0121165Y0334754D01*
X0115200Y0332756D02*
X0108800Y0332756D01*
X0108800Y0330757D02*
X0115200Y0330757D01*
X0115200Y0328759D02*
X0108800Y0328759D01*
X0108800Y0326760D02*
X0115200Y0326760D01*
X0115200Y0324762D02*
X0108800Y0324762D01*
X0108800Y0322763D02*
X0115200Y0322763D01*
X0115200Y0320765D02*
X0108800Y0320765D01*
X0108800Y0318766D02*
X0115200Y0318766D01*
X0115200Y0316768D02*
X0108800Y0316768D01*
X0108800Y0314769D02*
X0115200Y0314769D01*
X0115200Y0312771D02*
X0108800Y0312771D01*
X0091165Y0334754D02*
X0086830Y0334754D01*
X0086002Y0336753D02*
X0089166Y0336753D01*
X0087167Y0338751D02*
X0084429Y0338751D01*
X0085169Y0340750D02*
X0080948Y0340750D01*
X0083170Y0342748D02*
X0055800Y0342748D01*
X0055800Y0340750D02*
X0077052Y0340750D01*
X0073571Y0338751D02*
X0055800Y0338751D01*
X0055800Y0336753D02*
X0071998Y0336753D01*
X0071170Y0334754D02*
X0055800Y0334754D01*
X0055800Y0332756D02*
X0071094Y0332756D01*
X0071372Y0330757D02*
X0055800Y0330757D01*
X0055800Y0328759D02*
X0072200Y0328759D01*
X0074060Y0326760D02*
X0055800Y0326760D01*
X0055800Y0324762D02*
X0085200Y0324762D01*
X0085200Y0326760D02*
X0083940Y0326760D01*
X0085200Y0322763D02*
X0055800Y0322763D01*
X0055800Y0320765D02*
X0085200Y0320765D01*
X0085200Y0318766D02*
X0055800Y0318766D01*
X0055800Y0316768D02*
X0085200Y0316768D01*
X0085200Y0314769D02*
X0055800Y0314769D01*
X0055800Y0312771D02*
X0085200Y0312771D01*
X0084881Y0311416D02*
X0084881Y0311416D01*
X0084237Y0310772D02*
X0055800Y0310772D01*
X0055800Y0308774D02*
X0082238Y0308774D01*
X0080240Y0306775D02*
X0055800Y0306775D01*
X0055800Y0304777D02*
X0079500Y0304777D01*
X0079500Y0302778D02*
X0055800Y0302778D01*
X0055800Y0300780D02*
X0079500Y0300780D01*
X0079500Y0298781D02*
X0055800Y0298781D01*
X0055800Y0296783D02*
X0079500Y0296783D01*
X0079500Y0294784D02*
X0055800Y0294784D01*
X0055800Y0292786D02*
X0079500Y0292786D01*
X0079500Y0290787D02*
X0055800Y0290787D01*
X0055800Y0288789D02*
X0079500Y0288789D01*
X0079500Y0286790D02*
X0055800Y0286790D01*
X0055800Y0284792D02*
X0079500Y0284792D01*
X0079500Y0282793D02*
X0055800Y0282793D01*
X0055800Y0280795D02*
X0079500Y0280795D01*
X0079500Y0278796D02*
X0055800Y0278796D01*
X0055800Y0276798D02*
X0079500Y0276798D01*
X0079500Y0274799D02*
X0055800Y0274799D01*
X0055800Y0272801D02*
X0079500Y0272801D01*
X0079500Y0270802D02*
X0055800Y0270802D01*
X0055800Y0268803D02*
X0079500Y0268803D01*
X0079500Y0266805D02*
X0055800Y0266805D01*
X0055800Y0264806D02*
X0079500Y0264806D01*
X0079500Y0262808D02*
X0055800Y0262808D01*
X0055800Y0260809D02*
X0079500Y0260809D01*
X0079500Y0258811D02*
X0055800Y0258811D01*
X0055800Y0256812D02*
X0079500Y0256812D01*
X0079500Y0254814D02*
X0055800Y0254814D01*
X0055800Y0252815D02*
X0079500Y0252815D01*
X0079500Y0250817D02*
X0055800Y0250817D01*
X0055800Y0248818D02*
X0079500Y0248818D01*
X0079500Y0246820D02*
X0055800Y0246820D01*
X0055800Y0244821D02*
X0079500Y0244821D01*
X0079500Y0242823D02*
X0055800Y0242823D01*
X0055800Y0240824D02*
X0079500Y0240824D01*
X0079500Y0238826D02*
X0055800Y0238826D01*
X0055800Y0236827D02*
X0079500Y0236827D01*
X0097000Y0224836D02*
X0097000Y0224836D01*
X0097000Y0222838D02*
X0097000Y0222838D01*
X0097000Y0220839D02*
X0097000Y0220839D01*
X0101324Y0220839D02*
X0122675Y0220839D01*
X0121000Y0222515D02*
X0121000Y0225000D01*
X0127000Y0225000D01*
X0127000Y0225000D01*
X0127000Y0225000D01*
X0133000Y0225000D01*
X0133000Y0222515D01*
X0129485Y0219000D01*
X0127000Y0219000D01*
X0127000Y0225000D01*
X0127000Y0225000D01*
X0127000Y0219000D01*
X0124515Y0219000D01*
X0121000Y0222515D01*
X0121000Y0222838D02*
X0103000Y0222838D01*
X0103000Y0224836D02*
X0121000Y0224836D01*
X0121000Y0226835D02*
X0103000Y0226835D01*
X0093739Y0216842D02*
X0187761Y0216842D01*
X0185763Y0214844D02*
X0095737Y0214844D01*
X0097736Y0212845D02*
X0183764Y0212845D01*
X0181766Y0210847D02*
X0099734Y0210847D01*
X0101733Y0208848D02*
X0179767Y0208848D01*
X0177769Y0206850D02*
X0103731Y0206850D01*
X0105730Y0204851D02*
X0175770Y0204851D01*
X0173772Y0202853D02*
X0107728Y0202853D01*
X0109727Y0200854D02*
X0171773Y0200854D01*
X0169774Y0198856D02*
X0111726Y0198856D01*
X0113724Y0196857D02*
X0167776Y0196857D01*
X0165777Y0194859D02*
X0115677Y0194859D01*
X0116300Y0192860D02*
X0163779Y0192860D01*
X0161780Y0190862D02*
X0116300Y0190862D01*
X0116300Y0188863D02*
X0159782Y0188863D01*
X0157783Y0186865D02*
X0116300Y0186865D01*
X0116300Y0184866D02*
X0155785Y0184866D01*
X0153786Y0182868D02*
X0116300Y0182868D01*
X0116300Y0180869D02*
X0151788Y0180869D01*
X0149789Y0178870D02*
X0116300Y0178870D01*
X0116300Y0176872D02*
X0147791Y0176872D01*
X0145792Y0174873D02*
X0116300Y0174873D01*
X0116300Y0172875D02*
X0143794Y0172875D01*
X0141795Y0170876D02*
X0116300Y0170876D01*
X0116300Y0168878D02*
X0139797Y0168878D01*
X0137798Y0166879D02*
X0116300Y0166879D01*
X0116300Y0164881D02*
X0135800Y0164881D01*
X0133801Y0162882D02*
X0116300Y0162882D01*
X0116300Y0160884D02*
X0131803Y0160884D01*
X0129804Y0158885D02*
X0116300Y0158885D01*
X0116300Y0156887D02*
X0127806Y0156887D01*
X0125807Y0154888D02*
X0116300Y0154888D01*
X0116300Y0152890D02*
X0123809Y0152890D01*
X0121810Y0150891D02*
X0116300Y0150891D01*
X0116300Y0148893D02*
X0119812Y0148893D01*
X0118130Y0146894D02*
X0116300Y0146894D01*
X0116300Y0144896D02*
X0117700Y0144896D01*
X0117700Y0142897D02*
X0116300Y0142897D01*
X0116300Y0140899D02*
X0117700Y0140899D01*
X0117700Y0138900D02*
X0116300Y0138900D01*
X0116300Y0136902D02*
X0117700Y0136902D01*
X0117700Y0134903D02*
X0116300Y0134903D01*
X0116300Y0132905D02*
X0117700Y0132905D01*
X0117700Y0130906D02*
X0116300Y0130906D01*
X0116300Y0128908D02*
X0117700Y0128908D01*
X0117700Y0126909D02*
X0116300Y0126909D01*
X0116300Y0124911D02*
X0117700Y0124911D01*
X0117700Y0122912D02*
X0116300Y0122912D01*
X0116300Y0120914D02*
X0117700Y0120914D01*
X0117700Y0118915D02*
X0116300Y0118915D01*
X0116300Y0116917D02*
X0117700Y0116917D01*
X0117700Y0114918D02*
X0116300Y0114918D01*
X0116300Y0112920D02*
X0117700Y0112920D01*
X0117700Y0110921D02*
X0116300Y0110921D01*
X0116300Y0108923D02*
X0117700Y0108923D01*
X0117700Y0106924D02*
X0116300Y0106924D01*
X0116300Y0104926D02*
X0117700Y0104926D01*
X0117700Y0102927D02*
X0116300Y0102927D01*
X0116300Y0100929D02*
X0117700Y0100929D01*
X0117700Y0098930D02*
X0116300Y0098930D01*
X0116300Y0096932D02*
X0117700Y0096932D01*
X0117700Y0094933D02*
X0116300Y0094933D01*
X0116300Y0092934D02*
X0117700Y0092934D01*
X0117700Y0090936D02*
X0116300Y0090936D01*
X0116300Y0088937D02*
X0117700Y0088937D01*
X0117700Y0086939D02*
X0116300Y0086939D01*
X0116300Y0084940D02*
X0117700Y0084940D01*
X0117700Y0082942D02*
X0115802Y0082942D01*
X0116862Y0080943D02*
X0114025Y0080943D01*
X0114864Y0078945D02*
X0112026Y0078945D01*
X0112865Y0076946D02*
X0110028Y0076946D01*
X0110867Y0074948D02*
X0108029Y0074948D01*
X0108868Y0072949D02*
X0106030Y0072949D01*
X0106870Y0070951D02*
X0104032Y0070951D01*
X0104871Y0068952D02*
X0102033Y0068952D01*
X0101300Y0066954D02*
X0103155Y0066954D01*
X0102700Y0064955D02*
X0101300Y0064955D01*
X0101300Y0062957D02*
X0102700Y0062957D01*
X0102700Y0060958D02*
X0101300Y0060958D01*
X0101300Y0058960D02*
X0102700Y0058960D01*
X0102700Y0056961D02*
X0101300Y0056961D01*
X0092700Y0056961D02*
X0087324Y0056961D01*
X0111300Y0056961D02*
X0114200Y0056961D01*
X0114200Y0058960D02*
X0111300Y0058960D01*
X0111300Y0060958D02*
X0114366Y0060958D01*
X0114900Y0062957D02*
X0111300Y0062957D01*
X0113036Y0064955D02*
X0389500Y0064955D01*
X0389500Y0062957D02*
X0129100Y0062957D01*
X0129634Y0060958D02*
X0389500Y0060958D01*
X0389500Y0058960D02*
X0129800Y0058960D01*
X0129800Y0056961D02*
X0346676Y0056961D01*
X0389500Y0066954D02*
X0115035Y0066954D01*
X0117033Y0068952D02*
X0389500Y0068952D01*
X0389500Y0070951D02*
X0119032Y0070951D01*
X0121030Y0072949D02*
X0389500Y0072949D01*
X0389500Y0074948D02*
X0123029Y0074948D01*
X0125028Y0076946D02*
X0389500Y0076946D01*
X0389500Y0078945D02*
X0126217Y0078945D01*
X0126300Y0080943D02*
X0389500Y0080943D01*
X0389500Y0082942D02*
X0126300Y0082942D01*
X0126300Y0084940D02*
X0389500Y0084940D01*
X0389500Y0086939D02*
X0126300Y0086939D01*
X0126300Y0088937D02*
X0389500Y0088937D01*
X0389500Y0090936D02*
X0126300Y0090936D01*
X0126300Y0092934D02*
X0389500Y0092934D01*
X0389500Y0094933D02*
X0126300Y0094933D01*
X0126300Y0096932D02*
X0389500Y0096932D01*
X0389500Y0098930D02*
X0126300Y0098930D01*
X0126300Y0100929D02*
X0389500Y0100929D01*
X0389500Y0102927D02*
X0126300Y0102927D01*
X0126300Y0104926D02*
X0389500Y0104926D01*
X0389500Y0106924D02*
X0126300Y0106924D01*
X0126300Y0108923D02*
X0389500Y0108923D01*
X0389500Y0110921D02*
X0126300Y0110921D01*
X0126300Y0112920D02*
X0389500Y0112920D01*
X0389500Y0114918D02*
X0126300Y0114918D01*
X0126300Y0116917D02*
X0389500Y0116917D01*
X0389500Y0118915D02*
X0126300Y0118915D01*
X0126300Y0120914D02*
X0389500Y0120914D01*
X0389500Y0122912D02*
X0126300Y0122912D01*
X0126300Y0124911D02*
X0389500Y0124911D01*
X0389500Y0126909D02*
X0126300Y0126909D01*
X0126300Y0128908D02*
X0389500Y0128908D01*
X0389500Y0130906D02*
X0126300Y0130906D01*
X0126300Y0132905D02*
X0389500Y0132905D01*
X0389500Y0134903D02*
X0126300Y0134903D01*
X0126300Y0136902D02*
X0389500Y0136902D01*
X0389500Y0138900D02*
X0126300Y0138900D01*
X0126300Y0140899D02*
X0389500Y0140899D01*
X0389500Y0142897D02*
X0126300Y0142897D01*
X0127977Y0144896D02*
X0389500Y0144896D01*
X0389500Y0146894D02*
X0129975Y0146894D01*
X0131974Y0148893D02*
X0389500Y0148893D01*
X0389500Y0150891D02*
X0133972Y0150891D01*
X0135971Y0152890D02*
X0389500Y0152890D01*
X0389500Y0154888D02*
X0137969Y0154888D01*
X0139968Y0156887D02*
X0389500Y0156887D01*
X0389500Y0158885D02*
X0141966Y0158885D01*
X0143965Y0160884D02*
X0389500Y0160884D01*
X0389500Y0162882D02*
X0145964Y0162882D01*
X0147962Y0164881D02*
X0389500Y0164881D01*
X0389500Y0166879D02*
X0149961Y0166879D01*
X0151959Y0168878D02*
X0389500Y0168878D01*
X0389500Y0170876D02*
X0153958Y0170876D01*
X0155956Y0172875D02*
X0389500Y0172875D01*
X0389500Y0174873D02*
X0157955Y0174873D01*
X0159953Y0176872D02*
X0389500Y0176872D01*
X0389500Y0178870D02*
X0161952Y0178870D01*
X0163950Y0180869D02*
X0389500Y0180869D01*
X0389500Y0182868D02*
X0165949Y0182868D01*
X0167947Y0184866D02*
X0389500Y0184866D01*
X0389500Y0186865D02*
X0169946Y0186865D01*
X0171944Y0188863D02*
X0389500Y0188863D01*
X0389500Y0190862D02*
X0173943Y0190862D01*
X0175941Y0192860D02*
X0389500Y0192860D01*
X0389500Y0194859D02*
X0177940Y0194859D01*
X0179938Y0196857D02*
X0389500Y0196857D01*
X0389500Y0198856D02*
X0181937Y0198856D01*
X0183935Y0200854D02*
X0199966Y0200854D01*
X0200522Y0200298D02*
X0203427Y0199094D01*
X0206573Y0199094D01*
X0209478Y0200298D01*
X0211702Y0202522D01*
X0212905Y0205427D01*
X0212905Y0208573D01*
X0211702Y0211478D01*
X0209478Y0213702D01*
X0206573Y0214905D01*
X0203427Y0214905D01*
X0200522Y0213702D01*
X0198298Y0211478D01*
X0197094Y0208573D01*
X0197094Y0205427D01*
X0198298Y0202522D01*
X0200522Y0200298D01*
X0198161Y0202853D02*
X0185934Y0202853D01*
X0187932Y0204851D02*
X0197333Y0204851D01*
X0197094Y0206850D02*
X0189931Y0206850D01*
X0191929Y0208848D02*
X0197209Y0208848D01*
X0198036Y0210847D02*
X0193928Y0210847D01*
X0195926Y0212845D02*
X0199665Y0212845D01*
X0197925Y0214844D02*
X0203278Y0214844D01*
X0206722Y0214844D02*
X0242278Y0214844D01*
X0242427Y0214905D02*
X0239522Y0213702D01*
X0237298Y0211478D01*
X0236094Y0208573D01*
X0236094Y0205427D01*
X0237298Y0202522D01*
X0239522Y0200298D01*
X0242427Y0199094D01*
X0245573Y0199094D01*
X0248478Y0200298D01*
X0250702Y0202522D01*
X0251905Y0205427D01*
X0251905Y0208573D01*
X0250702Y0211478D01*
X0248478Y0213702D01*
X0245573Y0214905D01*
X0242427Y0214905D01*
X0245722Y0214844D02*
X0368278Y0214844D01*
X0368427Y0214905D02*
X0365522Y0213702D01*
X0363298Y0211478D01*
X0362094Y0208573D01*
X0362094Y0205427D01*
X0363298Y0202522D01*
X0365522Y0200298D01*
X0368427Y0199094D01*
X0371573Y0199094D01*
X0374478Y0200298D01*
X0376702Y0202522D01*
X0377905Y0205427D01*
X0377905Y0208573D01*
X0376702Y0211478D01*
X0374478Y0213702D01*
X0371573Y0214905D01*
X0368427Y0214905D01*
X0371722Y0214844D02*
X0389500Y0214844D01*
X0389500Y0216842D02*
X0199923Y0216842D01*
X0210335Y0212845D02*
X0238665Y0212845D01*
X0237036Y0210847D02*
X0211964Y0210847D01*
X0212791Y0208848D02*
X0236209Y0208848D01*
X0236094Y0206850D02*
X0212905Y0206850D01*
X0212667Y0204851D02*
X0236333Y0204851D01*
X0237161Y0202853D02*
X0211839Y0202853D01*
X0210034Y0200854D02*
X0238966Y0200854D01*
X0249034Y0200854D02*
X0364966Y0200854D01*
X0363161Y0202853D02*
X0250839Y0202853D01*
X0251667Y0204851D02*
X0362333Y0204851D01*
X0362094Y0206850D02*
X0251905Y0206850D01*
X0251791Y0208848D02*
X0362209Y0208848D01*
X0363036Y0210847D02*
X0250964Y0210847D01*
X0249335Y0212845D02*
X0364665Y0212845D01*
X0375335Y0212845D02*
X0389500Y0212845D01*
X0389500Y0210847D02*
X0376964Y0210847D01*
X0377791Y0208848D02*
X0389500Y0208848D01*
X0389500Y0206850D02*
X0377905Y0206850D01*
X0377667Y0204851D02*
X0389500Y0204851D01*
X0389500Y0202853D02*
X0376839Y0202853D01*
X0375034Y0200854D02*
X0389500Y0200854D01*
X0352000Y0219000D02*
X0352000Y0225000D01*
X0352000Y0225000D01*
X0352000Y0225000D01*
X0346000Y0225000D01*
X0346000Y0222515D01*
X0349515Y0219000D01*
X0352000Y0219000D01*
X0352000Y0220839D02*
X0352000Y0220839D01*
X0352000Y0222838D02*
X0352000Y0222838D01*
X0352000Y0224836D02*
X0352000Y0224836D01*
X0347675Y0220839D02*
X0326324Y0220839D01*
X0328000Y0222515D02*
X0324485Y0219000D01*
X0322000Y0219000D01*
X0322000Y0225000D01*
X0322000Y0225000D01*
X0328000Y0225000D01*
X0328000Y0222515D01*
X0328000Y0222838D02*
X0346000Y0222838D01*
X0346000Y0224836D02*
X0328000Y0224836D01*
X0328000Y0226835D02*
X0346000Y0226835D01*
X0322000Y0225000D02*
X0322000Y0225000D01*
X0322000Y0225000D01*
X0322000Y0219000D01*
X0319515Y0219000D01*
X0316000Y0222515D01*
X0316000Y0225000D01*
X0322000Y0225000D01*
X0322000Y0224836D02*
X0322000Y0224836D01*
X0322000Y0222838D02*
X0322000Y0222838D01*
X0322000Y0220839D02*
X0322000Y0220839D01*
X0317675Y0220839D02*
X0296324Y0220839D01*
X0298000Y0222515D02*
X0298000Y0225000D01*
X0292000Y0225000D01*
X0292000Y0225000D01*
X0292000Y0219000D01*
X0294485Y0219000D01*
X0298000Y0222515D01*
X0298000Y0222838D02*
X0316000Y0222838D01*
X0316000Y0224836D02*
X0298000Y0224836D01*
X0298000Y0226835D02*
X0316000Y0226835D01*
X0292000Y0225000D02*
X0292000Y0225000D01*
X0292000Y0225000D01*
X0292000Y0219000D01*
X0289515Y0219000D01*
X0286000Y0222515D01*
X0286000Y0225000D01*
X0292000Y0225000D01*
X0292000Y0224836D02*
X0292000Y0224836D01*
X0292000Y0222838D02*
X0292000Y0222838D01*
X0292000Y0220839D02*
X0292000Y0220839D01*
X0287675Y0220839D02*
X0266324Y0220839D01*
X0268000Y0222838D02*
X0286000Y0222838D01*
X0286000Y0224836D02*
X0268000Y0224836D01*
X0268000Y0226835D02*
X0286000Y0226835D01*
X0262000Y0224836D02*
X0262000Y0224836D01*
X0262000Y0222838D02*
X0262000Y0222838D01*
X0262000Y0220839D02*
X0262000Y0220839D01*
X0182675Y0220839D02*
X0161324Y0220839D01*
X0163000Y0222515D02*
X0159485Y0219000D01*
X0157000Y0219000D01*
X0157000Y0225000D01*
X0157000Y0225000D01*
X0163000Y0225000D01*
X0163000Y0222515D01*
X0163000Y0222838D02*
X0181000Y0222838D01*
X0181000Y0224836D02*
X0163000Y0224836D01*
X0163000Y0226835D02*
X0181000Y0226835D01*
X0157000Y0225000D02*
X0157000Y0225000D01*
X0157000Y0225000D01*
X0157000Y0219000D01*
X0154515Y0219000D01*
X0151000Y0222515D01*
X0151000Y0225000D01*
X0157000Y0225000D01*
X0157000Y0224836D02*
X0157000Y0224836D01*
X0157000Y0222838D02*
X0157000Y0222838D01*
X0157000Y0220839D02*
X0157000Y0220839D01*
X0152675Y0220839D02*
X0131324Y0220839D01*
X0133000Y0222838D02*
X0151000Y0222838D01*
X0151000Y0224836D02*
X0133000Y0224836D01*
X0133000Y0226835D02*
X0151000Y0226835D01*
X0127000Y0224836D02*
X0127000Y0224836D01*
X0127000Y0222838D02*
X0127000Y0222838D01*
X0127000Y0220839D02*
X0127000Y0220839D01*
X0077278Y0214844D02*
X0052218Y0214844D01*
X0050219Y0212845D02*
X0073665Y0212845D01*
X0072036Y0210847D02*
X0035625Y0210847D01*
X0028375Y0210847D02*
X0024500Y0210847D01*
X0024500Y0212845D02*
X0026939Y0212845D01*
X0026500Y0214844D02*
X0024500Y0214844D01*
X0024500Y0216842D02*
X0026810Y0216842D01*
X0026581Y0218841D02*
X0024500Y0218841D01*
X0024500Y0220839D02*
X0025333Y0220839D01*
X0025300Y0222838D02*
X0024500Y0222838D01*
X0024500Y0224836D02*
X0025300Y0224836D01*
X0025300Y0226835D02*
X0024500Y0226835D01*
X0024500Y0228833D02*
X0025300Y0228833D01*
X0026189Y0230832D02*
X0024361Y0230832D01*
X0032000Y0230832D02*
X0032000Y0230832D01*
X0032000Y0228833D02*
X0032000Y0228833D01*
X0032000Y0226835D02*
X0032000Y0226835D01*
X0038700Y0226835D02*
X0048200Y0226835D01*
X0048200Y0228833D02*
X0038700Y0228833D01*
X0037811Y0230832D02*
X0048200Y0230832D01*
X0048200Y0232830D02*
X0004500Y0232830D01*
X0004500Y0230832D02*
X0009639Y0230832D01*
X0009500Y0228833D02*
X0004500Y0228833D01*
X0004500Y0234829D02*
X0048200Y0234829D01*
X0048200Y0236827D02*
X0004500Y0236827D01*
X0004500Y0238826D02*
X0048200Y0238826D01*
X0048200Y0240824D02*
X0004500Y0240824D01*
X0004500Y0242823D02*
X0048200Y0242823D01*
X0048200Y0244821D02*
X0004500Y0244821D01*
X0004500Y0246820D02*
X0048200Y0246820D01*
X0048200Y0248818D02*
X0004500Y0248818D01*
X0004500Y0250817D02*
X0048200Y0250817D01*
X0048200Y0252815D02*
X0004500Y0252815D01*
X0004500Y0254814D02*
X0048200Y0254814D01*
X0048200Y0256812D02*
X0004500Y0256812D01*
X0004500Y0258811D02*
X0048200Y0258811D01*
X0048200Y0260809D02*
X0004500Y0260809D01*
X0004500Y0262808D02*
X0048200Y0262808D01*
X0048200Y0264806D02*
X0004500Y0264806D01*
X0004500Y0266805D02*
X0048200Y0266805D01*
X0048200Y0268803D02*
X0004500Y0268803D01*
X0004500Y0270802D02*
X0024975Y0270802D01*
X0025177Y0270600D02*
X0028823Y0270600D01*
X0031400Y0273177D01*
X0031400Y0276823D01*
X0028823Y0279400D01*
X0025177Y0279400D01*
X0022600Y0276823D01*
X0022600Y0273177D01*
X0025177Y0270600D01*
X0022977Y0272801D02*
X0004500Y0272801D01*
X0004500Y0274799D02*
X0022600Y0274799D01*
X0022600Y0276798D02*
X0004500Y0276798D01*
X0004500Y0278796D02*
X0024574Y0278796D01*
X0029426Y0278796D02*
X0032876Y0278796D01*
X0031400Y0277320D02*
X0034680Y0280600D01*
X0037000Y0280600D01*
X0039320Y0280600D01*
X0042600Y0277320D01*
X0042600Y0275000D01*
X0037000Y0275000D01*
X0037000Y0275000D01*
X0037000Y0275000D01*
X0037000Y0280600D01*
X0037000Y0275000D01*
X0042600Y0275000D01*
X0042600Y0272680D01*
X0039320Y0269400D01*
X0037000Y0269400D01*
X0037000Y0275000D01*
X0037000Y0275000D01*
X0037000Y0275000D01*
X0031400Y0275000D01*
X0031400Y0277320D01*
X0031400Y0276798D02*
X0031400Y0276798D01*
X0031400Y0275000D02*
X0031400Y0272680D01*
X0034680Y0269400D01*
X0037000Y0269400D01*
X0037000Y0275000D01*
X0031400Y0275000D01*
X0031400Y0274799D02*
X0031400Y0274799D01*
X0031400Y0272801D02*
X0031023Y0272801D01*
X0029025Y0270802D02*
X0033278Y0270802D01*
X0037000Y0270802D02*
X0037000Y0270802D01*
X0037000Y0272801D02*
X0037000Y0272801D01*
X0037000Y0274799D02*
X0037000Y0274799D01*
X0037000Y0276798D02*
X0037000Y0276798D01*
X0037000Y0278796D02*
X0037000Y0278796D01*
X0041124Y0278796D02*
X0048200Y0278796D01*
X0048200Y0276798D02*
X0042600Y0276798D01*
X0042600Y0274799D02*
X0048200Y0274799D01*
X0048200Y0272801D02*
X0042600Y0272801D01*
X0040722Y0270802D02*
X0048200Y0270802D01*
X0048200Y0280795D02*
X0004500Y0280795D01*
X0004500Y0282793D02*
X0048200Y0282793D01*
X0048200Y0284792D02*
X0004500Y0284792D01*
X0004500Y0286790D02*
X0048200Y0286790D01*
X0048200Y0288789D02*
X0004500Y0288789D01*
X0004500Y0290787D02*
X0048200Y0290787D01*
X0048200Y0292786D02*
X0004500Y0292786D01*
X0004500Y0294784D02*
X0048200Y0294784D01*
X0048200Y0296783D02*
X0004500Y0296783D01*
X0004500Y0298781D02*
X0048200Y0298781D01*
X0048200Y0300780D02*
X0004500Y0300780D01*
X0004500Y0302778D02*
X0048200Y0302778D01*
X0048200Y0304777D02*
X0004500Y0304777D01*
X0004500Y0306775D02*
X0048200Y0306775D01*
X0048200Y0308774D02*
X0024198Y0308774D01*
X0024500Y0310772D02*
X0028450Y0310772D01*
X0026970Y0312771D02*
X0024500Y0312771D01*
X0024500Y0314769D02*
X0026500Y0314769D01*
X0026779Y0316768D02*
X0024500Y0316768D01*
X0024500Y0318766D02*
X0026692Y0318766D01*
X0025348Y0320765D02*
X0024500Y0320765D01*
X0024500Y0322763D02*
X0025300Y0322763D01*
X0025300Y0324762D02*
X0024500Y0324762D01*
X0024500Y0326760D02*
X0025300Y0326760D01*
X0025300Y0328759D02*
X0024500Y0328759D01*
X0024392Y0330757D02*
X0026115Y0330757D01*
X0032000Y0330757D02*
X0032000Y0330757D01*
X0032000Y0328759D02*
X0032000Y0328759D01*
X0032000Y0326760D02*
X0032000Y0326760D01*
X0037885Y0330757D02*
X0038200Y0330757D01*
X0038200Y0332756D02*
X0004500Y0332756D01*
X0004500Y0334754D02*
X0036872Y0334754D01*
X0034873Y0336753D02*
X0004500Y0336753D01*
X0004500Y0338751D02*
X0033404Y0338751D01*
X0033200Y0340750D02*
X0004500Y0340750D01*
X0004500Y0342748D02*
X0033200Y0342748D01*
X0033200Y0344747D02*
X0004500Y0344747D01*
X0004500Y0346745D02*
X0033200Y0346745D01*
X0033200Y0348744D02*
X0004500Y0348744D01*
X0004500Y0350742D02*
X0033200Y0350742D01*
X0033200Y0352741D02*
X0004500Y0352741D01*
X0004500Y0354739D02*
X0033200Y0354739D01*
X0033200Y0356738D02*
X0004500Y0356738D01*
X0004500Y0358737D02*
X0033200Y0358737D01*
X0033200Y0360735D02*
X0032230Y0360735D01*
X0025770Y0360735D02*
X0018230Y0360735D01*
X0018002Y0360507D02*
X0019493Y0361998D01*
X0020300Y0363946D01*
X0020300Y0366054D01*
X0019493Y0368002D01*
X0018002Y0369493D01*
X0016778Y0370000D01*
X0018002Y0370507D01*
X0019493Y0371998D01*
X0020300Y0373946D01*
X0020300Y0376054D01*
X0019493Y0378002D01*
X0018002Y0379493D01*
X0016778Y0380000D01*
X0018002Y0380507D01*
X0019493Y0381998D01*
X0020300Y0383946D01*
X0020300Y0386054D01*
X0019493Y0388002D01*
X0018002Y0389493D01*
X0016054Y0390300D01*
X0013946Y0390300D01*
X0011998Y0389493D01*
X0010507Y0388002D01*
X0009700Y0386054D01*
X0009700Y0383946D01*
X0010507Y0381998D01*
X0011998Y0380507D01*
X0013222Y0380000D01*
X0011998Y0379493D01*
X0010507Y0378002D01*
X0009700Y0376054D01*
X0009700Y0373946D01*
X0010507Y0371998D01*
X0011998Y0370507D01*
X0013222Y0370000D01*
X0011998Y0369493D01*
X0010507Y0368002D01*
X0009700Y0366054D01*
X0009700Y0363946D01*
X0010507Y0361998D01*
X0011998Y0360507D01*
X0013946Y0359700D01*
X0016054Y0359700D01*
X0018002Y0360507D01*
X0019798Y0362734D02*
X0024202Y0362734D01*
X0023700Y0364732D02*
X0020300Y0364732D01*
X0020020Y0366731D02*
X0023980Y0366731D01*
X0025234Y0368729D02*
X0018766Y0368729D01*
X0018223Y0370728D02*
X0025777Y0370728D01*
X0024205Y0372726D02*
X0019795Y0372726D01*
X0020300Y0374725D02*
X0023700Y0374725D01*
X0023977Y0376723D02*
X0020023Y0376723D01*
X0018774Y0378722D02*
X0025226Y0378722D01*
X0025785Y0380720D02*
X0018215Y0380720D01*
X0019792Y0382719D02*
X0024208Y0382719D01*
X0023700Y0384717D02*
X0020300Y0384717D01*
X0020026Y0386716D02*
X0023974Y0386716D01*
X0025219Y0388714D02*
X0018781Y0388714D01*
X0011219Y0388714D02*
X0004500Y0388714D01*
X0004500Y0386716D02*
X0009974Y0386716D01*
X0009700Y0384717D02*
X0004500Y0384717D01*
X0004500Y0382719D02*
X0010208Y0382719D01*
X0011785Y0380720D02*
X0004500Y0380720D01*
X0004500Y0378722D02*
X0011226Y0378722D01*
X0009977Y0376723D02*
X0004500Y0376723D01*
X0004500Y0374725D02*
X0009700Y0374725D01*
X0010205Y0372726D02*
X0004500Y0372726D01*
X0004500Y0370728D02*
X0011777Y0370728D01*
X0011234Y0368729D02*
X0004500Y0368729D01*
X0004500Y0366731D02*
X0009980Y0366731D01*
X0009700Y0364732D02*
X0004500Y0364732D01*
X0004500Y0362734D02*
X0010202Y0362734D01*
X0011770Y0360735D02*
X0004500Y0360735D01*
X0004500Y0330757D02*
X0009608Y0330757D01*
X0009500Y0328759D02*
X0004500Y0328759D01*
X0004500Y0310772D02*
X0009500Y0310772D01*
X0009802Y0308774D02*
X0004500Y0308774D01*
X0035550Y0310772D02*
X0048200Y0310772D01*
X0048200Y0312771D02*
X0040145Y0312771D01*
X0042143Y0314769D02*
X0048200Y0314769D01*
X0048200Y0316768D02*
X0044142Y0316768D01*
X0045602Y0318766D02*
X0048200Y0318766D01*
X0048200Y0320765D02*
X0045800Y0320765D01*
X0045800Y0322763D02*
X0048200Y0322763D01*
X0048200Y0324762D02*
X0045800Y0324762D01*
X0045800Y0326760D02*
X0048200Y0326760D01*
X0048200Y0328759D02*
X0045800Y0328759D01*
X0045800Y0330757D02*
X0048200Y0330757D01*
X0048200Y0332756D02*
X0045800Y0332756D01*
X0045800Y0334754D02*
X0048200Y0334754D01*
X0048200Y0336753D02*
X0045387Y0336753D01*
X0043623Y0338751D02*
X0048200Y0338751D01*
X0048200Y0340750D02*
X0041624Y0340750D01*
X0040800Y0342748D02*
X0048200Y0342748D01*
X0048200Y0344747D02*
X0040800Y0344747D01*
X0040800Y0346745D02*
X0048200Y0346745D01*
X0048200Y0348744D02*
X0040800Y0348744D01*
X0040800Y0350742D02*
X0048200Y0350742D01*
X0048200Y0352741D02*
X0040800Y0352741D01*
X0040800Y0354739D02*
X0048200Y0354739D01*
X0048200Y0356738D02*
X0040800Y0356738D01*
X0040800Y0358737D02*
X0048200Y0358737D01*
X0041770Y0360735D02*
X0040800Y0360735D01*
X0055800Y0358737D02*
X0067869Y0358737D01*
X0067700Y0360735D02*
X0062230Y0360735D01*
X0063798Y0362734D02*
X0067700Y0362734D01*
X0067700Y0364732D02*
X0064300Y0364732D01*
X0064020Y0366731D02*
X0067700Y0366731D01*
X0067700Y0368729D02*
X0062766Y0368729D01*
X0062223Y0370728D02*
X0067700Y0370728D01*
X0067700Y0372726D02*
X0063795Y0372726D01*
X0064300Y0374725D02*
X0067700Y0374725D01*
X0067700Y0376723D02*
X0064023Y0376723D01*
X0062774Y0378722D02*
X0067700Y0378722D01*
X0067700Y0380720D02*
X0062215Y0380720D01*
X0063792Y0382719D02*
X0068638Y0382719D01*
X0070636Y0384717D02*
X0064300Y0384717D01*
X0064026Y0386716D02*
X0072635Y0386716D01*
X0074730Y0388714D02*
X0062781Y0388714D01*
X0055219Y0388714D02*
X0048781Y0388714D01*
X0050026Y0386716D02*
X0053342Y0386716D01*
X0051343Y0384717D02*
X0050300Y0384717D01*
X0041785Y0380720D02*
X0040800Y0380720D01*
X0040800Y0378722D02*
X0041226Y0378722D01*
X0040208Y0382719D02*
X0039655Y0382719D01*
X0039700Y0384717D02*
X0037657Y0384717D01*
X0035658Y0386716D02*
X0039974Y0386716D01*
X0041219Y0388714D02*
X0032963Y0388714D01*
X0021400Y0412696D02*
X0020919Y0412696D01*
X0021400Y0414695D02*
X0021400Y0414695D01*
X0021400Y0416693D02*
X0021400Y0416693D01*
X0022772Y0418692D02*
X0019531Y0418692D01*
X0004500Y0422689D02*
X0389500Y0422689D01*
X0389500Y0424687D02*
X0004500Y0424687D01*
X0004721Y0426686D02*
X0389279Y0426686D01*
X0254469Y0418692D02*
X0199531Y0418692D01*
X0198823Y0419400D02*
X0195177Y0419400D01*
X0192600Y0416823D01*
X0192600Y0413177D01*
X0195177Y0410600D01*
X0198823Y0410600D01*
X0201400Y0413177D01*
X0201400Y0416823D01*
X0198823Y0419400D01*
X0201400Y0416693D02*
X0252600Y0416693D01*
X0252130Y0414695D02*
X0201400Y0414695D01*
X0200919Y0412696D02*
X0251700Y0412696D01*
X0251700Y0410698D02*
X0198920Y0410698D01*
X0195080Y0410698D02*
X0188920Y0410698D01*
X0188300Y0408699D02*
X0251700Y0408699D01*
X0251700Y0406701D02*
X0188300Y0406701D01*
X0188300Y0404702D02*
X0251700Y0404702D01*
X0251700Y0402704D02*
X0188300Y0402704D01*
X0188300Y0400705D02*
X0251700Y0400705D01*
X0251700Y0398707D02*
X0188300Y0398707D01*
X0188300Y0396708D02*
X0251700Y0396708D01*
X0251700Y0394710D02*
X0188300Y0394710D01*
X0188300Y0392711D02*
X0251700Y0392711D01*
X0215184Y0360735D02*
X0202230Y0360735D01*
X0203798Y0362734D02*
X0213185Y0362734D01*
X0211187Y0364732D02*
X0204300Y0364732D01*
X0204020Y0366731D02*
X0209188Y0366731D01*
X0207190Y0368729D02*
X0202766Y0368729D01*
X0181700Y0390713D02*
X0158300Y0390713D01*
X0158300Y0392711D02*
X0181700Y0392711D01*
X0181700Y0394710D02*
X0158300Y0394710D01*
X0158300Y0396708D02*
X0181700Y0396708D01*
X0181700Y0398707D02*
X0158300Y0398707D01*
X0158300Y0400705D02*
X0181700Y0400705D01*
X0181700Y0402704D02*
X0158300Y0402704D01*
X0158300Y0404702D02*
X0181700Y0404702D01*
X0181700Y0406701D02*
X0158300Y0406701D01*
X0158300Y0408699D02*
X0181700Y0408699D01*
X0181700Y0410698D02*
X0168920Y0410698D01*
X0168823Y0410600D02*
X0171400Y0413177D01*
X0171400Y0416823D01*
X0168823Y0419400D01*
X0165177Y0419400D01*
X0162600Y0416823D01*
X0162600Y0413177D01*
X0165177Y0410600D01*
X0168823Y0410600D01*
X0170919Y0412696D02*
X0181700Y0412696D01*
X0182130Y0414695D02*
X0171400Y0414695D01*
X0171400Y0416693D02*
X0182600Y0416693D01*
X0184469Y0418692D02*
X0169531Y0418692D01*
X0164469Y0418692D02*
X0159531Y0418692D01*
X0161400Y0416693D02*
X0162600Y0416693D01*
X0162600Y0414695D02*
X0161400Y0414695D01*
X0160919Y0412696D02*
X0163081Y0412696D01*
X0165080Y0410698D02*
X0158920Y0410698D01*
X0154469Y0418692D02*
X0129531Y0418692D01*
X0128823Y0419400D02*
X0125177Y0419400D01*
X0122600Y0416823D01*
X0122600Y0413177D01*
X0125177Y0410600D01*
X0125700Y0410600D01*
X0125700Y0389195D01*
X0124507Y0388002D01*
X0123700Y0386054D01*
X0123700Y0383946D01*
X0124507Y0381998D01*
X0125998Y0380507D01*
X0127222Y0380000D01*
X0125998Y0379493D01*
X0124507Y0378002D01*
X0123700Y0376054D01*
X0123700Y0373946D01*
X0124507Y0371998D01*
X0125998Y0370507D01*
X0127222Y0370000D01*
X0125998Y0369493D01*
X0124507Y0368002D01*
X0123700Y0366054D01*
X0123700Y0363946D01*
X0124507Y0361998D01*
X0125998Y0360507D01*
X0127946Y0359700D01*
X0130054Y0359700D01*
X0132002Y0360507D01*
X0133493Y0361998D01*
X0134300Y0363946D01*
X0134300Y0366054D01*
X0133493Y0368002D01*
X0132002Y0369493D01*
X0130778Y0370000D01*
X0132002Y0370507D01*
X0133493Y0371998D01*
X0134300Y0373946D01*
X0134300Y0376054D01*
X0133493Y0378002D01*
X0132002Y0379493D01*
X0130778Y0380000D01*
X0132002Y0380507D01*
X0133493Y0381998D01*
X0134300Y0383946D01*
X0134300Y0386054D01*
X0133493Y0388002D01*
X0132300Y0389195D01*
X0132300Y0413656D01*
X0131798Y0414869D01*
X0131400Y0415267D01*
X0131400Y0416823D01*
X0128823Y0419400D01*
X0131400Y0416693D02*
X0152600Y0416693D01*
X0152130Y0414695D02*
X0131870Y0414695D01*
X0132300Y0412696D02*
X0151700Y0412696D01*
X0151700Y0410698D02*
X0132300Y0410698D01*
X0132300Y0408699D02*
X0151700Y0408699D01*
X0151700Y0406701D02*
X0132300Y0406701D01*
X0132300Y0404702D02*
X0151700Y0404702D01*
X0151700Y0402704D02*
X0132300Y0402704D01*
X0132300Y0400705D02*
X0151700Y0400705D01*
X0151700Y0398707D02*
X0132300Y0398707D01*
X0132300Y0396708D02*
X0151700Y0396708D01*
X0151700Y0394710D02*
X0132300Y0394710D01*
X0132300Y0392711D02*
X0151700Y0392711D01*
X0151700Y0390713D02*
X0132300Y0390713D01*
X0132781Y0388714D02*
X0144730Y0388714D01*
X0142635Y0386716D02*
X0134026Y0386716D01*
X0134300Y0384717D02*
X0140636Y0384717D01*
X0138638Y0382719D02*
X0133792Y0382719D01*
X0132215Y0380720D02*
X0137700Y0380720D01*
X0137700Y0378722D02*
X0132774Y0378722D01*
X0134023Y0376723D02*
X0137700Y0376723D01*
X0137700Y0374725D02*
X0134300Y0374725D01*
X0133795Y0372726D02*
X0137700Y0372726D01*
X0137700Y0370728D02*
X0132223Y0370728D01*
X0132766Y0368729D02*
X0137700Y0368729D01*
X0137700Y0366731D02*
X0134020Y0366731D01*
X0134300Y0364732D02*
X0137700Y0364732D01*
X0137700Y0362734D02*
X0133798Y0362734D01*
X0132230Y0360735D02*
X0137700Y0360735D01*
X0137700Y0358737D02*
X0111300Y0358737D01*
X0111300Y0360735D02*
X0111770Y0360735D01*
X0111343Y0356738D02*
X0137700Y0356738D01*
X0137700Y0354739D02*
X0113342Y0354739D01*
X0115340Y0352741D02*
X0137700Y0352741D01*
X0137700Y0350742D02*
X0117339Y0350742D01*
X0119337Y0348744D02*
X0137866Y0348744D01*
X0139173Y0346745D02*
X0121336Y0346745D01*
X0123334Y0344747D02*
X0141172Y0344747D01*
X0143170Y0342748D02*
X0125333Y0342748D01*
X0127331Y0340750D02*
X0145169Y0340750D01*
X0147167Y0338751D02*
X0129330Y0338751D01*
X0130928Y0336753D02*
X0149166Y0336753D01*
X0151165Y0334754D02*
X0131300Y0334754D01*
X0138800Y0332756D02*
X0145200Y0332756D01*
X0145200Y0330757D02*
X0138800Y0330757D01*
X0138800Y0328759D02*
X0145200Y0328759D01*
X0145200Y0326760D02*
X0138800Y0326760D01*
X0138800Y0324762D02*
X0145200Y0324762D01*
X0145200Y0322763D02*
X0138800Y0322763D01*
X0138800Y0320765D02*
X0145200Y0320765D01*
X0145200Y0318766D02*
X0138800Y0318766D01*
X0138800Y0316768D02*
X0145200Y0316768D01*
X0145200Y0314769D02*
X0138800Y0314769D01*
X0138800Y0312771D02*
X0145200Y0312771D01*
X0161300Y0334754D02*
X0181165Y0334754D01*
X0179166Y0336753D02*
X0160928Y0336753D01*
X0159330Y0338751D02*
X0177167Y0338751D01*
X0175169Y0340750D02*
X0157331Y0340750D01*
X0155333Y0342748D02*
X0173278Y0342748D01*
X0172700Y0344747D02*
X0153334Y0344747D01*
X0151336Y0346745D02*
X0172700Y0346745D01*
X0172700Y0348744D02*
X0149337Y0348744D01*
X0147339Y0350742D02*
X0172700Y0350742D01*
X0172700Y0352741D02*
X0146300Y0352741D01*
X0146300Y0354739D02*
X0172700Y0354739D01*
X0172700Y0356738D02*
X0146300Y0356738D01*
X0146300Y0358737D02*
X0172700Y0358737D01*
X0172700Y0360735D02*
X0172230Y0360735D01*
X0165770Y0360735D02*
X0158230Y0360735D01*
X0159798Y0362734D02*
X0164202Y0362734D01*
X0163700Y0364732D02*
X0160300Y0364732D01*
X0160020Y0366731D02*
X0163980Y0366731D01*
X0165234Y0368729D02*
X0158766Y0368729D01*
X0158223Y0370728D02*
X0165777Y0370728D01*
X0164205Y0372726D02*
X0159795Y0372726D01*
X0160300Y0374725D02*
X0163700Y0374725D01*
X0163977Y0376723D02*
X0160023Y0376723D01*
X0158774Y0378722D02*
X0165226Y0378722D01*
X0165785Y0380720D02*
X0158215Y0380720D01*
X0159792Y0382719D02*
X0164208Y0382719D01*
X0163700Y0384717D02*
X0160300Y0384717D01*
X0160026Y0386716D02*
X0163974Y0386716D01*
X0165219Y0388714D02*
X0158781Y0388714D01*
X0151226Y0378722D02*
X0146803Y0378722D01*
X0146300Y0376723D02*
X0149977Y0376723D01*
X0149700Y0374725D02*
X0146300Y0374725D01*
X0146300Y0372726D02*
X0150205Y0372726D01*
X0151777Y0370728D02*
X0146300Y0370728D01*
X0146300Y0368729D02*
X0151234Y0368729D01*
X0149980Y0366731D02*
X0146300Y0366731D01*
X0146300Y0364732D02*
X0149700Y0364732D01*
X0150202Y0362734D02*
X0146300Y0362734D01*
X0146300Y0360735D02*
X0151770Y0360735D01*
X0168800Y0332756D02*
X0175200Y0332756D01*
X0175200Y0330757D02*
X0168800Y0330757D01*
X0168800Y0328759D02*
X0175200Y0328759D01*
X0175200Y0326760D02*
X0168800Y0326760D01*
X0168800Y0324762D02*
X0175200Y0324762D01*
X0175200Y0322763D02*
X0168800Y0322763D01*
X0168800Y0320765D02*
X0175200Y0320765D01*
X0175200Y0318766D02*
X0168800Y0318766D01*
X0168800Y0316768D02*
X0175200Y0316768D01*
X0175200Y0314769D02*
X0168800Y0314769D01*
X0168800Y0312771D02*
X0175200Y0312771D01*
X0125770Y0360735D02*
X0118230Y0360735D01*
X0119798Y0362734D02*
X0124202Y0362734D01*
X0123700Y0364732D02*
X0120300Y0364732D01*
X0120020Y0366731D02*
X0123980Y0366731D01*
X0125234Y0368729D02*
X0118766Y0368729D01*
X0118223Y0370728D02*
X0125777Y0370728D01*
X0124205Y0372726D02*
X0119795Y0372726D01*
X0120300Y0374725D02*
X0123700Y0374725D01*
X0123977Y0376723D02*
X0120023Y0376723D01*
X0118774Y0378722D02*
X0125226Y0378722D01*
X0125785Y0380720D02*
X0118215Y0380720D01*
X0119792Y0382719D02*
X0124208Y0382719D01*
X0123700Y0384717D02*
X0120300Y0384717D01*
X0120026Y0386716D02*
X0123974Y0386716D01*
X0125219Y0388714D02*
X0118781Y0388714D01*
X0125700Y0390713D02*
X0102300Y0390713D01*
X0102300Y0392711D02*
X0125700Y0392711D01*
X0125700Y0394710D02*
X0102300Y0394710D01*
X0102300Y0396708D02*
X0125700Y0396708D01*
X0125700Y0398707D02*
X0102300Y0398707D01*
X0102300Y0400705D02*
X0125700Y0400705D01*
X0125700Y0402704D02*
X0102300Y0402704D01*
X0102300Y0404702D02*
X0125700Y0404702D01*
X0125700Y0406701D02*
X0102300Y0406701D01*
X0102300Y0408699D02*
X0125700Y0408699D01*
X0125080Y0410698D02*
X0118920Y0410698D01*
X0118823Y0410600D02*
X0121400Y0413177D01*
X0121400Y0416823D01*
X0118823Y0419400D01*
X0115177Y0419400D01*
X0112600Y0416823D01*
X0112600Y0413177D01*
X0115177Y0410600D01*
X0118823Y0410600D01*
X0120919Y0412696D02*
X0123081Y0412696D01*
X0122600Y0414695D02*
X0121400Y0414695D01*
X0121400Y0416693D02*
X0122600Y0416693D01*
X0124469Y0418692D02*
X0119531Y0418692D01*
X0114469Y0418692D02*
X0099531Y0418692D01*
X0101400Y0416693D02*
X0112600Y0416693D01*
X0112600Y0414695D02*
X0101870Y0414695D01*
X0102300Y0412696D02*
X0113081Y0412696D01*
X0115080Y0410698D02*
X0102300Y0410698D01*
X0093081Y0412696D02*
X0090919Y0412696D01*
X0091400Y0414695D02*
X0092600Y0414695D01*
X0092600Y0416693D02*
X0091400Y0416693D01*
X0089531Y0418692D02*
X0094469Y0418692D01*
X0102781Y0388714D02*
X0109730Y0388714D01*
X0107635Y0386716D02*
X0104026Y0386716D01*
X0104300Y0384717D02*
X0105636Y0384717D01*
X0081226Y0378722D02*
X0076803Y0378722D01*
X0076300Y0376723D02*
X0079977Y0376723D01*
X0079700Y0374725D02*
X0076300Y0374725D01*
X0076300Y0372726D02*
X0080205Y0372726D01*
X0081777Y0370728D02*
X0076300Y0370728D01*
X0076300Y0368729D02*
X0081234Y0368729D01*
X0079980Y0366731D02*
X0076300Y0366731D01*
X0076300Y0364732D02*
X0079700Y0364732D01*
X0080202Y0362734D02*
X0076300Y0362734D01*
X0077346Y0360735D02*
X0081770Y0360735D01*
X0073178Y0352741D02*
X0055800Y0352741D01*
X0055800Y0354739D02*
X0071179Y0354739D01*
X0069181Y0356738D02*
X0055800Y0356738D01*
X0055800Y0350742D02*
X0075176Y0350742D01*
X0077175Y0348744D02*
X0055800Y0348744D01*
X0055800Y0346745D02*
X0079173Y0346745D01*
X0081172Y0344747D02*
X0055800Y0344747D01*
X0051400Y0412696D02*
X0050919Y0412696D01*
X0051400Y0414695D02*
X0051400Y0414695D01*
X0051400Y0416693D02*
X0051400Y0416693D01*
X0052772Y0418692D02*
X0049531Y0418692D01*
X0172781Y0388714D02*
X0179730Y0388714D01*
X0177635Y0386716D02*
X0174026Y0386716D01*
X0174300Y0384717D02*
X0175636Y0384717D01*
X0190919Y0412696D02*
X0193081Y0412696D01*
X0192600Y0414695D02*
X0191400Y0414695D01*
X0191400Y0416693D02*
X0192600Y0416693D01*
X0194469Y0418692D02*
X0189531Y0418692D01*
X0048200Y0224836D02*
X0038700Y0224836D01*
X0038700Y0222838D02*
X0048200Y0222838D01*
X0047465Y0220839D02*
X0038667Y0220839D01*
X0037419Y0218841D02*
X0045467Y0218841D01*
X0024229Y0208848D02*
X0071209Y0208848D01*
X0071094Y0206850D02*
X0004500Y0206850D01*
X0004500Y0208848D02*
X0009771Y0208848D01*
X0009500Y0210847D02*
X0004500Y0210847D01*
X0004500Y0204851D02*
X0071333Y0204851D01*
X0072161Y0202853D02*
X0004500Y0202853D01*
X0004500Y0200854D02*
X0073966Y0200854D01*
X0117000Y0060000D02*
X0117000Y0050000D01*
X0117000Y0060000D02*
X0119000Y0060000D01*
X0125000Y0060000D02*
X0127000Y0060000D01*
X0127000Y0050000D01*
D22*
X0107000Y0050000D02*
X0107000Y0035000D01*
X0107000Y0065000D01*
X0122000Y0080000D01*
X0122000Y0145000D01*
X0222000Y0245000D01*
X0222000Y0360000D01*
X0207000Y0375000D01*
X0199000Y0375000D01*
X0185000Y0385000D02*
X0182000Y0385000D01*
X0177000Y0380000D01*
X0177000Y0345000D01*
X0187000Y0335000D01*
X0187000Y0315000D01*
X0157000Y0315000D02*
X0157000Y0335000D01*
X0142000Y0350000D01*
X0142000Y0380000D01*
X0147000Y0385000D01*
X0155000Y0385000D01*
X0115000Y0385000D02*
X0112000Y0385000D01*
X0107000Y0380000D01*
X0107000Y0355000D01*
X0127000Y0335000D01*
X0127000Y0315000D01*
X0097000Y0315000D02*
X0097000Y0335000D01*
X0072000Y0360000D01*
X0072000Y0380000D01*
X0077000Y0385000D01*
X0085000Y0385000D01*
X0072000Y0232500D02*
X0077000Y0227500D01*
X0082000Y0222500D01*
X0112000Y0192500D01*
X0112000Y0085000D01*
X0097000Y0070000D01*
X0097000Y0050000D01*
X0097000Y0035000D01*
D23*
X0082000Y0222500D03*
X0077000Y0227500D03*
X0072000Y0232500D03*
D24*
X0052000Y0220000D02*
X0052000Y0380000D01*
X0057000Y0385000D01*
X0059000Y0385000D01*
X0037000Y0380000D02*
X0037000Y0340000D01*
X0042000Y0335000D01*
X0042000Y0320000D01*
X0037000Y0315000D01*
X0032000Y0315000D01*
X0037000Y0380000D02*
X0032000Y0385000D01*
X0029000Y0385000D01*
X0052000Y0220000D02*
X0047000Y0215000D01*
X0032000Y0215000D01*
D25*
X0099000Y0385000D02*
X0099000Y0413000D01*
X0097000Y0415000D01*
X0127000Y0415000D02*
X0129000Y0413000D01*
X0129000Y0385000D01*
X0155000Y0385000D02*
X0155000Y0413000D01*
X0157000Y0415000D01*
X0185000Y0413000D02*
X0185000Y0385000D01*
X0185000Y0413000D02*
X0187000Y0415000D01*
X0255000Y0413000D02*
X0255000Y0385000D01*
X0255000Y0413000D02*
X0257000Y0415000D01*
X0285000Y0413000D02*
X0285000Y0385000D01*
X0285000Y0413000D02*
X0287000Y0415000D01*
X0315000Y0413000D02*
X0315000Y0385000D01*
X0315000Y0413000D02*
X0317000Y0415000D01*
X0345000Y0413000D02*
X0345000Y0385000D01*
X0345000Y0413000D02*
X0347000Y0415000D01*
D26*
X0377000Y0415000D03*
X0307000Y0337500D03*
X0237000Y0270000D03*
X0212000Y0270000D03*
X0142000Y0205000D03*
X0122000Y0160000D03*
X0142000Y0065000D03*
X0227000Y0065000D03*
X0307000Y0065000D03*
X0377000Y0065000D03*
X0307000Y0160000D03*
X0312000Y0210000D03*
X0377000Y0270000D03*
X0227000Y0160000D03*
X0072000Y0270000D03*
X0012000Y0275000D03*
X0012000Y0345000D03*
X0072000Y0415000D03*
X0142000Y0415000D03*
X0137000Y0337500D03*
X0227000Y0420000D03*
X0012000Y0195000D03*
X0012000Y0100000D03*
X0052000Y0065000D03*
D27*
X0262000Y0315000D02*
X0262000Y0345000D01*
X0277000Y0360000D01*
X0277000Y0380000D01*
X0272000Y0385000D01*
X0269000Y0385000D01*
X0299000Y0385000D02*
X0302000Y0385000D01*
X0307000Y0380000D01*
X0307000Y0360000D01*
X0292000Y0345000D01*
X0292000Y0315000D01*
X0322000Y0315000D02*
X0322000Y0345000D01*
X0337000Y0360000D01*
X0337000Y0380000D01*
X0332000Y0385000D01*
X0329000Y0385000D01*
X0359000Y0385000D02*
X0367000Y0385000D01*
X0372000Y0380000D01*
X0372000Y0365000D01*
X0352000Y0345000D01*
X0352000Y0315000D01*
M02*
