G75*
%MOIN*%
%OFA0B0*%
%FSLAX25Y25*%
%IPPOS*%
%LPD*%
%AMOC8*
5,1,8,0,0,1.08239X$1,22.5*
%
%ADD10C,0.00400*%
%ADD11C,0.00500*%
%ADD12C,0.00800*%
%ADD13C,0.01800*%
%ADD14C,0.01200*%
%ADD15C,0.01600*%
%ADD16C,0.01000*%
%ADD17C,0.02000*%
%ADD18C,0.00600*%
%ADD19R,0.05512X0.02559*%
D10*
X0007200Y0251759D02*
X0007200Y0254829D01*
X0007200Y0256363D02*
X0011804Y0256363D01*
X0010269Y0258665D02*
X0008735Y0256363D01*
X0007200Y0258665D01*
X0007200Y0253294D02*
X0011804Y0253294D01*
X0010269Y0251759D01*
X0022200Y0250992D02*
X0026804Y0250992D01*
X0026804Y0253294D01*
X0026037Y0254061D01*
X0024502Y0254061D01*
X0023735Y0253294D01*
X0023735Y0250992D01*
X0023735Y0252527D02*
X0022200Y0254061D01*
X0022200Y0255596D02*
X0022200Y0258665D01*
X0022200Y0257131D02*
X0026804Y0257131D01*
X0025269Y0255596D01*
X0027200Y0397700D02*
X0030269Y0400769D01*
X0031037Y0400769D01*
X0031804Y0400002D01*
X0031804Y0398467D01*
X0031037Y0397700D01*
X0027200Y0397700D02*
X0027200Y0400769D01*
X0027200Y0402304D02*
X0031804Y0402304D01*
X0030269Y0404606D02*
X0028735Y0402304D01*
X0027200Y0404606D01*
X0027200Y0406141D02*
X0030269Y0409210D01*
X0031037Y0409210D01*
X0031804Y0408442D01*
X0031804Y0406908D01*
X0031037Y0406141D01*
X0027200Y0406141D02*
X0027200Y0409210D01*
X0042200Y0405373D02*
X0042200Y0402304D01*
X0045269Y0405373D01*
X0046037Y0405373D01*
X0046804Y0404606D01*
X0046804Y0403071D01*
X0046037Y0402304D01*
X0046037Y0400769D02*
X0044502Y0400769D01*
X0043735Y0400002D01*
X0043735Y0397700D01*
X0043735Y0399235D02*
X0042200Y0400769D01*
X0042200Y0397700D02*
X0046804Y0397700D01*
X0046804Y0400002D01*
X0046037Y0400769D01*
X0057200Y0400769D02*
X0057200Y0397700D01*
X0060269Y0400769D01*
X0061037Y0400769D01*
X0061804Y0400002D01*
X0061804Y0398467D01*
X0061037Y0397700D01*
X0061804Y0402304D02*
X0057200Y0402304D01*
X0058735Y0402304D02*
X0060269Y0404606D01*
X0061037Y0406141D02*
X0061804Y0406908D01*
X0061804Y0408442D01*
X0061037Y0409210D01*
X0060269Y0409210D01*
X0057200Y0406141D01*
X0057200Y0409210D01*
X0057200Y0404606D02*
X0058735Y0402304D01*
X0072200Y0403071D02*
X0072967Y0402304D01*
X0072200Y0403071D02*
X0072200Y0404606D01*
X0072967Y0405373D01*
X0073735Y0405373D01*
X0074502Y0404606D01*
X0074502Y0403839D01*
X0074502Y0404606D02*
X0075269Y0405373D01*
X0076037Y0405373D01*
X0076804Y0404606D01*
X0076804Y0403071D01*
X0076037Y0402304D01*
X0076037Y0400769D02*
X0074502Y0400769D01*
X0073735Y0400002D01*
X0073735Y0397700D01*
X0073735Y0399235D02*
X0072200Y0400769D01*
X0072200Y0397700D02*
X0076804Y0397700D01*
X0076804Y0400002D01*
X0076037Y0400769D01*
X0097200Y0400769D02*
X0097200Y0397700D01*
X0100269Y0400769D01*
X0101037Y0400769D01*
X0101804Y0400002D01*
X0101804Y0398467D01*
X0101037Y0397700D01*
X0101804Y0402304D02*
X0097200Y0402304D01*
X0098735Y0402304D02*
X0097200Y0404606D01*
X0097200Y0406141D02*
X0100269Y0409210D01*
X0101037Y0409210D01*
X0101804Y0408442D01*
X0101804Y0406908D01*
X0101037Y0406141D01*
X0100269Y0404606D02*
X0098735Y0402304D01*
X0097200Y0406141D02*
X0097200Y0409210D01*
X0112200Y0404606D02*
X0116804Y0404606D01*
X0114502Y0402304D01*
X0114502Y0405373D01*
X0114502Y0400769D02*
X0113735Y0400002D01*
X0113735Y0397700D01*
X0113735Y0399235D02*
X0112200Y0400769D01*
X0114502Y0400769D02*
X0116037Y0400769D01*
X0116804Y0400002D01*
X0116804Y0397700D01*
X0112200Y0397700D01*
X0127200Y0397700D02*
X0130269Y0400769D01*
X0131037Y0400769D01*
X0131804Y0400002D01*
X0131804Y0398467D01*
X0131037Y0397700D01*
X0127200Y0397700D02*
X0127200Y0400769D01*
X0127200Y0402304D02*
X0131804Y0402304D01*
X0130269Y0404606D02*
X0128735Y0402304D01*
X0127200Y0404606D01*
X0127200Y0406141D02*
X0130269Y0409210D01*
X0131037Y0409210D01*
X0131804Y0408442D01*
X0131804Y0406908D01*
X0131037Y0406141D01*
X0127200Y0406141D02*
X0127200Y0409210D01*
X0142200Y0404606D02*
X0142200Y0403071D01*
X0142967Y0402304D01*
X0144502Y0402304D02*
X0145269Y0403839D01*
X0145269Y0404606D01*
X0144502Y0405373D01*
X0142967Y0405373D01*
X0142200Y0404606D01*
X0144502Y0402304D02*
X0146804Y0402304D01*
X0146804Y0405373D01*
X0146037Y0400769D02*
X0144502Y0400769D01*
X0143735Y0400002D01*
X0143735Y0397700D01*
X0143735Y0399235D02*
X0142200Y0400769D01*
X0142200Y0397700D02*
X0146804Y0397700D01*
X0146804Y0400002D01*
X0146037Y0400769D01*
X0167200Y0400769D02*
X0167200Y0397700D01*
X0170269Y0400769D01*
X0171037Y0400769D01*
X0171804Y0400002D01*
X0171804Y0398467D01*
X0171037Y0397700D01*
X0171804Y0402304D02*
X0167200Y0402304D01*
X0168735Y0402304D02*
X0170269Y0404606D01*
X0171037Y0406141D02*
X0171804Y0406908D01*
X0171804Y0408442D01*
X0171037Y0409210D01*
X0170269Y0409210D01*
X0167200Y0406141D01*
X0167200Y0409210D01*
X0167200Y0404606D02*
X0168735Y0402304D01*
X0182200Y0403071D02*
X0182200Y0404606D01*
X0182967Y0405373D01*
X0183735Y0405373D01*
X0184502Y0404606D01*
X0184502Y0402304D01*
X0182967Y0402304D01*
X0182200Y0403071D01*
X0182200Y0400769D02*
X0183735Y0399235D01*
X0183735Y0400002D02*
X0183735Y0397700D01*
X0182200Y0397700D02*
X0186804Y0397700D01*
X0186804Y0400002D01*
X0186037Y0400769D01*
X0184502Y0400769D01*
X0183735Y0400002D01*
X0184502Y0402304D02*
X0186037Y0403839D01*
X0186804Y0405373D01*
X0197200Y0404606D02*
X0198735Y0402304D01*
X0200269Y0404606D01*
X0201037Y0406141D02*
X0201804Y0406908D01*
X0201804Y0408442D01*
X0201037Y0409210D01*
X0200269Y0409210D01*
X0197200Y0406141D01*
X0197200Y0409210D01*
X0197200Y0402304D02*
X0201804Y0402304D01*
X0201037Y0400769D02*
X0200269Y0400769D01*
X0197200Y0397700D01*
X0197200Y0400769D01*
X0201037Y0400769D02*
X0201804Y0400002D01*
X0201804Y0398467D01*
X0201037Y0397700D01*
X0212200Y0397700D02*
X0216804Y0397700D01*
X0216804Y0400002D01*
X0216037Y0400769D01*
X0214502Y0400769D01*
X0213735Y0400002D01*
X0213735Y0397700D01*
X0213735Y0399235D02*
X0212200Y0400769D01*
X0212200Y0402304D02*
X0212967Y0402304D01*
X0216037Y0405373D01*
X0216804Y0405373D01*
X0216804Y0402304D01*
X0267200Y0402304D02*
X0271804Y0402304D01*
X0270269Y0404606D02*
X0268735Y0402304D01*
X0267200Y0404606D01*
X0267200Y0400769D02*
X0267200Y0397700D01*
X0267200Y0399235D02*
X0271804Y0399235D01*
X0270269Y0397700D01*
X0282200Y0397700D02*
X0286804Y0397700D01*
X0286804Y0400002D01*
X0286037Y0400769D01*
X0284502Y0400769D01*
X0283735Y0400002D01*
X0283735Y0397700D01*
X0283735Y0399235D02*
X0282200Y0400769D01*
X0282967Y0402304D02*
X0283735Y0402304D01*
X0284502Y0403071D01*
X0284502Y0404606D01*
X0283735Y0405373D01*
X0282967Y0405373D01*
X0282200Y0404606D01*
X0282200Y0403071D01*
X0282967Y0402304D01*
X0284502Y0403071D02*
X0285269Y0402304D01*
X0286037Y0402304D01*
X0286804Y0403071D01*
X0286804Y0404606D01*
X0286037Y0405373D01*
X0285269Y0405373D01*
X0284502Y0404606D01*
X0297200Y0404606D02*
X0298735Y0402304D01*
X0300269Y0404606D01*
X0301804Y0402304D02*
X0297200Y0402304D01*
X0297200Y0400769D02*
X0297200Y0397700D01*
X0297200Y0399235D02*
X0301804Y0399235D01*
X0300269Y0397700D01*
X0312200Y0397700D02*
X0316804Y0397700D01*
X0316804Y0400002D01*
X0316037Y0400769D01*
X0314502Y0400769D01*
X0313735Y0400002D01*
X0313735Y0397700D01*
X0313735Y0399235D02*
X0312200Y0400769D01*
X0312967Y0402304D02*
X0312200Y0403071D01*
X0312200Y0404606D01*
X0312967Y0405373D01*
X0316037Y0405373D01*
X0316804Y0404606D01*
X0316804Y0403071D01*
X0316037Y0402304D01*
X0315269Y0402304D01*
X0314502Y0403071D01*
X0314502Y0405373D01*
X0327200Y0404606D02*
X0328735Y0402304D01*
X0330269Y0404606D01*
X0331804Y0402304D02*
X0327200Y0402304D01*
X0327200Y0400769D02*
X0327200Y0397700D01*
X0327200Y0399235D02*
X0331804Y0399235D01*
X0330269Y0397700D01*
X0342200Y0397700D02*
X0346804Y0397700D01*
X0346804Y0400002D01*
X0346037Y0400769D01*
X0344502Y0400769D01*
X0343735Y0400002D01*
X0343735Y0397700D01*
X0343735Y0399235D02*
X0342200Y0400769D01*
X0342200Y0402304D02*
X0342200Y0405373D01*
X0342200Y0403839D02*
X0346804Y0403839D01*
X0345269Y0402304D01*
X0346037Y0406908D02*
X0346804Y0407675D01*
X0346804Y0409210D01*
X0346037Y0409977D01*
X0342967Y0406908D01*
X0342200Y0407675D01*
X0342200Y0409210D01*
X0342967Y0409977D01*
X0346037Y0409977D01*
X0346037Y0406908D02*
X0342967Y0406908D01*
X0357200Y0404606D02*
X0358735Y0402304D01*
X0360269Y0404606D01*
X0361804Y0402304D02*
X0357200Y0402304D01*
X0357200Y0400769D02*
X0357200Y0397700D01*
X0357200Y0399235D02*
X0361804Y0399235D01*
X0360269Y0397700D01*
X0372200Y0397700D02*
X0376804Y0397700D01*
X0376804Y0400002D01*
X0376037Y0400769D01*
X0374502Y0400769D01*
X0373735Y0400002D01*
X0373735Y0397700D01*
X0373735Y0399235D02*
X0372200Y0400769D01*
X0372200Y0402304D02*
X0372200Y0405373D01*
X0372200Y0403839D02*
X0376804Y0403839D01*
X0375269Y0402304D01*
X0375269Y0406908D02*
X0376804Y0408442D01*
X0372200Y0408442D01*
X0372200Y0406908D02*
X0372200Y0409977D01*
X0362592Y0122304D02*
X0360290Y0122304D01*
X0359523Y0121537D01*
X0359523Y0120769D01*
X0360290Y0120002D01*
X0362592Y0120002D01*
X0360290Y0120002D02*
X0359523Y0119235D01*
X0359523Y0118467D01*
X0360290Y0117700D01*
X0362592Y0117700D01*
X0362592Y0122304D01*
X0357988Y0120002D02*
X0357988Y0118467D01*
X0357221Y0117700D01*
X0355686Y0117700D01*
X0354919Y0118467D01*
X0354919Y0120002D01*
X0355686Y0120769D01*
X0357221Y0120769D01*
X0357988Y0120002D01*
X0353384Y0118467D02*
X0352617Y0119235D01*
X0350315Y0119235D01*
X0350315Y0120002D02*
X0350315Y0117700D01*
X0352617Y0117700D01*
X0353384Y0118467D01*
X0352617Y0120769D02*
X0351082Y0120769D01*
X0350315Y0120002D01*
X0348780Y0120769D02*
X0348780Y0117700D01*
X0348780Y0119235D02*
X0347246Y0120769D01*
X0346478Y0120769D01*
X0344944Y0120002D02*
X0344176Y0120769D01*
X0341874Y0120769D01*
X0341874Y0122304D02*
X0341874Y0117700D01*
X0344176Y0117700D01*
X0344944Y0118467D01*
X0344944Y0120002D01*
X0344176Y0113269D02*
X0343409Y0112502D01*
X0343409Y0110200D01*
X0346478Y0110200D02*
X0346478Y0113269D01*
X0344176Y0113269D01*
X0348013Y0112502D02*
X0348013Y0110967D01*
X0348780Y0110200D01*
X0350315Y0110200D01*
X0351082Y0110967D01*
X0351082Y0112502D01*
X0350315Y0113269D01*
X0348780Y0113269D01*
X0348013Y0112502D01*
X0352617Y0110200D02*
X0354152Y0110200D01*
X0353384Y0110200D02*
X0353384Y0113269D01*
X0354152Y0113269D01*
X0355686Y0113269D02*
X0357988Y0113269D01*
X0358756Y0112502D01*
X0357988Y0111735D01*
X0356454Y0111735D01*
X0355686Y0110967D01*
X0356454Y0110200D01*
X0358756Y0110200D01*
X0360290Y0113269D02*
X0361058Y0113269D01*
X0362592Y0111735D01*
X0362592Y0113269D02*
X0362592Y0110200D01*
X0364127Y0111735D02*
X0367196Y0111735D01*
X0367196Y0112502D02*
X0367196Y0110967D01*
X0366429Y0110200D01*
X0364894Y0110200D01*
X0364127Y0111735D02*
X0364127Y0112502D01*
X0364894Y0113269D01*
X0366429Y0113269D01*
X0367196Y0112502D01*
X0368731Y0111735D02*
X0368731Y0114804D01*
X0371800Y0114804D02*
X0371800Y0111735D01*
X0370265Y0110200D01*
X0368731Y0111735D01*
X0353384Y0114804D02*
X0353384Y0115571D01*
X0337271Y0113269D02*
X0335736Y0114804D01*
X0335736Y0110200D01*
X0337271Y0110200D02*
X0334201Y0110200D01*
X0332667Y0110200D02*
X0331899Y0110200D01*
X0331899Y0110967D01*
X0332667Y0110967D01*
X0332667Y0110200D01*
X0330365Y0110967D02*
X0327295Y0114037D01*
X0327295Y0110967D01*
X0328063Y0110200D01*
X0329597Y0110200D01*
X0330365Y0110967D01*
X0330365Y0114037D01*
X0329597Y0114804D01*
X0328063Y0114804D01*
X0327295Y0114037D01*
D11*
X0048342Y0076255D02*
X0048342Y0070250D01*
X0047341Y0073253D02*
X0051344Y0073253D01*
X0048342Y0076255D01*
X0053326Y0075254D02*
X0054327Y0076255D01*
X0056329Y0076255D01*
X0057329Y0075254D01*
X0059311Y0075254D02*
X0059311Y0071251D01*
X0060312Y0070250D01*
X0062314Y0070250D01*
X0063315Y0071251D01*
X0059311Y0075254D01*
X0060312Y0076255D01*
X0062314Y0076255D01*
X0063315Y0075254D01*
X0063315Y0071251D01*
X0065296Y0070250D02*
X0069300Y0070250D01*
X0065296Y0074253D01*
X0065296Y0075254D01*
X0066297Y0076255D01*
X0068299Y0076255D01*
X0069300Y0075254D01*
X0077273Y0074253D02*
X0077273Y0072252D01*
X0079275Y0070250D01*
X0081257Y0071251D02*
X0082257Y0070250D01*
X0084259Y0070250D01*
X0085260Y0071251D01*
X0085260Y0075254D01*
X0084259Y0076255D01*
X0082257Y0076255D01*
X0081257Y0075254D01*
X0079275Y0076255D02*
X0077273Y0074253D01*
X0087248Y0076255D02*
X0089250Y0074253D01*
X0089250Y0072252D01*
X0087248Y0070250D01*
X0057329Y0070250D02*
X0053326Y0074253D01*
X0053326Y0075254D01*
X0053326Y0070250D02*
X0057329Y0070250D01*
X0096802Y0324750D02*
X0096802Y0327753D01*
X0095301Y0329354D02*
X0094550Y0329354D01*
X0095301Y0329354D02*
X0098303Y0332356D01*
X0099054Y0332356D01*
X0099054Y0329354D01*
X0099054Y0327002D02*
X0096802Y0324750D01*
X0094550Y0327002D02*
X0099054Y0327002D01*
X0098303Y0333958D02*
X0099054Y0334708D01*
X0099054Y0336210D01*
X0098303Y0336960D01*
X0095301Y0333958D01*
X0094550Y0334708D01*
X0094550Y0336210D01*
X0095301Y0336960D01*
X0098303Y0336960D01*
X0098303Y0333958D02*
X0095301Y0333958D01*
X0124550Y0334708D02*
X0125301Y0333958D01*
X0128303Y0336960D01*
X0125301Y0336960D01*
X0124550Y0336210D01*
X0124550Y0334708D01*
X0125301Y0333958D02*
X0128303Y0333958D01*
X0129054Y0334708D01*
X0129054Y0336210D01*
X0128303Y0336960D01*
X0128303Y0332356D02*
X0125301Y0329354D01*
X0124550Y0329354D01*
X0124550Y0327002D02*
X0129054Y0327002D01*
X0126802Y0324750D01*
X0126802Y0327753D01*
X0129054Y0329354D02*
X0129054Y0332356D01*
X0128303Y0332356D01*
X0154550Y0334708D02*
X0155301Y0333958D01*
X0158303Y0336960D01*
X0155301Y0336960D01*
X0154550Y0336210D01*
X0154550Y0334708D01*
X0155301Y0333958D02*
X0158303Y0333958D01*
X0159054Y0334708D01*
X0159054Y0336210D01*
X0158303Y0336960D01*
X0158303Y0332356D02*
X0155301Y0329354D01*
X0154550Y0329354D01*
X0154550Y0327002D02*
X0159054Y0327002D01*
X0156802Y0324750D01*
X0156802Y0327753D01*
X0159054Y0329354D02*
X0159054Y0332356D01*
X0158303Y0332356D01*
X0184550Y0334708D02*
X0185301Y0333958D01*
X0188303Y0336960D01*
X0185301Y0336960D01*
X0184550Y0336210D01*
X0184550Y0334708D01*
X0185301Y0333958D02*
X0188303Y0333958D01*
X0189054Y0334708D01*
X0189054Y0336210D01*
X0188303Y0336960D01*
X0188303Y0332356D02*
X0185301Y0329354D01*
X0184550Y0329354D01*
X0184550Y0327002D02*
X0189054Y0327002D01*
X0186802Y0324750D01*
X0186802Y0327753D01*
X0189054Y0329354D02*
X0189054Y0332356D01*
X0188303Y0332356D01*
X0259550Y0331606D02*
X0259550Y0330105D01*
X0260301Y0329354D01*
X0260301Y0327753D02*
X0259550Y0327002D01*
X0259550Y0325501D01*
X0260301Y0324750D01*
X0261802Y0326251D02*
X0261802Y0327002D01*
X0261051Y0327753D01*
X0260301Y0327753D01*
X0261802Y0327002D02*
X0262553Y0327753D01*
X0263303Y0327753D01*
X0264054Y0327002D01*
X0264054Y0325501D01*
X0263303Y0324750D01*
X0263303Y0329354D02*
X0264054Y0330105D01*
X0264054Y0331606D01*
X0263303Y0332356D01*
X0262553Y0332356D01*
X0261802Y0331606D01*
X0261051Y0332356D01*
X0260301Y0332356D01*
X0259550Y0331606D01*
X0261802Y0331606D02*
X0261802Y0330855D01*
X0289550Y0330105D02*
X0290301Y0329354D01*
X0289550Y0330105D02*
X0289550Y0331606D01*
X0290301Y0332356D01*
X0291051Y0332356D01*
X0291802Y0331606D01*
X0291802Y0330855D01*
X0291802Y0331606D02*
X0292553Y0332356D01*
X0293303Y0332356D01*
X0294054Y0331606D01*
X0294054Y0330105D01*
X0293303Y0329354D01*
X0293303Y0327753D02*
X0292553Y0327753D01*
X0291802Y0327002D01*
X0291051Y0327753D01*
X0290301Y0327753D01*
X0289550Y0327002D01*
X0289550Y0325501D01*
X0290301Y0324750D01*
X0291802Y0326251D02*
X0291802Y0327002D01*
X0293303Y0327753D02*
X0294054Y0327002D01*
X0294054Y0325501D01*
X0293303Y0324750D01*
X0319550Y0325501D02*
X0320301Y0324750D01*
X0319550Y0325501D02*
X0319550Y0327002D01*
X0320301Y0327753D01*
X0321051Y0327753D01*
X0321802Y0327002D01*
X0321802Y0326251D01*
X0321802Y0327002D02*
X0322553Y0327753D01*
X0323303Y0327753D01*
X0324054Y0327002D01*
X0324054Y0325501D01*
X0323303Y0324750D01*
X0323303Y0329354D02*
X0324054Y0330105D01*
X0324054Y0331606D01*
X0323303Y0332356D01*
X0322553Y0332356D01*
X0321802Y0331606D01*
X0321051Y0332356D01*
X0320301Y0332356D01*
X0319550Y0331606D01*
X0319550Y0330105D01*
X0320301Y0329354D01*
X0321802Y0330855D02*
X0321802Y0331606D01*
X0349550Y0331606D02*
X0349550Y0330105D01*
X0350301Y0329354D01*
X0350301Y0327753D02*
X0349550Y0327002D01*
X0349550Y0325501D01*
X0350301Y0324750D01*
X0351802Y0326251D02*
X0351802Y0327002D01*
X0351051Y0327753D01*
X0350301Y0327753D01*
X0351802Y0327002D02*
X0352553Y0327753D01*
X0353303Y0327753D01*
X0354054Y0327002D01*
X0354054Y0325501D01*
X0353303Y0324750D01*
X0353303Y0329354D02*
X0354054Y0330105D01*
X0354054Y0331606D01*
X0353303Y0332356D01*
X0352553Y0332356D01*
X0351802Y0331606D01*
X0351051Y0332356D01*
X0350301Y0332356D01*
X0349550Y0331606D01*
X0351802Y0331606D02*
X0351802Y0330855D01*
D12*
X0283233Y0109608D02*
X0283233Y0103469D01*
X0280164Y0100400D01*
X0277094Y0103469D01*
X0277094Y0109608D01*
X0274025Y0106539D02*
X0270956Y0109608D01*
X0267887Y0106539D01*
X0267887Y0100400D01*
X0264817Y0100400D02*
X0264817Y0109608D01*
X0260213Y0109608D01*
X0258679Y0108073D01*
X0258679Y0105004D01*
X0260213Y0103469D01*
X0264817Y0103469D01*
X0261748Y0103469D02*
X0258679Y0100400D01*
X0255609Y0100400D02*
X0252540Y0100400D01*
X0254075Y0100400D02*
X0254075Y0109608D01*
X0255609Y0109608D02*
X0252540Y0109608D01*
X0249471Y0106539D02*
X0246402Y0109608D01*
X0243332Y0106539D01*
X0243332Y0100400D01*
X0240263Y0100400D02*
X0235659Y0100400D01*
X0234124Y0101935D01*
X0234124Y0103469D01*
X0235659Y0105004D01*
X0240263Y0105004D01*
X0243332Y0105004D02*
X0249471Y0105004D01*
X0249471Y0106539D02*
X0249471Y0100400D01*
X0247986Y0094608D02*
X0243382Y0094608D01*
X0241847Y0093073D01*
X0241847Y0090004D01*
X0243382Y0088469D01*
X0247986Y0088469D01*
X0247986Y0085400D02*
X0247986Y0094608D01*
X0251055Y0091539D02*
X0251055Y0085400D01*
X0251055Y0090004D02*
X0257194Y0090004D01*
X0257194Y0091539D02*
X0254124Y0094608D01*
X0251055Y0091539D01*
X0244917Y0088469D02*
X0241847Y0085400D01*
X0235709Y0085400D02*
X0235709Y0094608D01*
X0238778Y0094608D02*
X0232639Y0094608D01*
X0229570Y0094608D02*
X0224966Y0094608D01*
X0223432Y0093073D01*
X0223432Y0090004D01*
X0224966Y0088469D01*
X0229570Y0088469D01*
X0229570Y0085400D02*
X0229570Y0094608D01*
X0226501Y0088469D02*
X0223432Y0085400D01*
X0220362Y0085400D02*
X0217293Y0085400D01*
X0218828Y0085400D02*
X0218828Y0094608D01*
X0220362Y0094608D02*
X0217293Y0094608D01*
X0214224Y0094608D02*
X0209620Y0094608D01*
X0208085Y0093073D01*
X0208085Y0086935D01*
X0209620Y0085400D01*
X0214224Y0085400D01*
X0214224Y0094608D01*
X0215709Y0100400D02*
X0221847Y0100400D01*
X0221847Y0109608D01*
X0215709Y0109608D01*
X0218778Y0105004D02*
X0221847Y0105004D01*
X0224917Y0100400D02*
X0231055Y0100400D01*
X0231055Y0109608D01*
X0234124Y0108073D02*
X0234124Y0106539D01*
X0235659Y0105004D01*
X0234124Y0108073D02*
X0235659Y0109608D01*
X0240263Y0109608D01*
X0240263Y0100400D01*
X0257194Y0091539D02*
X0257194Y0085400D01*
X0260263Y0086935D02*
X0261798Y0085400D01*
X0264867Y0085400D01*
X0266402Y0086935D01*
X0266402Y0093073D01*
X0264867Y0094608D01*
X0261798Y0094608D01*
X0260263Y0093073D01*
X0267887Y0105004D02*
X0274025Y0105004D01*
X0274025Y0106539D02*
X0274025Y0100400D01*
X0205016Y0093073D02*
X0205016Y0086935D01*
X0203481Y0085400D01*
X0200412Y0085400D01*
X0198877Y0086935D01*
X0198877Y0090004D01*
X0201947Y0090004D01*
X0205016Y0093073D02*
X0203481Y0094608D01*
X0200412Y0094608D01*
X0198877Y0093073D01*
X0195808Y0094608D02*
X0195808Y0085400D01*
X0189669Y0085400D01*
X0192739Y0090004D02*
X0195808Y0090004D01*
X0195808Y0094608D02*
X0189669Y0094608D01*
X0189620Y0100400D02*
X0188085Y0101935D01*
X0188085Y0108073D01*
X0189620Y0109608D01*
X0192689Y0109608D01*
X0194224Y0108073D01*
X0194224Y0101935D01*
X0192689Y0100400D01*
X0189620Y0100400D01*
X0185016Y0100400D02*
X0185016Y0106539D01*
X0181947Y0109608D01*
X0178877Y0106539D01*
X0178877Y0100400D01*
X0175808Y0100400D02*
X0171204Y0100400D01*
X0169669Y0101935D01*
X0169669Y0108073D01*
X0171204Y0109608D01*
X0175808Y0109608D01*
X0175808Y0100400D01*
X0178877Y0105004D02*
X0185016Y0105004D01*
X0197293Y0100400D02*
X0203432Y0100400D01*
X0203432Y0109608D01*
X0089100Y0089608D02*
X0089100Y0080400D01*
X0089100Y0083469D02*
X0084496Y0083469D01*
X0082961Y0085004D01*
X0082961Y0088073D01*
X0084496Y0089608D01*
X0089100Y0089608D01*
X0086031Y0083469D02*
X0082961Y0080400D01*
X0079892Y0080400D02*
X0075288Y0080400D01*
X0073754Y0081935D01*
X0073754Y0083469D01*
X0075288Y0085004D01*
X0079892Y0085004D01*
X0075288Y0085004D02*
X0073754Y0086539D01*
X0073754Y0088073D01*
X0075288Y0089608D01*
X0079892Y0089608D01*
X0079892Y0080400D01*
X0070684Y0081935D02*
X0069150Y0080400D01*
X0066080Y0080400D01*
X0064546Y0081935D01*
X0064546Y0083469D01*
X0066080Y0085004D01*
X0069150Y0085004D01*
X0070684Y0086539D01*
X0070684Y0088073D01*
X0069150Y0089608D01*
X0066080Y0089608D01*
X0064546Y0088073D01*
X0061476Y0088073D02*
X0061476Y0081935D01*
X0059942Y0080400D01*
X0056872Y0080400D01*
X0055338Y0081935D01*
X0055338Y0088073D02*
X0056872Y0089608D01*
X0059942Y0089608D01*
X0061476Y0088073D01*
D13*
X0147879Y0135748D02*
X0147879Y0139117D01*
X0147879Y0135748D02*
X0154618Y0129009D01*
X0154618Y0118900D01*
X0154618Y0129009D02*
X0161357Y0135748D01*
X0161357Y0139117D01*
X0168136Y0139117D02*
X0181615Y0139117D01*
X0181615Y0118900D01*
X0168136Y0118900D01*
X0174876Y0129009D02*
X0181615Y0129009D01*
X0188394Y0118900D02*
X0201872Y0118900D01*
X0201872Y0139117D01*
X0208651Y0132378D02*
X0208651Y0118900D01*
X0208651Y0129009D02*
X0222129Y0129009D01*
X0222129Y0132378D02*
X0215390Y0139117D01*
X0208651Y0132378D01*
X0222129Y0132378D02*
X0222129Y0118900D01*
X0228908Y0118900D02*
X0228908Y0139117D01*
X0235647Y0132378D01*
X0242387Y0139117D01*
X0242387Y0118900D01*
X0249166Y0118900D02*
X0255905Y0125639D01*
X0252535Y0125639D02*
X0262644Y0125639D01*
X0262644Y0118900D02*
X0262644Y0139117D01*
X0252535Y0139117D01*
X0249166Y0135748D01*
X0249166Y0129009D01*
X0252535Y0125639D01*
X0269423Y0129009D02*
X0282901Y0129009D01*
X0282901Y0132378D02*
X0276162Y0139117D01*
X0269423Y0132378D01*
X0269423Y0118900D01*
X0282901Y0118900D02*
X0282901Y0132378D01*
X0289680Y0132378D02*
X0293050Y0129009D01*
X0303159Y0129009D01*
X0303159Y0139117D02*
X0303159Y0118900D01*
X0293050Y0118900D01*
X0289680Y0122270D01*
X0289680Y0125639D01*
X0293050Y0129009D01*
X0289680Y0132378D02*
X0289680Y0135748D01*
X0293050Y0139117D01*
X0303159Y0139117D01*
D14*
X0302799Y0165600D02*
X0306202Y0165600D01*
X0307336Y0166734D01*
X0307336Y0169003D01*
X0306202Y0170137D01*
X0302799Y0170137D01*
X0302799Y0172406D02*
X0302799Y0165600D01*
X0299970Y0165600D02*
X0299970Y0166734D01*
X0298835Y0166734D01*
X0298835Y0165600D01*
X0299970Y0165600D01*
X0299970Y0169003D02*
X0298835Y0169003D01*
X0298835Y0170137D01*
X0299970Y0170137D01*
X0299970Y0169003D01*
X0310165Y0169003D02*
X0310165Y0165600D01*
X0313568Y0165600D01*
X0314702Y0166734D01*
X0313568Y0167869D01*
X0310165Y0167869D01*
X0310165Y0169003D02*
X0311299Y0170137D01*
X0313568Y0170137D01*
X0317531Y0169003D02*
X0317531Y0166734D01*
X0318666Y0165600D01*
X0320934Y0165600D01*
X0322069Y0166734D01*
X0322069Y0169003D01*
X0320934Y0170137D01*
X0318666Y0170137D01*
X0317531Y0169003D01*
X0324898Y0165600D02*
X0329435Y0165600D01*
X0329435Y0172406D01*
X0339630Y0170137D02*
X0344167Y0165600D01*
X0346997Y0165600D02*
X0346997Y0169003D01*
X0348131Y0170137D01*
X0350399Y0170137D01*
X0350399Y0167869D02*
X0346997Y0167869D01*
X0346997Y0165600D02*
X0350399Y0165600D01*
X0351534Y0166734D01*
X0350399Y0167869D01*
X0354363Y0165600D02*
X0354363Y0172406D01*
X0356631Y0170137D01*
X0358900Y0172406D01*
X0358900Y0165600D01*
X0344167Y0170137D02*
X0339630Y0165600D01*
X0362929Y0207000D02*
X0362931Y0207174D01*
X0362938Y0207347D01*
X0362948Y0207520D01*
X0362963Y0207693D01*
X0362982Y0207866D01*
X0363006Y0208038D01*
X0363033Y0208209D01*
X0363065Y0208379D01*
X0363101Y0208549D01*
X0363141Y0208718D01*
X0363185Y0208886D01*
X0363233Y0209053D01*
X0363286Y0209218D01*
X0363342Y0209382D01*
X0363403Y0209545D01*
X0363467Y0209706D01*
X0363536Y0209865D01*
X0363608Y0210023D01*
X0363684Y0210179D01*
X0363764Y0210333D01*
X0363848Y0210485D01*
X0363935Y0210635D01*
X0364026Y0210783D01*
X0364121Y0210928D01*
X0364219Y0211072D01*
X0364321Y0211212D01*
X0364426Y0211350D01*
X0364534Y0211486D01*
X0364646Y0211619D01*
X0364761Y0211749D01*
X0364879Y0211876D01*
X0365000Y0212000D01*
X0365124Y0212121D01*
X0365251Y0212239D01*
X0365381Y0212354D01*
X0365514Y0212466D01*
X0365650Y0212574D01*
X0365788Y0212679D01*
X0365928Y0212781D01*
X0366072Y0212879D01*
X0366217Y0212974D01*
X0366365Y0213065D01*
X0366515Y0213152D01*
X0366667Y0213236D01*
X0366821Y0213316D01*
X0366977Y0213392D01*
X0367135Y0213464D01*
X0367294Y0213533D01*
X0367455Y0213597D01*
X0367618Y0213658D01*
X0367782Y0213714D01*
X0367947Y0213767D01*
X0368114Y0213815D01*
X0368282Y0213859D01*
X0368451Y0213899D01*
X0368621Y0213935D01*
X0368791Y0213967D01*
X0368962Y0213994D01*
X0369134Y0214018D01*
X0369307Y0214037D01*
X0369480Y0214052D01*
X0369653Y0214062D01*
X0369826Y0214069D01*
X0370000Y0214071D01*
X0370174Y0214069D01*
X0370347Y0214062D01*
X0370520Y0214052D01*
X0370693Y0214037D01*
X0370866Y0214018D01*
X0371038Y0213994D01*
X0371209Y0213967D01*
X0371379Y0213935D01*
X0371549Y0213899D01*
X0371718Y0213859D01*
X0371886Y0213815D01*
X0372053Y0213767D01*
X0372218Y0213714D01*
X0372382Y0213658D01*
X0372545Y0213597D01*
X0372706Y0213533D01*
X0372865Y0213464D01*
X0373023Y0213392D01*
X0373179Y0213316D01*
X0373333Y0213236D01*
X0373485Y0213152D01*
X0373635Y0213065D01*
X0373783Y0212974D01*
X0373928Y0212879D01*
X0374072Y0212781D01*
X0374212Y0212679D01*
X0374350Y0212574D01*
X0374486Y0212466D01*
X0374619Y0212354D01*
X0374749Y0212239D01*
X0374876Y0212121D01*
X0375000Y0212000D01*
X0375121Y0211876D01*
X0375239Y0211749D01*
X0375354Y0211619D01*
X0375466Y0211486D01*
X0375574Y0211350D01*
X0375679Y0211212D01*
X0375781Y0211072D01*
X0375879Y0210928D01*
X0375974Y0210783D01*
X0376065Y0210635D01*
X0376152Y0210485D01*
X0376236Y0210333D01*
X0376316Y0210179D01*
X0376392Y0210023D01*
X0376464Y0209865D01*
X0376533Y0209706D01*
X0376597Y0209545D01*
X0376658Y0209382D01*
X0376714Y0209218D01*
X0376767Y0209053D01*
X0376815Y0208886D01*
X0376859Y0208718D01*
X0376899Y0208549D01*
X0376935Y0208379D01*
X0376967Y0208209D01*
X0376994Y0208038D01*
X0377018Y0207866D01*
X0377037Y0207693D01*
X0377052Y0207520D01*
X0377062Y0207347D01*
X0377069Y0207174D01*
X0377071Y0207000D01*
X0377069Y0206826D01*
X0377062Y0206653D01*
X0377052Y0206480D01*
X0377037Y0206307D01*
X0377018Y0206134D01*
X0376994Y0205962D01*
X0376967Y0205791D01*
X0376935Y0205621D01*
X0376899Y0205451D01*
X0376859Y0205282D01*
X0376815Y0205114D01*
X0376767Y0204947D01*
X0376714Y0204782D01*
X0376658Y0204618D01*
X0376597Y0204455D01*
X0376533Y0204294D01*
X0376464Y0204135D01*
X0376392Y0203977D01*
X0376316Y0203821D01*
X0376236Y0203667D01*
X0376152Y0203515D01*
X0376065Y0203365D01*
X0375974Y0203217D01*
X0375879Y0203072D01*
X0375781Y0202928D01*
X0375679Y0202788D01*
X0375574Y0202650D01*
X0375466Y0202514D01*
X0375354Y0202381D01*
X0375239Y0202251D01*
X0375121Y0202124D01*
X0375000Y0202000D01*
X0374876Y0201879D01*
X0374749Y0201761D01*
X0374619Y0201646D01*
X0374486Y0201534D01*
X0374350Y0201426D01*
X0374212Y0201321D01*
X0374072Y0201219D01*
X0373928Y0201121D01*
X0373783Y0201026D01*
X0373635Y0200935D01*
X0373485Y0200848D01*
X0373333Y0200764D01*
X0373179Y0200684D01*
X0373023Y0200608D01*
X0372865Y0200536D01*
X0372706Y0200467D01*
X0372545Y0200403D01*
X0372382Y0200342D01*
X0372218Y0200286D01*
X0372053Y0200233D01*
X0371886Y0200185D01*
X0371718Y0200141D01*
X0371549Y0200101D01*
X0371379Y0200065D01*
X0371209Y0200033D01*
X0371038Y0200006D01*
X0370866Y0199982D01*
X0370693Y0199963D01*
X0370520Y0199948D01*
X0370347Y0199938D01*
X0370174Y0199931D01*
X0370000Y0199929D01*
X0369826Y0199931D01*
X0369653Y0199938D01*
X0369480Y0199948D01*
X0369307Y0199963D01*
X0369134Y0199982D01*
X0368962Y0200006D01*
X0368791Y0200033D01*
X0368621Y0200065D01*
X0368451Y0200101D01*
X0368282Y0200141D01*
X0368114Y0200185D01*
X0367947Y0200233D01*
X0367782Y0200286D01*
X0367618Y0200342D01*
X0367455Y0200403D01*
X0367294Y0200467D01*
X0367135Y0200536D01*
X0366977Y0200608D01*
X0366821Y0200684D01*
X0366667Y0200764D01*
X0366515Y0200848D01*
X0366365Y0200935D01*
X0366217Y0201026D01*
X0366072Y0201121D01*
X0365928Y0201219D01*
X0365788Y0201321D01*
X0365650Y0201426D01*
X0365514Y0201534D01*
X0365381Y0201646D01*
X0365251Y0201761D01*
X0365124Y0201879D01*
X0365000Y0202000D01*
X0364879Y0202124D01*
X0364761Y0202251D01*
X0364646Y0202381D01*
X0364534Y0202514D01*
X0364426Y0202650D01*
X0364321Y0202788D01*
X0364219Y0202928D01*
X0364121Y0203072D01*
X0364026Y0203217D01*
X0363935Y0203365D01*
X0363848Y0203515D01*
X0363764Y0203667D01*
X0363684Y0203821D01*
X0363608Y0203977D01*
X0363536Y0204135D01*
X0363467Y0204294D01*
X0363403Y0204455D01*
X0363342Y0204618D01*
X0363286Y0204782D01*
X0363233Y0204947D01*
X0363185Y0205114D01*
X0363141Y0205282D01*
X0363101Y0205451D01*
X0363065Y0205621D01*
X0363033Y0205791D01*
X0363006Y0205962D01*
X0362982Y0206134D01*
X0362963Y0206307D01*
X0362948Y0206480D01*
X0362938Y0206653D01*
X0362931Y0206826D01*
X0362929Y0207000D01*
X0288920Y0169003D02*
X0288920Y0166734D01*
X0287786Y0165600D01*
X0285517Y0165600D01*
X0284383Y0166734D01*
X0284383Y0167869D01*
X0285517Y0169003D01*
X0288920Y0169003D01*
X0286652Y0171272D01*
X0284383Y0172406D01*
X0281554Y0171272D02*
X0281554Y0166734D01*
X0277017Y0171272D01*
X0277017Y0166734D01*
X0278151Y0165600D01*
X0280420Y0165600D01*
X0281554Y0166734D01*
X0281554Y0171272D02*
X0280420Y0172406D01*
X0278151Y0172406D01*
X0277017Y0171272D01*
X0274188Y0171272D02*
X0274188Y0166734D01*
X0269650Y0171272D01*
X0269650Y0166734D01*
X0270785Y0165600D01*
X0273053Y0165600D01*
X0274188Y0166734D01*
X0274188Y0171272D02*
X0273053Y0172406D01*
X0270785Y0172406D01*
X0269650Y0171272D01*
X0266821Y0170137D02*
X0266821Y0165600D01*
X0264553Y0165600D02*
X0264553Y0169003D01*
X0263418Y0170137D01*
X0262284Y0169003D01*
X0262284Y0165600D01*
X0259455Y0165600D02*
X0259455Y0170137D01*
X0257186Y0172406D01*
X0254918Y0170137D01*
X0254918Y0165600D01*
X0254918Y0169003D02*
X0259455Y0169003D01*
X0262130Y0175600D02*
X0262130Y0180137D01*
X0264399Y0182406D01*
X0266667Y0180137D01*
X0266667Y0175600D01*
X0266667Y0179003D02*
X0262130Y0179003D01*
X0265687Y0170137D02*
X0264553Y0169003D01*
X0265687Y0170137D02*
X0266821Y0170137D01*
X0276863Y0175600D02*
X0276863Y0182406D01*
X0281400Y0182406D02*
X0281400Y0175600D01*
X0279131Y0177869D01*
X0276863Y0175600D01*
X0251935Y0175600D02*
X0251935Y0182406D01*
X0248532Y0182406D01*
X0247398Y0181272D01*
X0247398Y0179003D01*
X0248532Y0177869D01*
X0251935Y0177869D01*
X0249666Y0177869D02*
X0247398Y0175600D01*
X0243588Y0170137D02*
X0244723Y0169003D01*
X0244723Y0166734D01*
X0243588Y0165600D01*
X0241320Y0165600D01*
X0240185Y0166734D01*
X0240185Y0169003D01*
X0241320Y0170137D01*
X0243588Y0170137D01*
X0237356Y0170137D02*
X0237356Y0165600D01*
X0232819Y0165600D02*
X0232819Y0169003D01*
X0233953Y0170137D01*
X0237356Y0170137D01*
X0237202Y0175600D02*
X0237202Y0182406D01*
X0232665Y0175600D01*
X0232665Y0182406D01*
X0222470Y0182406D02*
X0220201Y0182406D01*
X0221335Y0182406D02*
X0221335Y0175600D01*
X0220201Y0175600D02*
X0222470Y0175600D01*
X0220355Y0171272D02*
X0220355Y0166734D01*
X0222624Y0169003D02*
X0218086Y0169003D01*
X0215257Y0169003D02*
X0212989Y0170137D01*
X0211854Y0170137D01*
X0210720Y0169003D01*
X0210720Y0166734D01*
X0211854Y0165600D01*
X0214123Y0165600D01*
X0215257Y0166734D01*
X0215257Y0169003D02*
X0215257Y0172406D01*
X0210720Y0172406D01*
X0207891Y0172406D02*
X0207891Y0167869D01*
X0205622Y0165600D01*
X0203354Y0167869D01*
X0203354Y0172406D01*
X0205655Y0175600D02*
X0205655Y0182406D01*
X0210193Y0182406D02*
X0205655Y0175600D01*
X0210193Y0175600D02*
X0210193Y0182406D01*
X0195460Y0181272D02*
X0195460Y0176734D01*
X0194326Y0175600D01*
X0192057Y0175600D01*
X0190923Y0176734D01*
X0190923Y0179003D01*
X0193191Y0179003D01*
X0190923Y0181272D02*
X0192057Y0182406D01*
X0194326Y0182406D01*
X0195460Y0181272D01*
X0188248Y0172406D02*
X0188248Y0169003D01*
X0185979Y0170137D01*
X0184845Y0170137D01*
X0183710Y0169003D01*
X0183710Y0166734D01*
X0184845Y0165600D01*
X0187113Y0165600D01*
X0188248Y0166734D01*
X0188248Y0172406D02*
X0183710Y0172406D01*
X0180881Y0171272D02*
X0180881Y0166734D01*
X0176344Y0171272D01*
X0176344Y0166734D01*
X0177478Y0165600D01*
X0179747Y0165600D01*
X0180881Y0166734D01*
X0180881Y0171272D02*
X0179747Y0172406D01*
X0177478Y0172406D01*
X0176344Y0171272D01*
X0173515Y0170137D02*
X0172381Y0170137D01*
X0171246Y0169003D01*
X0170112Y0170137D01*
X0168978Y0169003D01*
X0168978Y0165600D01*
X0171246Y0165600D02*
X0171246Y0169003D01*
X0173515Y0170137D02*
X0173515Y0165600D01*
X0166149Y0165600D02*
X0166149Y0170137D01*
X0163880Y0172406D01*
X0161612Y0170137D01*
X0161612Y0165600D01*
X0161612Y0169003D02*
X0166149Y0169003D01*
X0170906Y0175600D02*
X0170906Y0176734D01*
X0170906Y0179003D02*
X0170906Y0183540D01*
X0180727Y0183540D02*
X0180727Y0179003D01*
X0180727Y0176734D02*
X0180727Y0175600D01*
X0161084Y0175600D02*
X0161084Y0176734D01*
X0161084Y0179003D02*
X0161084Y0183540D01*
X0150282Y0170137D02*
X0148013Y0170137D01*
X0146879Y0169003D01*
X0146879Y0166734D01*
X0148013Y0165600D01*
X0150282Y0165600D01*
X0151416Y0166734D01*
X0151416Y0169003D01*
X0150282Y0170137D01*
X0144050Y0170137D02*
X0144050Y0165600D01*
X0144050Y0170137D02*
X0140647Y0170137D01*
X0139513Y0169003D01*
X0139513Y0165600D01*
X0129317Y0169003D02*
X0124780Y0169003D01*
X0127049Y0171272D02*
X0127049Y0166734D01*
X0121951Y0165600D02*
X0117414Y0172406D01*
X0114585Y0169003D02*
X0110048Y0169003D01*
X0107218Y0170137D02*
X0104950Y0172406D01*
X0104950Y0165600D01*
X0107218Y0165600D02*
X0102681Y0165600D01*
X0099852Y0165600D02*
X0095315Y0170137D01*
X0095315Y0171272D01*
X0096449Y0172406D01*
X0098718Y0172406D01*
X0099852Y0171272D01*
X0099852Y0165600D02*
X0095315Y0165600D01*
X0092486Y0167869D02*
X0092486Y0172406D01*
X0087949Y0172406D02*
X0087949Y0167869D01*
X0090217Y0165600D01*
X0092486Y0167869D01*
X0071929Y0207000D02*
X0071931Y0207174D01*
X0071938Y0207347D01*
X0071948Y0207520D01*
X0071963Y0207693D01*
X0071982Y0207866D01*
X0072006Y0208038D01*
X0072033Y0208209D01*
X0072065Y0208379D01*
X0072101Y0208549D01*
X0072141Y0208718D01*
X0072185Y0208886D01*
X0072233Y0209053D01*
X0072286Y0209218D01*
X0072342Y0209382D01*
X0072403Y0209545D01*
X0072467Y0209706D01*
X0072536Y0209865D01*
X0072608Y0210023D01*
X0072684Y0210179D01*
X0072764Y0210333D01*
X0072848Y0210485D01*
X0072935Y0210635D01*
X0073026Y0210783D01*
X0073121Y0210928D01*
X0073219Y0211072D01*
X0073321Y0211212D01*
X0073426Y0211350D01*
X0073534Y0211486D01*
X0073646Y0211619D01*
X0073761Y0211749D01*
X0073879Y0211876D01*
X0074000Y0212000D01*
X0074124Y0212121D01*
X0074251Y0212239D01*
X0074381Y0212354D01*
X0074514Y0212466D01*
X0074650Y0212574D01*
X0074788Y0212679D01*
X0074928Y0212781D01*
X0075072Y0212879D01*
X0075217Y0212974D01*
X0075365Y0213065D01*
X0075515Y0213152D01*
X0075667Y0213236D01*
X0075821Y0213316D01*
X0075977Y0213392D01*
X0076135Y0213464D01*
X0076294Y0213533D01*
X0076455Y0213597D01*
X0076618Y0213658D01*
X0076782Y0213714D01*
X0076947Y0213767D01*
X0077114Y0213815D01*
X0077282Y0213859D01*
X0077451Y0213899D01*
X0077621Y0213935D01*
X0077791Y0213967D01*
X0077962Y0213994D01*
X0078134Y0214018D01*
X0078307Y0214037D01*
X0078480Y0214052D01*
X0078653Y0214062D01*
X0078826Y0214069D01*
X0079000Y0214071D01*
X0079174Y0214069D01*
X0079347Y0214062D01*
X0079520Y0214052D01*
X0079693Y0214037D01*
X0079866Y0214018D01*
X0080038Y0213994D01*
X0080209Y0213967D01*
X0080379Y0213935D01*
X0080549Y0213899D01*
X0080718Y0213859D01*
X0080886Y0213815D01*
X0081053Y0213767D01*
X0081218Y0213714D01*
X0081382Y0213658D01*
X0081545Y0213597D01*
X0081706Y0213533D01*
X0081865Y0213464D01*
X0082023Y0213392D01*
X0082179Y0213316D01*
X0082333Y0213236D01*
X0082485Y0213152D01*
X0082635Y0213065D01*
X0082783Y0212974D01*
X0082928Y0212879D01*
X0083072Y0212781D01*
X0083212Y0212679D01*
X0083350Y0212574D01*
X0083486Y0212466D01*
X0083619Y0212354D01*
X0083749Y0212239D01*
X0083876Y0212121D01*
X0084000Y0212000D01*
X0084121Y0211876D01*
X0084239Y0211749D01*
X0084354Y0211619D01*
X0084466Y0211486D01*
X0084574Y0211350D01*
X0084679Y0211212D01*
X0084781Y0211072D01*
X0084879Y0210928D01*
X0084974Y0210783D01*
X0085065Y0210635D01*
X0085152Y0210485D01*
X0085236Y0210333D01*
X0085316Y0210179D01*
X0085392Y0210023D01*
X0085464Y0209865D01*
X0085533Y0209706D01*
X0085597Y0209545D01*
X0085658Y0209382D01*
X0085714Y0209218D01*
X0085767Y0209053D01*
X0085815Y0208886D01*
X0085859Y0208718D01*
X0085899Y0208549D01*
X0085935Y0208379D01*
X0085967Y0208209D01*
X0085994Y0208038D01*
X0086018Y0207866D01*
X0086037Y0207693D01*
X0086052Y0207520D01*
X0086062Y0207347D01*
X0086069Y0207174D01*
X0086071Y0207000D01*
X0086069Y0206826D01*
X0086062Y0206653D01*
X0086052Y0206480D01*
X0086037Y0206307D01*
X0086018Y0206134D01*
X0085994Y0205962D01*
X0085967Y0205791D01*
X0085935Y0205621D01*
X0085899Y0205451D01*
X0085859Y0205282D01*
X0085815Y0205114D01*
X0085767Y0204947D01*
X0085714Y0204782D01*
X0085658Y0204618D01*
X0085597Y0204455D01*
X0085533Y0204294D01*
X0085464Y0204135D01*
X0085392Y0203977D01*
X0085316Y0203821D01*
X0085236Y0203667D01*
X0085152Y0203515D01*
X0085065Y0203365D01*
X0084974Y0203217D01*
X0084879Y0203072D01*
X0084781Y0202928D01*
X0084679Y0202788D01*
X0084574Y0202650D01*
X0084466Y0202514D01*
X0084354Y0202381D01*
X0084239Y0202251D01*
X0084121Y0202124D01*
X0084000Y0202000D01*
X0083876Y0201879D01*
X0083749Y0201761D01*
X0083619Y0201646D01*
X0083486Y0201534D01*
X0083350Y0201426D01*
X0083212Y0201321D01*
X0083072Y0201219D01*
X0082928Y0201121D01*
X0082783Y0201026D01*
X0082635Y0200935D01*
X0082485Y0200848D01*
X0082333Y0200764D01*
X0082179Y0200684D01*
X0082023Y0200608D01*
X0081865Y0200536D01*
X0081706Y0200467D01*
X0081545Y0200403D01*
X0081382Y0200342D01*
X0081218Y0200286D01*
X0081053Y0200233D01*
X0080886Y0200185D01*
X0080718Y0200141D01*
X0080549Y0200101D01*
X0080379Y0200065D01*
X0080209Y0200033D01*
X0080038Y0200006D01*
X0079866Y0199982D01*
X0079693Y0199963D01*
X0079520Y0199948D01*
X0079347Y0199938D01*
X0079174Y0199931D01*
X0079000Y0199929D01*
X0078826Y0199931D01*
X0078653Y0199938D01*
X0078480Y0199948D01*
X0078307Y0199963D01*
X0078134Y0199982D01*
X0077962Y0200006D01*
X0077791Y0200033D01*
X0077621Y0200065D01*
X0077451Y0200101D01*
X0077282Y0200141D01*
X0077114Y0200185D01*
X0076947Y0200233D01*
X0076782Y0200286D01*
X0076618Y0200342D01*
X0076455Y0200403D01*
X0076294Y0200467D01*
X0076135Y0200536D01*
X0075977Y0200608D01*
X0075821Y0200684D01*
X0075667Y0200764D01*
X0075515Y0200848D01*
X0075365Y0200935D01*
X0075217Y0201026D01*
X0075072Y0201121D01*
X0074928Y0201219D01*
X0074788Y0201321D01*
X0074650Y0201426D01*
X0074514Y0201534D01*
X0074381Y0201646D01*
X0074251Y0201761D01*
X0074124Y0201879D01*
X0074000Y0202000D01*
X0073879Y0202124D01*
X0073761Y0202251D01*
X0073646Y0202381D01*
X0073534Y0202514D01*
X0073426Y0202650D01*
X0073321Y0202788D01*
X0073219Y0202928D01*
X0073121Y0203072D01*
X0073026Y0203217D01*
X0072935Y0203365D01*
X0072848Y0203515D01*
X0072764Y0203667D01*
X0072684Y0203821D01*
X0072608Y0203977D01*
X0072536Y0204135D01*
X0072467Y0204294D01*
X0072403Y0204455D01*
X0072342Y0204618D01*
X0072286Y0204782D01*
X0072233Y0204947D01*
X0072185Y0205114D01*
X0072141Y0205282D01*
X0072101Y0205451D01*
X0072065Y0205621D01*
X0072033Y0205791D01*
X0072006Y0205962D01*
X0071982Y0206134D01*
X0071963Y0206307D01*
X0071948Y0206480D01*
X0071938Y0206653D01*
X0071931Y0206826D01*
X0071929Y0207000D01*
X0071929Y0333000D02*
X0071931Y0333174D01*
X0071938Y0333347D01*
X0071948Y0333520D01*
X0071963Y0333693D01*
X0071982Y0333866D01*
X0072006Y0334038D01*
X0072033Y0334209D01*
X0072065Y0334379D01*
X0072101Y0334549D01*
X0072141Y0334718D01*
X0072185Y0334886D01*
X0072233Y0335053D01*
X0072286Y0335218D01*
X0072342Y0335382D01*
X0072403Y0335545D01*
X0072467Y0335706D01*
X0072536Y0335865D01*
X0072608Y0336023D01*
X0072684Y0336179D01*
X0072764Y0336333D01*
X0072848Y0336485D01*
X0072935Y0336635D01*
X0073026Y0336783D01*
X0073121Y0336928D01*
X0073219Y0337072D01*
X0073321Y0337212D01*
X0073426Y0337350D01*
X0073534Y0337486D01*
X0073646Y0337619D01*
X0073761Y0337749D01*
X0073879Y0337876D01*
X0074000Y0338000D01*
X0074124Y0338121D01*
X0074251Y0338239D01*
X0074381Y0338354D01*
X0074514Y0338466D01*
X0074650Y0338574D01*
X0074788Y0338679D01*
X0074928Y0338781D01*
X0075072Y0338879D01*
X0075217Y0338974D01*
X0075365Y0339065D01*
X0075515Y0339152D01*
X0075667Y0339236D01*
X0075821Y0339316D01*
X0075977Y0339392D01*
X0076135Y0339464D01*
X0076294Y0339533D01*
X0076455Y0339597D01*
X0076618Y0339658D01*
X0076782Y0339714D01*
X0076947Y0339767D01*
X0077114Y0339815D01*
X0077282Y0339859D01*
X0077451Y0339899D01*
X0077621Y0339935D01*
X0077791Y0339967D01*
X0077962Y0339994D01*
X0078134Y0340018D01*
X0078307Y0340037D01*
X0078480Y0340052D01*
X0078653Y0340062D01*
X0078826Y0340069D01*
X0079000Y0340071D01*
X0079174Y0340069D01*
X0079347Y0340062D01*
X0079520Y0340052D01*
X0079693Y0340037D01*
X0079866Y0340018D01*
X0080038Y0339994D01*
X0080209Y0339967D01*
X0080379Y0339935D01*
X0080549Y0339899D01*
X0080718Y0339859D01*
X0080886Y0339815D01*
X0081053Y0339767D01*
X0081218Y0339714D01*
X0081382Y0339658D01*
X0081545Y0339597D01*
X0081706Y0339533D01*
X0081865Y0339464D01*
X0082023Y0339392D01*
X0082179Y0339316D01*
X0082333Y0339236D01*
X0082485Y0339152D01*
X0082635Y0339065D01*
X0082783Y0338974D01*
X0082928Y0338879D01*
X0083072Y0338781D01*
X0083212Y0338679D01*
X0083350Y0338574D01*
X0083486Y0338466D01*
X0083619Y0338354D01*
X0083749Y0338239D01*
X0083876Y0338121D01*
X0084000Y0338000D01*
X0084121Y0337876D01*
X0084239Y0337749D01*
X0084354Y0337619D01*
X0084466Y0337486D01*
X0084574Y0337350D01*
X0084679Y0337212D01*
X0084781Y0337072D01*
X0084879Y0336928D01*
X0084974Y0336783D01*
X0085065Y0336635D01*
X0085152Y0336485D01*
X0085236Y0336333D01*
X0085316Y0336179D01*
X0085392Y0336023D01*
X0085464Y0335865D01*
X0085533Y0335706D01*
X0085597Y0335545D01*
X0085658Y0335382D01*
X0085714Y0335218D01*
X0085767Y0335053D01*
X0085815Y0334886D01*
X0085859Y0334718D01*
X0085899Y0334549D01*
X0085935Y0334379D01*
X0085967Y0334209D01*
X0085994Y0334038D01*
X0086018Y0333866D01*
X0086037Y0333693D01*
X0086052Y0333520D01*
X0086062Y0333347D01*
X0086069Y0333174D01*
X0086071Y0333000D01*
X0086069Y0332826D01*
X0086062Y0332653D01*
X0086052Y0332480D01*
X0086037Y0332307D01*
X0086018Y0332134D01*
X0085994Y0331962D01*
X0085967Y0331791D01*
X0085935Y0331621D01*
X0085899Y0331451D01*
X0085859Y0331282D01*
X0085815Y0331114D01*
X0085767Y0330947D01*
X0085714Y0330782D01*
X0085658Y0330618D01*
X0085597Y0330455D01*
X0085533Y0330294D01*
X0085464Y0330135D01*
X0085392Y0329977D01*
X0085316Y0329821D01*
X0085236Y0329667D01*
X0085152Y0329515D01*
X0085065Y0329365D01*
X0084974Y0329217D01*
X0084879Y0329072D01*
X0084781Y0328928D01*
X0084679Y0328788D01*
X0084574Y0328650D01*
X0084466Y0328514D01*
X0084354Y0328381D01*
X0084239Y0328251D01*
X0084121Y0328124D01*
X0084000Y0328000D01*
X0083876Y0327879D01*
X0083749Y0327761D01*
X0083619Y0327646D01*
X0083486Y0327534D01*
X0083350Y0327426D01*
X0083212Y0327321D01*
X0083072Y0327219D01*
X0082928Y0327121D01*
X0082783Y0327026D01*
X0082635Y0326935D01*
X0082485Y0326848D01*
X0082333Y0326764D01*
X0082179Y0326684D01*
X0082023Y0326608D01*
X0081865Y0326536D01*
X0081706Y0326467D01*
X0081545Y0326403D01*
X0081382Y0326342D01*
X0081218Y0326286D01*
X0081053Y0326233D01*
X0080886Y0326185D01*
X0080718Y0326141D01*
X0080549Y0326101D01*
X0080379Y0326065D01*
X0080209Y0326033D01*
X0080038Y0326006D01*
X0079866Y0325982D01*
X0079693Y0325963D01*
X0079520Y0325948D01*
X0079347Y0325938D01*
X0079174Y0325931D01*
X0079000Y0325929D01*
X0078826Y0325931D01*
X0078653Y0325938D01*
X0078480Y0325948D01*
X0078307Y0325963D01*
X0078134Y0325982D01*
X0077962Y0326006D01*
X0077791Y0326033D01*
X0077621Y0326065D01*
X0077451Y0326101D01*
X0077282Y0326141D01*
X0077114Y0326185D01*
X0076947Y0326233D01*
X0076782Y0326286D01*
X0076618Y0326342D01*
X0076455Y0326403D01*
X0076294Y0326467D01*
X0076135Y0326536D01*
X0075977Y0326608D01*
X0075821Y0326684D01*
X0075667Y0326764D01*
X0075515Y0326848D01*
X0075365Y0326935D01*
X0075217Y0327026D01*
X0075072Y0327121D01*
X0074928Y0327219D01*
X0074788Y0327321D01*
X0074650Y0327426D01*
X0074514Y0327534D01*
X0074381Y0327646D01*
X0074251Y0327761D01*
X0074124Y0327879D01*
X0074000Y0328000D01*
X0073879Y0328124D01*
X0073761Y0328251D01*
X0073646Y0328381D01*
X0073534Y0328514D01*
X0073426Y0328650D01*
X0073321Y0328788D01*
X0073219Y0328928D01*
X0073121Y0329072D01*
X0073026Y0329217D01*
X0072935Y0329365D01*
X0072848Y0329515D01*
X0072764Y0329667D01*
X0072684Y0329821D01*
X0072608Y0329977D01*
X0072536Y0330135D01*
X0072467Y0330294D01*
X0072403Y0330455D01*
X0072342Y0330618D01*
X0072286Y0330782D01*
X0072233Y0330947D01*
X0072185Y0331114D01*
X0072141Y0331282D01*
X0072101Y0331451D01*
X0072065Y0331621D01*
X0072033Y0331791D01*
X0072006Y0331962D01*
X0071982Y0332134D01*
X0071963Y0332307D01*
X0071948Y0332480D01*
X0071938Y0332653D01*
X0071931Y0332826D01*
X0071929Y0333000D01*
X0197929Y0333000D02*
X0197931Y0333174D01*
X0197938Y0333347D01*
X0197948Y0333520D01*
X0197963Y0333693D01*
X0197982Y0333866D01*
X0198006Y0334038D01*
X0198033Y0334209D01*
X0198065Y0334379D01*
X0198101Y0334549D01*
X0198141Y0334718D01*
X0198185Y0334886D01*
X0198233Y0335053D01*
X0198286Y0335218D01*
X0198342Y0335382D01*
X0198403Y0335545D01*
X0198467Y0335706D01*
X0198536Y0335865D01*
X0198608Y0336023D01*
X0198684Y0336179D01*
X0198764Y0336333D01*
X0198848Y0336485D01*
X0198935Y0336635D01*
X0199026Y0336783D01*
X0199121Y0336928D01*
X0199219Y0337072D01*
X0199321Y0337212D01*
X0199426Y0337350D01*
X0199534Y0337486D01*
X0199646Y0337619D01*
X0199761Y0337749D01*
X0199879Y0337876D01*
X0200000Y0338000D01*
X0200124Y0338121D01*
X0200251Y0338239D01*
X0200381Y0338354D01*
X0200514Y0338466D01*
X0200650Y0338574D01*
X0200788Y0338679D01*
X0200928Y0338781D01*
X0201072Y0338879D01*
X0201217Y0338974D01*
X0201365Y0339065D01*
X0201515Y0339152D01*
X0201667Y0339236D01*
X0201821Y0339316D01*
X0201977Y0339392D01*
X0202135Y0339464D01*
X0202294Y0339533D01*
X0202455Y0339597D01*
X0202618Y0339658D01*
X0202782Y0339714D01*
X0202947Y0339767D01*
X0203114Y0339815D01*
X0203282Y0339859D01*
X0203451Y0339899D01*
X0203621Y0339935D01*
X0203791Y0339967D01*
X0203962Y0339994D01*
X0204134Y0340018D01*
X0204307Y0340037D01*
X0204480Y0340052D01*
X0204653Y0340062D01*
X0204826Y0340069D01*
X0205000Y0340071D01*
X0205174Y0340069D01*
X0205347Y0340062D01*
X0205520Y0340052D01*
X0205693Y0340037D01*
X0205866Y0340018D01*
X0206038Y0339994D01*
X0206209Y0339967D01*
X0206379Y0339935D01*
X0206549Y0339899D01*
X0206718Y0339859D01*
X0206886Y0339815D01*
X0207053Y0339767D01*
X0207218Y0339714D01*
X0207382Y0339658D01*
X0207545Y0339597D01*
X0207706Y0339533D01*
X0207865Y0339464D01*
X0208023Y0339392D01*
X0208179Y0339316D01*
X0208333Y0339236D01*
X0208485Y0339152D01*
X0208635Y0339065D01*
X0208783Y0338974D01*
X0208928Y0338879D01*
X0209072Y0338781D01*
X0209212Y0338679D01*
X0209350Y0338574D01*
X0209486Y0338466D01*
X0209619Y0338354D01*
X0209749Y0338239D01*
X0209876Y0338121D01*
X0210000Y0338000D01*
X0210121Y0337876D01*
X0210239Y0337749D01*
X0210354Y0337619D01*
X0210466Y0337486D01*
X0210574Y0337350D01*
X0210679Y0337212D01*
X0210781Y0337072D01*
X0210879Y0336928D01*
X0210974Y0336783D01*
X0211065Y0336635D01*
X0211152Y0336485D01*
X0211236Y0336333D01*
X0211316Y0336179D01*
X0211392Y0336023D01*
X0211464Y0335865D01*
X0211533Y0335706D01*
X0211597Y0335545D01*
X0211658Y0335382D01*
X0211714Y0335218D01*
X0211767Y0335053D01*
X0211815Y0334886D01*
X0211859Y0334718D01*
X0211899Y0334549D01*
X0211935Y0334379D01*
X0211967Y0334209D01*
X0211994Y0334038D01*
X0212018Y0333866D01*
X0212037Y0333693D01*
X0212052Y0333520D01*
X0212062Y0333347D01*
X0212069Y0333174D01*
X0212071Y0333000D01*
X0212069Y0332826D01*
X0212062Y0332653D01*
X0212052Y0332480D01*
X0212037Y0332307D01*
X0212018Y0332134D01*
X0211994Y0331962D01*
X0211967Y0331791D01*
X0211935Y0331621D01*
X0211899Y0331451D01*
X0211859Y0331282D01*
X0211815Y0331114D01*
X0211767Y0330947D01*
X0211714Y0330782D01*
X0211658Y0330618D01*
X0211597Y0330455D01*
X0211533Y0330294D01*
X0211464Y0330135D01*
X0211392Y0329977D01*
X0211316Y0329821D01*
X0211236Y0329667D01*
X0211152Y0329515D01*
X0211065Y0329365D01*
X0210974Y0329217D01*
X0210879Y0329072D01*
X0210781Y0328928D01*
X0210679Y0328788D01*
X0210574Y0328650D01*
X0210466Y0328514D01*
X0210354Y0328381D01*
X0210239Y0328251D01*
X0210121Y0328124D01*
X0210000Y0328000D01*
X0209876Y0327879D01*
X0209749Y0327761D01*
X0209619Y0327646D01*
X0209486Y0327534D01*
X0209350Y0327426D01*
X0209212Y0327321D01*
X0209072Y0327219D01*
X0208928Y0327121D01*
X0208783Y0327026D01*
X0208635Y0326935D01*
X0208485Y0326848D01*
X0208333Y0326764D01*
X0208179Y0326684D01*
X0208023Y0326608D01*
X0207865Y0326536D01*
X0207706Y0326467D01*
X0207545Y0326403D01*
X0207382Y0326342D01*
X0207218Y0326286D01*
X0207053Y0326233D01*
X0206886Y0326185D01*
X0206718Y0326141D01*
X0206549Y0326101D01*
X0206379Y0326065D01*
X0206209Y0326033D01*
X0206038Y0326006D01*
X0205866Y0325982D01*
X0205693Y0325963D01*
X0205520Y0325948D01*
X0205347Y0325938D01*
X0205174Y0325931D01*
X0205000Y0325929D01*
X0204826Y0325931D01*
X0204653Y0325938D01*
X0204480Y0325948D01*
X0204307Y0325963D01*
X0204134Y0325982D01*
X0203962Y0326006D01*
X0203791Y0326033D01*
X0203621Y0326065D01*
X0203451Y0326101D01*
X0203282Y0326141D01*
X0203114Y0326185D01*
X0202947Y0326233D01*
X0202782Y0326286D01*
X0202618Y0326342D01*
X0202455Y0326403D01*
X0202294Y0326467D01*
X0202135Y0326536D01*
X0201977Y0326608D01*
X0201821Y0326684D01*
X0201667Y0326764D01*
X0201515Y0326848D01*
X0201365Y0326935D01*
X0201217Y0327026D01*
X0201072Y0327121D01*
X0200928Y0327219D01*
X0200788Y0327321D01*
X0200650Y0327426D01*
X0200514Y0327534D01*
X0200381Y0327646D01*
X0200251Y0327761D01*
X0200124Y0327879D01*
X0200000Y0328000D01*
X0199879Y0328124D01*
X0199761Y0328251D01*
X0199646Y0328381D01*
X0199534Y0328514D01*
X0199426Y0328650D01*
X0199321Y0328788D01*
X0199219Y0328928D01*
X0199121Y0329072D01*
X0199026Y0329217D01*
X0198935Y0329365D01*
X0198848Y0329515D01*
X0198764Y0329667D01*
X0198684Y0329821D01*
X0198608Y0329977D01*
X0198536Y0330135D01*
X0198467Y0330294D01*
X0198403Y0330455D01*
X0198342Y0330618D01*
X0198286Y0330782D01*
X0198233Y0330947D01*
X0198185Y0331114D01*
X0198141Y0331282D01*
X0198101Y0331451D01*
X0198065Y0331621D01*
X0198033Y0331791D01*
X0198006Y0331962D01*
X0197982Y0332134D01*
X0197963Y0332307D01*
X0197948Y0332480D01*
X0197938Y0332653D01*
X0197931Y0332826D01*
X0197929Y0333000D01*
X0236929Y0333000D02*
X0236931Y0333174D01*
X0236938Y0333347D01*
X0236948Y0333520D01*
X0236963Y0333693D01*
X0236982Y0333866D01*
X0237006Y0334038D01*
X0237033Y0334209D01*
X0237065Y0334379D01*
X0237101Y0334549D01*
X0237141Y0334718D01*
X0237185Y0334886D01*
X0237233Y0335053D01*
X0237286Y0335218D01*
X0237342Y0335382D01*
X0237403Y0335545D01*
X0237467Y0335706D01*
X0237536Y0335865D01*
X0237608Y0336023D01*
X0237684Y0336179D01*
X0237764Y0336333D01*
X0237848Y0336485D01*
X0237935Y0336635D01*
X0238026Y0336783D01*
X0238121Y0336928D01*
X0238219Y0337072D01*
X0238321Y0337212D01*
X0238426Y0337350D01*
X0238534Y0337486D01*
X0238646Y0337619D01*
X0238761Y0337749D01*
X0238879Y0337876D01*
X0239000Y0338000D01*
X0239124Y0338121D01*
X0239251Y0338239D01*
X0239381Y0338354D01*
X0239514Y0338466D01*
X0239650Y0338574D01*
X0239788Y0338679D01*
X0239928Y0338781D01*
X0240072Y0338879D01*
X0240217Y0338974D01*
X0240365Y0339065D01*
X0240515Y0339152D01*
X0240667Y0339236D01*
X0240821Y0339316D01*
X0240977Y0339392D01*
X0241135Y0339464D01*
X0241294Y0339533D01*
X0241455Y0339597D01*
X0241618Y0339658D01*
X0241782Y0339714D01*
X0241947Y0339767D01*
X0242114Y0339815D01*
X0242282Y0339859D01*
X0242451Y0339899D01*
X0242621Y0339935D01*
X0242791Y0339967D01*
X0242962Y0339994D01*
X0243134Y0340018D01*
X0243307Y0340037D01*
X0243480Y0340052D01*
X0243653Y0340062D01*
X0243826Y0340069D01*
X0244000Y0340071D01*
X0244174Y0340069D01*
X0244347Y0340062D01*
X0244520Y0340052D01*
X0244693Y0340037D01*
X0244866Y0340018D01*
X0245038Y0339994D01*
X0245209Y0339967D01*
X0245379Y0339935D01*
X0245549Y0339899D01*
X0245718Y0339859D01*
X0245886Y0339815D01*
X0246053Y0339767D01*
X0246218Y0339714D01*
X0246382Y0339658D01*
X0246545Y0339597D01*
X0246706Y0339533D01*
X0246865Y0339464D01*
X0247023Y0339392D01*
X0247179Y0339316D01*
X0247333Y0339236D01*
X0247485Y0339152D01*
X0247635Y0339065D01*
X0247783Y0338974D01*
X0247928Y0338879D01*
X0248072Y0338781D01*
X0248212Y0338679D01*
X0248350Y0338574D01*
X0248486Y0338466D01*
X0248619Y0338354D01*
X0248749Y0338239D01*
X0248876Y0338121D01*
X0249000Y0338000D01*
X0249121Y0337876D01*
X0249239Y0337749D01*
X0249354Y0337619D01*
X0249466Y0337486D01*
X0249574Y0337350D01*
X0249679Y0337212D01*
X0249781Y0337072D01*
X0249879Y0336928D01*
X0249974Y0336783D01*
X0250065Y0336635D01*
X0250152Y0336485D01*
X0250236Y0336333D01*
X0250316Y0336179D01*
X0250392Y0336023D01*
X0250464Y0335865D01*
X0250533Y0335706D01*
X0250597Y0335545D01*
X0250658Y0335382D01*
X0250714Y0335218D01*
X0250767Y0335053D01*
X0250815Y0334886D01*
X0250859Y0334718D01*
X0250899Y0334549D01*
X0250935Y0334379D01*
X0250967Y0334209D01*
X0250994Y0334038D01*
X0251018Y0333866D01*
X0251037Y0333693D01*
X0251052Y0333520D01*
X0251062Y0333347D01*
X0251069Y0333174D01*
X0251071Y0333000D01*
X0251069Y0332826D01*
X0251062Y0332653D01*
X0251052Y0332480D01*
X0251037Y0332307D01*
X0251018Y0332134D01*
X0250994Y0331962D01*
X0250967Y0331791D01*
X0250935Y0331621D01*
X0250899Y0331451D01*
X0250859Y0331282D01*
X0250815Y0331114D01*
X0250767Y0330947D01*
X0250714Y0330782D01*
X0250658Y0330618D01*
X0250597Y0330455D01*
X0250533Y0330294D01*
X0250464Y0330135D01*
X0250392Y0329977D01*
X0250316Y0329821D01*
X0250236Y0329667D01*
X0250152Y0329515D01*
X0250065Y0329365D01*
X0249974Y0329217D01*
X0249879Y0329072D01*
X0249781Y0328928D01*
X0249679Y0328788D01*
X0249574Y0328650D01*
X0249466Y0328514D01*
X0249354Y0328381D01*
X0249239Y0328251D01*
X0249121Y0328124D01*
X0249000Y0328000D01*
X0248876Y0327879D01*
X0248749Y0327761D01*
X0248619Y0327646D01*
X0248486Y0327534D01*
X0248350Y0327426D01*
X0248212Y0327321D01*
X0248072Y0327219D01*
X0247928Y0327121D01*
X0247783Y0327026D01*
X0247635Y0326935D01*
X0247485Y0326848D01*
X0247333Y0326764D01*
X0247179Y0326684D01*
X0247023Y0326608D01*
X0246865Y0326536D01*
X0246706Y0326467D01*
X0246545Y0326403D01*
X0246382Y0326342D01*
X0246218Y0326286D01*
X0246053Y0326233D01*
X0245886Y0326185D01*
X0245718Y0326141D01*
X0245549Y0326101D01*
X0245379Y0326065D01*
X0245209Y0326033D01*
X0245038Y0326006D01*
X0244866Y0325982D01*
X0244693Y0325963D01*
X0244520Y0325948D01*
X0244347Y0325938D01*
X0244174Y0325931D01*
X0244000Y0325929D01*
X0243826Y0325931D01*
X0243653Y0325938D01*
X0243480Y0325948D01*
X0243307Y0325963D01*
X0243134Y0325982D01*
X0242962Y0326006D01*
X0242791Y0326033D01*
X0242621Y0326065D01*
X0242451Y0326101D01*
X0242282Y0326141D01*
X0242114Y0326185D01*
X0241947Y0326233D01*
X0241782Y0326286D01*
X0241618Y0326342D01*
X0241455Y0326403D01*
X0241294Y0326467D01*
X0241135Y0326536D01*
X0240977Y0326608D01*
X0240821Y0326684D01*
X0240667Y0326764D01*
X0240515Y0326848D01*
X0240365Y0326935D01*
X0240217Y0327026D01*
X0240072Y0327121D01*
X0239928Y0327219D01*
X0239788Y0327321D01*
X0239650Y0327426D01*
X0239514Y0327534D01*
X0239381Y0327646D01*
X0239251Y0327761D01*
X0239124Y0327879D01*
X0239000Y0328000D01*
X0238879Y0328124D01*
X0238761Y0328251D01*
X0238646Y0328381D01*
X0238534Y0328514D01*
X0238426Y0328650D01*
X0238321Y0328788D01*
X0238219Y0328928D01*
X0238121Y0329072D01*
X0238026Y0329217D01*
X0237935Y0329365D01*
X0237848Y0329515D01*
X0237764Y0329667D01*
X0237684Y0329821D01*
X0237608Y0329977D01*
X0237536Y0330135D01*
X0237467Y0330294D01*
X0237403Y0330455D01*
X0237342Y0330618D01*
X0237286Y0330782D01*
X0237233Y0330947D01*
X0237185Y0331114D01*
X0237141Y0331282D01*
X0237101Y0331451D01*
X0237065Y0331621D01*
X0237033Y0331791D01*
X0237006Y0331962D01*
X0236982Y0332134D01*
X0236963Y0332307D01*
X0236948Y0332480D01*
X0236938Y0332653D01*
X0236931Y0332826D01*
X0236929Y0333000D01*
X0236929Y0207000D02*
X0236931Y0207174D01*
X0236938Y0207347D01*
X0236948Y0207520D01*
X0236963Y0207693D01*
X0236982Y0207866D01*
X0237006Y0208038D01*
X0237033Y0208209D01*
X0237065Y0208379D01*
X0237101Y0208549D01*
X0237141Y0208718D01*
X0237185Y0208886D01*
X0237233Y0209053D01*
X0237286Y0209218D01*
X0237342Y0209382D01*
X0237403Y0209545D01*
X0237467Y0209706D01*
X0237536Y0209865D01*
X0237608Y0210023D01*
X0237684Y0210179D01*
X0237764Y0210333D01*
X0237848Y0210485D01*
X0237935Y0210635D01*
X0238026Y0210783D01*
X0238121Y0210928D01*
X0238219Y0211072D01*
X0238321Y0211212D01*
X0238426Y0211350D01*
X0238534Y0211486D01*
X0238646Y0211619D01*
X0238761Y0211749D01*
X0238879Y0211876D01*
X0239000Y0212000D01*
X0239124Y0212121D01*
X0239251Y0212239D01*
X0239381Y0212354D01*
X0239514Y0212466D01*
X0239650Y0212574D01*
X0239788Y0212679D01*
X0239928Y0212781D01*
X0240072Y0212879D01*
X0240217Y0212974D01*
X0240365Y0213065D01*
X0240515Y0213152D01*
X0240667Y0213236D01*
X0240821Y0213316D01*
X0240977Y0213392D01*
X0241135Y0213464D01*
X0241294Y0213533D01*
X0241455Y0213597D01*
X0241618Y0213658D01*
X0241782Y0213714D01*
X0241947Y0213767D01*
X0242114Y0213815D01*
X0242282Y0213859D01*
X0242451Y0213899D01*
X0242621Y0213935D01*
X0242791Y0213967D01*
X0242962Y0213994D01*
X0243134Y0214018D01*
X0243307Y0214037D01*
X0243480Y0214052D01*
X0243653Y0214062D01*
X0243826Y0214069D01*
X0244000Y0214071D01*
X0244174Y0214069D01*
X0244347Y0214062D01*
X0244520Y0214052D01*
X0244693Y0214037D01*
X0244866Y0214018D01*
X0245038Y0213994D01*
X0245209Y0213967D01*
X0245379Y0213935D01*
X0245549Y0213899D01*
X0245718Y0213859D01*
X0245886Y0213815D01*
X0246053Y0213767D01*
X0246218Y0213714D01*
X0246382Y0213658D01*
X0246545Y0213597D01*
X0246706Y0213533D01*
X0246865Y0213464D01*
X0247023Y0213392D01*
X0247179Y0213316D01*
X0247333Y0213236D01*
X0247485Y0213152D01*
X0247635Y0213065D01*
X0247783Y0212974D01*
X0247928Y0212879D01*
X0248072Y0212781D01*
X0248212Y0212679D01*
X0248350Y0212574D01*
X0248486Y0212466D01*
X0248619Y0212354D01*
X0248749Y0212239D01*
X0248876Y0212121D01*
X0249000Y0212000D01*
X0249121Y0211876D01*
X0249239Y0211749D01*
X0249354Y0211619D01*
X0249466Y0211486D01*
X0249574Y0211350D01*
X0249679Y0211212D01*
X0249781Y0211072D01*
X0249879Y0210928D01*
X0249974Y0210783D01*
X0250065Y0210635D01*
X0250152Y0210485D01*
X0250236Y0210333D01*
X0250316Y0210179D01*
X0250392Y0210023D01*
X0250464Y0209865D01*
X0250533Y0209706D01*
X0250597Y0209545D01*
X0250658Y0209382D01*
X0250714Y0209218D01*
X0250767Y0209053D01*
X0250815Y0208886D01*
X0250859Y0208718D01*
X0250899Y0208549D01*
X0250935Y0208379D01*
X0250967Y0208209D01*
X0250994Y0208038D01*
X0251018Y0207866D01*
X0251037Y0207693D01*
X0251052Y0207520D01*
X0251062Y0207347D01*
X0251069Y0207174D01*
X0251071Y0207000D01*
X0251069Y0206826D01*
X0251062Y0206653D01*
X0251052Y0206480D01*
X0251037Y0206307D01*
X0251018Y0206134D01*
X0250994Y0205962D01*
X0250967Y0205791D01*
X0250935Y0205621D01*
X0250899Y0205451D01*
X0250859Y0205282D01*
X0250815Y0205114D01*
X0250767Y0204947D01*
X0250714Y0204782D01*
X0250658Y0204618D01*
X0250597Y0204455D01*
X0250533Y0204294D01*
X0250464Y0204135D01*
X0250392Y0203977D01*
X0250316Y0203821D01*
X0250236Y0203667D01*
X0250152Y0203515D01*
X0250065Y0203365D01*
X0249974Y0203217D01*
X0249879Y0203072D01*
X0249781Y0202928D01*
X0249679Y0202788D01*
X0249574Y0202650D01*
X0249466Y0202514D01*
X0249354Y0202381D01*
X0249239Y0202251D01*
X0249121Y0202124D01*
X0249000Y0202000D01*
X0248876Y0201879D01*
X0248749Y0201761D01*
X0248619Y0201646D01*
X0248486Y0201534D01*
X0248350Y0201426D01*
X0248212Y0201321D01*
X0248072Y0201219D01*
X0247928Y0201121D01*
X0247783Y0201026D01*
X0247635Y0200935D01*
X0247485Y0200848D01*
X0247333Y0200764D01*
X0247179Y0200684D01*
X0247023Y0200608D01*
X0246865Y0200536D01*
X0246706Y0200467D01*
X0246545Y0200403D01*
X0246382Y0200342D01*
X0246218Y0200286D01*
X0246053Y0200233D01*
X0245886Y0200185D01*
X0245718Y0200141D01*
X0245549Y0200101D01*
X0245379Y0200065D01*
X0245209Y0200033D01*
X0245038Y0200006D01*
X0244866Y0199982D01*
X0244693Y0199963D01*
X0244520Y0199948D01*
X0244347Y0199938D01*
X0244174Y0199931D01*
X0244000Y0199929D01*
X0243826Y0199931D01*
X0243653Y0199938D01*
X0243480Y0199948D01*
X0243307Y0199963D01*
X0243134Y0199982D01*
X0242962Y0200006D01*
X0242791Y0200033D01*
X0242621Y0200065D01*
X0242451Y0200101D01*
X0242282Y0200141D01*
X0242114Y0200185D01*
X0241947Y0200233D01*
X0241782Y0200286D01*
X0241618Y0200342D01*
X0241455Y0200403D01*
X0241294Y0200467D01*
X0241135Y0200536D01*
X0240977Y0200608D01*
X0240821Y0200684D01*
X0240667Y0200764D01*
X0240515Y0200848D01*
X0240365Y0200935D01*
X0240217Y0201026D01*
X0240072Y0201121D01*
X0239928Y0201219D01*
X0239788Y0201321D01*
X0239650Y0201426D01*
X0239514Y0201534D01*
X0239381Y0201646D01*
X0239251Y0201761D01*
X0239124Y0201879D01*
X0239000Y0202000D01*
X0238879Y0202124D01*
X0238761Y0202251D01*
X0238646Y0202381D01*
X0238534Y0202514D01*
X0238426Y0202650D01*
X0238321Y0202788D01*
X0238219Y0202928D01*
X0238121Y0203072D01*
X0238026Y0203217D01*
X0237935Y0203365D01*
X0237848Y0203515D01*
X0237764Y0203667D01*
X0237684Y0203821D01*
X0237608Y0203977D01*
X0237536Y0204135D01*
X0237467Y0204294D01*
X0237403Y0204455D01*
X0237342Y0204618D01*
X0237286Y0204782D01*
X0237233Y0204947D01*
X0237185Y0205114D01*
X0237141Y0205282D01*
X0237101Y0205451D01*
X0237065Y0205621D01*
X0237033Y0205791D01*
X0237006Y0205962D01*
X0236982Y0206134D01*
X0236963Y0206307D01*
X0236948Y0206480D01*
X0236938Y0206653D01*
X0236931Y0206826D01*
X0236929Y0207000D01*
X0197929Y0207000D02*
X0197931Y0207174D01*
X0197938Y0207347D01*
X0197948Y0207520D01*
X0197963Y0207693D01*
X0197982Y0207866D01*
X0198006Y0208038D01*
X0198033Y0208209D01*
X0198065Y0208379D01*
X0198101Y0208549D01*
X0198141Y0208718D01*
X0198185Y0208886D01*
X0198233Y0209053D01*
X0198286Y0209218D01*
X0198342Y0209382D01*
X0198403Y0209545D01*
X0198467Y0209706D01*
X0198536Y0209865D01*
X0198608Y0210023D01*
X0198684Y0210179D01*
X0198764Y0210333D01*
X0198848Y0210485D01*
X0198935Y0210635D01*
X0199026Y0210783D01*
X0199121Y0210928D01*
X0199219Y0211072D01*
X0199321Y0211212D01*
X0199426Y0211350D01*
X0199534Y0211486D01*
X0199646Y0211619D01*
X0199761Y0211749D01*
X0199879Y0211876D01*
X0200000Y0212000D01*
X0200124Y0212121D01*
X0200251Y0212239D01*
X0200381Y0212354D01*
X0200514Y0212466D01*
X0200650Y0212574D01*
X0200788Y0212679D01*
X0200928Y0212781D01*
X0201072Y0212879D01*
X0201217Y0212974D01*
X0201365Y0213065D01*
X0201515Y0213152D01*
X0201667Y0213236D01*
X0201821Y0213316D01*
X0201977Y0213392D01*
X0202135Y0213464D01*
X0202294Y0213533D01*
X0202455Y0213597D01*
X0202618Y0213658D01*
X0202782Y0213714D01*
X0202947Y0213767D01*
X0203114Y0213815D01*
X0203282Y0213859D01*
X0203451Y0213899D01*
X0203621Y0213935D01*
X0203791Y0213967D01*
X0203962Y0213994D01*
X0204134Y0214018D01*
X0204307Y0214037D01*
X0204480Y0214052D01*
X0204653Y0214062D01*
X0204826Y0214069D01*
X0205000Y0214071D01*
X0205174Y0214069D01*
X0205347Y0214062D01*
X0205520Y0214052D01*
X0205693Y0214037D01*
X0205866Y0214018D01*
X0206038Y0213994D01*
X0206209Y0213967D01*
X0206379Y0213935D01*
X0206549Y0213899D01*
X0206718Y0213859D01*
X0206886Y0213815D01*
X0207053Y0213767D01*
X0207218Y0213714D01*
X0207382Y0213658D01*
X0207545Y0213597D01*
X0207706Y0213533D01*
X0207865Y0213464D01*
X0208023Y0213392D01*
X0208179Y0213316D01*
X0208333Y0213236D01*
X0208485Y0213152D01*
X0208635Y0213065D01*
X0208783Y0212974D01*
X0208928Y0212879D01*
X0209072Y0212781D01*
X0209212Y0212679D01*
X0209350Y0212574D01*
X0209486Y0212466D01*
X0209619Y0212354D01*
X0209749Y0212239D01*
X0209876Y0212121D01*
X0210000Y0212000D01*
X0210121Y0211876D01*
X0210239Y0211749D01*
X0210354Y0211619D01*
X0210466Y0211486D01*
X0210574Y0211350D01*
X0210679Y0211212D01*
X0210781Y0211072D01*
X0210879Y0210928D01*
X0210974Y0210783D01*
X0211065Y0210635D01*
X0211152Y0210485D01*
X0211236Y0210333D01*
X0211316Y0210179D01*
X0211392Y0210023D01*
X0211464Y0209865D01*
X0211533Y0209706D01*
X0211597Y0209545D01*
X0211658Y0209382D01*
X0211714Y0209218D01*
X0211767Y0209053D01*
X0211815Y0208886D01*
X0211859Y0208718D01*
X0211899Y0208549D01*
X0211935Y0208379D01*
X0211967Y0208209D01*
X0211994Y0208038D01*
X0212018Y0207866D01*
X0212037Y0207693D01*
X0212052Y0207520D01*
X0212062Y0207347D01*
X0212069Y0207174D01*
X0212071Y0207000D01*
X0212069Y0206826D01*
X0212062Y0206653D01*
X0212052Y0206480D01*
X0212037Y0206307D01*
X0212018Y0206134D01*
X0211994Y0205962D01*
X0211967Y0205791D01*
X0211935Y0205621D01*
X0211899Y0205451D01*
X0211859Y0205282D01*
X0211815Y0205114D01*
X0211767Y0204947D01*
X0211714Y0204782D01*
X0211658Y0204618D01*
X0211597Y0204455D01*
X0211533Y0204294D01*
X0211464Y0204135D01*
X0211392Y0203977D01*
X0211316Y0203821D01*
X0211236Y0203667D01*
X0211152Y0203515D01*
X0211065Y0203365D01*
X0210974Y0203217D01*
X0210879Y0203072D01*
X0210781Y0202928D01*
X0210679Y0202788D01*
X0210574Y0202650D01*
X0210466Y0202514D01*
X0210354Y0202381D01*
X0210239Y0202251D01*
X0210121Y0202124D01*
X0210000Y0202000D01*
X0209876Y0201879D01*
X0209749Y0201761D01*
X0209619Y0201646D01*
X0209486Y0201534D01*
X0209350Y0201426D01*
X0209212Y0201321D01*
X0209072Y0201219D01*
X0208928Y0201121D01*
X0208783Y0201026D01*
X0208635Y0200935D01*
X0208485Y0200848D01*
X0208333Y0200764D01*
X0208179Y0200684D01*
X0208023Y0200608D01*
X0207865Y0200536D01*
X0207706Y0200467D01*
X0207545Y0200403D01*
X0207382Y0200342D01*
X0207218Y0200286D01*
X0207053Y0200233D01*
X0206886Y0200185D01*
X0206718Y0200141D01*
X0206549Y0200101D01*
X0206379Y0200065D01*
X0206209Y0200033D01*
X0206038Y0200006D01*
X0205866Y0199982D01*
X0205693Y0199963D01*
X0205520Y0199948D01*
X0205347Y0199938D01*
X0205174Y0199931D01*
X0205000Y0199929D01*
X0204826Y0199931D01*
X0204653Y0199938D01*
X0204480Y0199948D01*
X0204307Y0199963D01*
X0204134Y0199982D01*
X0203962Y0200006D01*
X0203791Y0200033D01*
X0203621Y0200065D01*
X0203451Y0200101D01*
X0203282Y0200141D01*
X0203114Y0200185D01*
X0202947Y0200233D01*
X0202782Y0200286D01*
X0202618Y0200342D01*
X0202455Y0200403D01*
X0202294Y0200467D01*
X0202135Y0200536D01*
X0201977Y0200608D01*
X0201821Y0200684D01*
X0201667Y0200764D01*
X0201515Y0200848D01*
X0201365Y0200935D01*
X0201217Y0201026D01*
X0201072Y0201121D01*
X0200928Y0201219D01*
X0200788Y0201321D01*
X0200650Y0201426D01*
X0200514Y0201534D01*
X0200381Y0201646D01*
X0200251Y0201761D01*
X0200124Y0201879D01*
X0200000Y0202000D01*
X0199879Y0202124D01*
X0199761Y0202251D01*
X0199646Y0202381D01*
X0199534Y0202514D01*
X0199426Y0202650D01*
X0199321Y0202788D01*
X0199219Y0202928D01*
X0199121Y0203072D01*
X0199026Y0203217D01*
X0198935Y0203365D01*
X0198848Y0203515D01*
X0198764Y0203667D01*
X0198684Y0203821D01*
X0198608Y0203977D01*
X0198536Y0204135D01*
X0198467Y0204294D01*
X0198403Y0204455D01*
X0198342Y0204618D01*
X0198286Y0204782D01*
X0198233Y0204947D01*
X0198185Y0205114D01*
X0198141Y0205282D01*
X0198101Y0205451D01*
X0198065Y0205621D01*
X0198033Y0205791D01*
X0198006Y0205962D01*
X0197982Y0206134D01*
X0197963Y0206307D01*
X0197948Y0206480D01*
X0197938Y0206653D01*
X0197931Y0206826D01*
X0197929Y0207000D01*
X0198256Y0166734D02*
X0199390Y0166734D01*
X0199390Y0165600D01*
X0198256Y0165600D01*
X0198256Y0166734D01*
X0198256Y0165600D02*
X0200525Y0163331D01*
X0362929Y0333000D02*
X0362931Y0333174D01*
X0362938Y0333347D01*
X0362948Y0333520D01*
X0362963Y0333693D01*
X0362982Y0333866D01*
X0363006Y0334038D01*
X0363033Y0334209D01*
X0363065Y0334379D01*
X0363101Y0334549D01*
X0363141Y0334718D01*
X0363185Y0334886D01*
X0363233Y0335053D01*
X0363286Y0335218D01*
X0363342Y0335382D01*
X0363403Y0335545D01*
X0363467Y0335706D01*
X0363536Y0335865D01*
X0363608Y0336023D01*
X0363684Y0336179D01*
X0363764Y0336333D01*
X0363848Y0336485D01*
X0363935Y0336635D01*
X0364026Y0336783D01*
X0364121Y0336928D01*
X0364219Y0337072D01*
X0364321Y0337212D01*
X0364426Y0337350D01*
X0364534Y0337486D01*
X0364646Y0337619D01*
X0364761Y0337749D01*
X0364879Y0337876D01*
X0365000Y0338000D01*
X0365124Y0338121D01*
X0365251Y0338239D01*
X0365381Y0338354D01*
X0365514Y0338466D01*
X0365650Y0338574D01*
X0365788Y0338679D01*
X0365928Y0338781D01*
X0366072Y0338879D01*
X0366217Y0338974D01*
X0366365Y0339065D01*
X0366515Y0339152D01*
X0366667Y0339236D01*
X0366821Y0339316D01*
X0366977Y0339392D01*
X0367135Y0339464D01*
X0367294Y0339533D01*
X0367455Y0339597D01*
X0367618Y0339658D01*
X0367782Y0339714D01*
X0367947Y0339767D01*
X0368114Y0339815D01*
X0368282Y0339859D01*
X0368451Y0339899D01*
X0368621Y0339935D01*
X0368791Y0339967D01*
X0368962Y0339994D01*
X0369134Y0340018D01*
X0369307Y0340037D01*
X0369480Y0340052D01*
X0369653Y0340062D01*
X0369826Y0340069D01*
X0370000Y0340071D01*
X0370174Y0340069D01*
X0370347Y0340062D01*
X0370520Y0340052D01*
X0370693Y0340037D01*
X0370866Y0340018D01*
X0371038Y0339994D01*
X0371209Y0339967D01*
X0371379Y0339935D01*
X0371549Y0339899D01*
X0371718Y0339859D01*
X0371886Y0339815D01*
X0372053Y0339767D01*
X0372218Y0339714D01*
X0372382Y0339658D01*
X0372545Y0339597D01*
X0372706Y0339533D01*
X0372865Y0339464D01*
X0373023Y0339392D01*
X0373179Y0339316D01*
X0373333Y0339236D01*
X0373485Y0339152D01*
X0373635Y0339065D01*
X0373783Y0338974D01*
X0373928Y0338879D01*
X0374072Y0338781D01*
X0374212Y0338679D01*
X0374350Y0338574D01*
X0374486Y0338466D01*
X0374619Y0338354D01*
X0374749Y0338239D01*
X0374876Y0338121D01*
X0375000Y0338000D01*
X0375121Y0337876D01*
X0375239Y0337749D01*
X0375354Y0337619D01*
X0375466Y0337486D01*
X0375574Y0337350D01*
X0375679Y0337212D01*
X0375781Y0337072D01*
X0375879Y0336928D01*
X0375974Y0336783D01*
X0376065Y0336635D01*
X0376152Y0336485D01*
X0376236Y0336333D01*
X0376316Y0336179D01*
X0376392Y0336023D01*
X0376464Y0335865D01*
X0376533Y0335706D01*
X0376597Y0335545D01*
X0376658Y0335382D01*
X0376714Y0335218D01*
X0376767Y0335053D01*
X0376815Y0334886D01*
X0376859Y0334718D01*
X0376899Y0334549D01*
X0376935Y0334379D01*
X0376967Y0334209D01*
X0376994Y0334038D01*
X0377018Y0333866D01*
X0377037Y0333693D01*
X0377052Y0333520D01*
X0377062Y0333347D01*
X0377069Y0333174D01*
X0377071Y0333000D01*
X0377069Y0332826D01*
X0377062Y0332653D01*
X0377052Y0332480D01*
X0377037Y0332307D01*
X0377018Y0332134D01*
X0376994Y0331962D01*
X0376967Y0331791D01*
X0376935Y0331621D01*
X0376899Y0331451D01*
X0376859Y0331282D01*
X0376815Y0331114D01*
X0376767Y0330947D01*
X0376714Y0330782D01*
X0376658Y0330618D01*
X0376597Y0330455D01*
X0376533Y0330294D01*
X0376464Y0330135D01*
X0376392Y0329977D01*
X0376316Y0329821D01*
X0376236Y0329667D01*
X0376152Y0329515D01*
X0376065Y0329365D01*
X0375974Y0329217D01*
X0375879Y0329072D01*
X0375781Y0328928D01*
X0375679Y0328788D01*
X0375574Y0328650D01*
X0375466Y0328514D01*
X0375354Y0328381D01*
X0375239Y0328251D01*
X0375121Y0328124D01*
X0375000Y0328000D01*
X0374876Y0327879D01*
X0374749Y0327761D01*
X0374619Y0327646D01*
X0374486Y0327534D01*
X0374350Y0327426D01*
X0374212Y0327321D01*
X0374072Y0327219D01*
X0373928Y0327121D01*
X0373783Y0327026D01*
X0373635Y0326935D01*
X0373485Y0326848D01*
X0373333Y0326764D01*
X0373179Y0326684D01*
X0373023Y0326608D01*
X0372865Y0326536D01*
X0372706Y0326467D01*
X0372545Y0326403D01*
X0372382Y0326342D01*
X0372218Y0326286D01*
X0372053Y0326233D01*
X0371886Y0326185D01*
X0371718Y0326141D01*
X0371549Y0326101D01*
X0371379Y0326065D01*
X0371209Y0326033D01*
X0371038Y0326006D01*
X0370866Y0325982D01*
X0370693Y0325963D01*
X0370520Y0325948D01*
X0370347Y0325938D01*
X0370174Y0325931D01*
X0370000Y0325929D01*
X0369826Y0325931D01*
X0369653Y0325938D01*
X0369480Y0325948D01*
X0369307Y0325963D01*
X0369134Y0325982D01*
X0368962Y0326006D01*
X0368791Y0326033D01*
X0368621Y0326065D01*
X0368451Y0326101D01*
X0368282Y0326141D01*
X0368114Y0326185D01*
X0367947Y0326233D01*
X0367782Y0326286D01*
X0367618Y0326342D01*
X0367455Y0326403D01*
X0367294Y0326467D01*
X0367135Y0326536D01*
X0366977Y0326608D01*
X0366821Y0326684D01*
X0366667Y0326764D01*
X0366515Y0326848D01*
X0366365Y0326935D01*
X0366217Y0327026D01*
X0366072Y0327121D01*
X0365928Y0327219D01*
X0365788Y0327321D01*
X0365650Y0327426D01*
X0365514Y0327534D01*
X0365381Y0327646D01*
X0365251Y0327761D01*
X0365124Y0327879D01*
X0365000Y0328000D01*
X0364879Y0328124D01*
X0364761Y0328251D01*
X0364646Y0328381D01*
X0364534Y0328514D01*
X0364426Y0328650D01*
X0364321Y0328788D01*
X0364219Y0328928D01*
X0364121Y0329072D01*
X0364026Y0329217D01*
X0363935Y0329365D01*
X0363848Y0329515D01*
X0363764Y0329667D01*
X0363684Y0329821D01*
X0363608Y0329977D01*
X0363536Y0330135D01*
X0363467Y0330294D01*
X0363403Y0330455D01*
X0363342Y0330618D01*
X0363286Y0330782D01*
X0363233Y0330947D01*
X0363185Y0331114D01*
X0363141Y0331282D01*
X0363101Y0331451D01*
X0363065Y0331621D01*
X0363033Y0331791D01*
X0363006Y0331962D01*
X0362982Y0332134D01*
X0362963Y0332307D01*
X0362948Y0332480D01*
X0362938Y0332653D01*
X0362931Y0332826D01*
X0362929Y0333000D01*
D15*
X0382000Y0350000D02*
X0382140Y0349998D01*
X0382280Y0349992D01*
X0382420Y0349982D01*
X0382560Y0349969D01*
X0382699Y0349951D01*
X0382838Y0349929D01*
X0382975Y0349904D01*
X0383113Y0349875D01*
X0383249Y0349842D01*
X0383384Y0349805D01*
X0383518Y0349764D01*
X0383651Y0349719D01*
X0383783Y0349671D01*
X0383913Y0349619D01*
X0384042Y0349564D01*
X0384169Y0349505D01*
X0384295Y0349442D01*
X0384419Y0349376D01*
X0384540Y0349307D01*
X0384660Y0349234D01*
X0384778Y0349157D01*
X0384893Y0349078D01*
X0385007Y0348995D01*
X0385117Y0348909D01*
X0385226Y0348820D01*
X0385332Y0348728D01*
X0385435Y0348633D01*
X0385536Y0348536D01*
X0385633Y0348435D01*
X0385728Y0348332D01*
X0385820Y0348226D01*
X0385909Y0348117D01*
X0385995Y0348007D01*
X0386078Y0347893D01*
X0386157Y0347778D01*
X0386234Y0347660D01*
X0386307Y0347540D01*
X0386376Y0347419D01*
X0386442Y0347295D01*
X0386505Y0347169D01*
X0386564Y0347042D01*
X0386619Y0346913D01*
X0386671Y0346783D01*
X0386719Y0346651D01*
X0386764Y0346518D01*
X0386805Y0346384D01*
X0386842Y0346249D01*
X0386875Y0346113D01*
X0386904Y0345975D01*
X0386929Y0345838D01*
X0386951Y0345699D01*
X0386969Y0345560D01*
X0386982Y0345420D01*
X0386992Y0345280D01*
X0386998Y0345140D01*
X0387000Y0345000D01*
X0387000Y0195000D01*
X0386998Y0194860D01*
X0386992Y0194720D01*
X0386982Y0194580D01*
X0386969Y0194440D01*
X0386951Y0194301D01*
X0386929Y0194162D01*
X0386904Y0194025D01*
X0386875Y0193887D01*
X0386842Y0193751D01*
X0386805Y0193616D01*
X0386764Y0193482D01*
X0386719Y0193349D01*
X0386671Y0193217D01*
X0386619Y0193087D01*
X0386564Y0192958D01*
X0386505Y0192831D01*
X0386442Y0192705D01*
X0386376Y0192581D01*
X0386307Y0192460D01*
X0386234Y0192340D01*
X0386157Y0192222D01*
X0386078Y0192107D01*
X0385995Y0191993D01*
X0385909Y0191883D01*
X0385820Y0191774D01*
X0385728Y0191668D01*
X0385633Y0191565D01*
X0385536Y0191464D01*
X0385435Y0191367D01*
X0385332Y0191272D01*
X0385226Y0191180D01*
X0385117Y0191091D01*
X0385007Y0191005D01*
X0384893Y0190922D01*
X0384778Y0190843D01*
X0384660Y0190766D01*
X0384540Y0190693D01*
X0384419Y0190624D01*
X0384295Y0190558D01*
X0384169Y0190495D01*
X0384042Y0190436D01*
X0383913Y0190381D01*
X0383783Y0190329D01*
X0383651Y0190281D01*
X0383518Y0190236D01*
X0383384Y0190195D01*
X0383249Y0190158D01*
X0383113Y0190125D01*
X0382975Y0190096D01*
X0382838Y0190071D01*
X0382699Y0190049D01*
X0382560Y0190031D01*
X0382420Y0190018D01*
X0382280Y0190008D01*
X0382140Y0190002D01*
X0382000Y0190000D01*
X0232000Y0190000D01*
X0231860Y0190002D01*
X0231720Y0190008D01*
X0231580Y0190018D01*
X0231440Y0190031D01*
X0231301Y0190049D01*
X0231162Y0190071D01*
X0231025Y0190096D01*
X0230887Y0190125D01*
X0230751Y0190158D01*
X0230616Y0190195D01*
X0230482Y0190236D01*
X0230349Y0190281D01*
X0230217Y0190329D01*
X0230087Y0190381D01*
X0229958Y0190436D01*
X0229831Y0190495D01*
X0229705Y0190558D01*
X0229581Y0190624D01*
X0229460Y0190693D01*
X0229340Y0190766D01*
X0229222Y0190843D01*
X0229107Y0190922D01*
X0228993Y0191005D01*
X0228883Y0191091D01*
X0228774Y0191180D01*
X0228668Y0191272D01*
X0228565Y0191367D01*
X0228464Y0191464D01*
X0228367Y0191565D01*
X0228272Y0191668D01*
X0228180Y0191774D01*
X0228091Y0191883D01*
X0228005Y0191993D01*
X0227922Y0192107D01*
X0227843Y0192222D01*
X0227766Y0192340D01*
X0227693Y0192460D01*
X0227624Y0192581D01*
X0227558Y0192705D01*
X0227495Y0192831D01*
X0227436Y0192958D01*
X0227381Y0193087D01*
X0227329Y0193217D01*
X0227281Y0193349D01*
X0227236Y0193482D01*
X0227195Y0193616D01*
X0227158Y0193751D01*
X0227125Y0193887D01*
X0227096Y0194025D01*
X0227071Y0194162D01*
X0227049Y0194301D01*
X0227031Y0194440D01*
X0227018Y0194580D01*
X0227008Y0194720D01*
X0227002Y0194860D01*
X0227000Y0195000D01*
X0227000Y0345000D01*
X0222000Y0345000D02*
X0222000Y0195000D01*
X0221998Y0194860D01*
X0221992Y0194720D01*
X0221982Y0194580D01*
X0221969Y0194440D01*
X0221951Y0194301D01*
X0221929Y0194162D01*
X0221904Y0194025D01*
X0221875Y0193887D01*
X0221842Y0193751D01*
X0221805Y0193616D01*
X0221764Y0193482D01*
X0221719Y0193349D01*
X0221671Y0193217D01*
X0221619Y0193087D01*
X0221564Y0192958D01*
X0221505Y0192831D01*
X0221442Y0192705D01*
X0221376Y0192581D01*
X0221307Y0192460D01*
X0221234Y0192340D01*
X0221157Y0192222D01*
X0221078Y0192107D01*
X0220995Y0191993D01*
X0220909Y0191883D01*
X0220820Y0191774D01*
X0220728Y0191668D01*
X0220633Y0191565D01*
X0220536Y0191464D01*
X0220435Y0191367D01*
X0220332Y0191272D01*
X0220226Y0191180D01*
X0220117Y0191091D01*
X0220007Y0191005D01*
X0219893Y0190922D01*
X0219778Y0190843D01*
X0219660Y0190766D01*
X0219540Y0190693D01*
X0219419Y0190624D01*
X0219295Y0190558D01*
X0219169Y0190495D01*
X0219042Y0190436D01*
X0218913Y0190381D01*
X0218783Y0190329D01*
X0218651Y0190281D01*
X0218518Y0190236D01*
X0218384Y0190195D01*
X0218249Y0190158D01*
X0218113Y0190125D01*
X0217975Y0190096D01*
X0217838Y0190071D01*
X0217699Y0190049D01*
X0217560Y0190031D01*
X0217420Y0190018D01*
X0217280Y0190008D01*
X0217140Y0190002D01*
X0217000Y0190000D01*
X0067000Y0190000D01*
X0066860Y0190002D01*
X0066720Y0190008D01*
X0066580Y0190018D01*
X0066440Y0190031D01*
X0066301Y0190049D01*
X0066162Y0190071D01*
X0066025Y0190096D01*
X0065887Y0190125D01*
X0065751Y0190158D01*
X0065616Y0190195D01*
X0065482Y0190236D01*
X0065349Y0190281D01*
X0065217Y0190329D01*
X0065087Y0190381D01*
X0064958Y0190436D01*
X0064831Y0190495D01*
X0064705Y0190558D01*
X0064581Y0190624D01*
X0064460Y0190693D01*
X0064340Y0190766D01*
X0064222Y0190843D01*
X0064107Y0190922D01*
X0063993Y0191005D01*
X0063883Y0191091D01*
X0063774Y0191180D01*
X0063668Y0191272D01*
X0063565Y0191367D01*
X0063464Y0191464D01*
X0063367Y0191565D01*
X0063272Y0191668D01*
X0063180Y0191774D01*
X0063091Y0191883D01*
X0063005Y0191993D01*
X0062922Y0192107D01*
X0062843Y0192222D01*
X0062766Y0192340D01*
X0062693Y0192460D01*
X0062624Y0192581D01*
X0062558Y0192705D01*
X0062495Y0192831D01*
X0062436Y0192958D01*
X0062381Y0193087D01*
X0062329Y0193217D01*
X0062281Y0193349D01*
X0062236Y0193482D01*
X0062195Y0193616D01*
X0062158Y0193751D01*
X0062125Y0193887D01*
X0062096Y0194025D01*
X0062071Y0194162D01*
X0062049Y0194301D01*
X0062031Y0194440D01*
X0062018Y0194580D01*
X0062008Y0194720D01*
X0062002Y0194860D01*
X0062000Y0195000D01*
X0062000Y0345000D01*
X0062002Y0345140D01*
X0062008Y0345280D01*
X0062018Y0345420D01*
X0062031Y0345560D01*
X0062049Y0345699D01*
X0062071Y0345838D01*
X0062096Y0345975D01*
X0062125Y0346113D01*
X0062158Y0346249D01*
X0062195Y0346384D01*
X0062236Y0346518D01*
X0062281Y0346651D01*
X0062329Y0346783D01*
X0062381Y0346913D01*
X0062436Y0347042D01*
X0062495Y0347169D01*
X0062558Y0347295D01*
X0062624Y0347419D01*
X0062693Y0347540D01*
X0062766Y0347660D01*
X0062843Y0347778D01*
X0062922Y0347893D01*
X0063005Y0348007D01*
X0063091Y0348117D01*
X0063180Y0348226D01*
X0063272Y0348332D01*
X0063367Y0348435D01*
X0063464Y0348536D01*
X0063565Y0348633D01*
X0063668Y0348728D01*
X0063774Y0348820D01*
X0063883Y0348909D01*
X0063993Y0348995D01*
X0064107Y0349078D01*
X0064222Y0349157D01*
X0064340Y0349234D01*
X0064460Y0349307D01*
X0064581Y0349376D01*
X0064705Y0349442D01*
X0064831Y0349505D01*
X0064958Y0349564D01*
X0065087Y0349619D01*
X0065217Y0349671D01*
X0065349Y0349719D01*
X0065482Y0349764D01*
X0065616Y0349805D01*
X0065751Y0349842D01*
X0065887Y0349875D01*
X0066025Y0349904D01*
X0066162Y0349929D01*
X0066301Y0349951D01*
X0066440Y0349969D01*
X0066580Y0349982D01*
X0066720Y0349992D01*
X0066860Y0349998D01*
X0067000Y0350000D01*
X0217000Y0350000D01*
X0217140Y0349998D01*
X0217280Y0349992D01*
X0217420Y0349982D01*
X0217560Y0349969D01*
X0217699Y0349951D01*
X0217838Y0349929D01*
X0217975Y0349904D01*
X0218113Y0349875D01*
X0218249Y0349842D01*
X0218384Y0349805D01*
X0218518Y0349764D01*
X0218651Y0349719D01*
X0218783Y0349671D01*
X0218913Y0349619D01*
X0219042Y0349564D01*
X0219169Y0349505D01*
X0219295Y0349442D01*
X0219419Y0349376D01*
X0219540Y0349307D01*
X0219660Y0349234D01*
X0219778Y0349157D01*
X0219893Y0349078D01*
X0220007Y0348995D01*
X0220117Y0348909D01*
X0220226Y0348820D01*
X0220332Y0348728D01*
X0220435Y0348633D01*
X0220536Y0348536D01*
X0220633Y0348435D01*
X0220728Y0348332D01*
X0220820Y0348226D01*
X0220909Y0348117D01*
X0220995Y0348007D01*
X0221078Y0347893D01*
X0221157Y0347778D01*
X0221234Y0347660D01*
X0221307Y0347540D01*
X0221376Y0347419D01*
X0221442Y0347295D01*
X0221505Y0347169D01*
X0221564Y0347042D01*
X0221619Y0346913D01*
X0221671Y0346783D01*
X0221719Y0346651D01*
X0221764Y0346518D01*
X0221805Y0346384D01*
X0221842Y0346249D01*
X0221875Y0346113D01*
X0221904Y0345975D01*
X0221929Y0345838D01*
X0221951Y0345699D01*
X0221969Y0345560D01*
X0221982Y0345420D01*
X0221992Y0345280D01*
X0221998Y0345140D01*
X0222000Y0345000D01*
X0227000Y0345000D02*
X0227002Y0345140D01*
X0227008Y0345280D01*
X0227018Y0345420D01*
X0227031Y0345560D01*
X0227049Y0345699D01*
X0227071Y0345838D01*
X0227096Y0345975D01*
X0227125Y0346113D01*
X0227158Y0346249D01*
X0227195Y0346384D01*
X0227236Y0346518D01*
X0227281Y0346651D01*
X0227329Y0346783D01*
X0227381Y0346913D01*
X0227436Y0347042D01*
X0227495Y0347169D01*
X0227558Y0347295D01*
X0227624Y0347419D01*
X0227693Y0347540D01*
X0227766Y0347660D01*
X0227843Y0347778D01*
X0227922Y0347893D01*
X0228005Y0348007D01*
X0228091Y0348117D01*
X0228180Y0348226D01*
X0228272Y0348332D01*
X0228367Y0348435D01*
X0228464Y0348536D01*
X0228565Y0348633D01*
X0228668Y0348728D01*
X0228774Y0348820D01*
X0228883Y0348909D01*
X0228993Y0348995D01*
X0229107Y0349078D01*
X0229222Y0349157D01*
X0229340Y0349234D01*
X0229460Y0349307D01*
X0229581Y0349376D01*
X0229705Y0349442D01*
X0229831Y0349505D01*
X0229958Y0349564D01*
X0230087Y0349619D01*
X0230217Y0349671D01*
X0230349Y0349719D01*
X0230482Y0349764D01*
X0230616Y0349805D01*
X0230751Y0349842D01*
X0230887Y0349875D01*
X0231025Y0349904D01*
X0231162Y0349929D01*
X0231301Y0349951D01*
X0231440Y0349969D01*
X0231580Y0349982D01*
X0231720Y0349992D01*
X0231860Y0349998D01*
X0232000Y0350000D01*
X0382000Y0350000D01*
D16*
X0362000Y0310000D02*
X0367000Y0305000D01*
X0367000Y0235000D01*
X0362000Y0230000D01*
X0252000Y0230000D01*
X0247000Y0235000D01*
X0247000Y0305000D01*
X0252000Y0310000D01*
X0362000Y0310000D01*
X0202000Y0305000D02*
X0202000Y0235000D01*
X0197000Y0230000D01*
X0087000Y0230000D01*
X0082000Y0235000D01*
X0082000Y0305000D01*
X0087000Y0310000D01*
X0197000Y0310000D01*
X0202000Y0305000D01*
D17*
X0142000Y0155000D02*
X0307000Y0155000D01*
X0317000Y0145000D01*
X0317000Y0080000D01*
X0307000Y0070000D01*
X0142000Y0070000D01*
X0132000Y0080000D01*
X0132000Y0145000D01*
X0142000Y0155000D01*
X0361824Y0088014D02*
X0361824Y0072000D01*
X0367162Y0077338D01*
X0372500Y0072000D01*
X0372500Y0088014D01*
X0352858Y0080000D02*
X0352862Y0080347D01*
X0352875Y0080694D01*
X0352896Y0081040D01*
X0352926Y0081386D01*
X0352964Y0081731D01*
X0353011Y0082075D01*
X0353066Y0082418D01*
X0353130Y0082759D01*
X0353202Y0083099D01*
X0353282Y0083436D01*
X0353370Y0083772D01*
X0353467Y0084105D01*
X0353572Y0084436D01*
X0353685Y0084764D01*
X0353806Y0085090D01*
X0353934Y0085412D01*
X0354071Y0085731D01*
X0354216Y0086046D01*
X0354368Y0086358D01*
X0354528Y0086666D01*
X0354695Y0086971D01*
X0354870Y0087270D01*
X0355052Y0087566D01*
X0355241Y0087857D01*
X0355438Y0088143D01*
X0355641Y0088424D01*
X0355851Y0088701D01*
X0356068Y0088972D01*
X0356292Y0089237D01*
X0356521Y0089497D01*
X0356758Y0089751D01*
X0357000Y0090000D01*
X0357249Y0090242D01*
X0357503Y0090479D01*
X0357763Y0090708D01*
X0358028Y0090932D01*
X0358299Y0091149D01*
X0358576Y0091359D01*
X0358857Y0091562D01*
X0359143Y0091759D01*
X0359434Y0091948D01*
X0359730Y0092130D01*
X0360029Y0092305D01*
X0360334Y0092472D01*
X0360642Y0092632D01*
X0360954Y0092784D01*
X0361269Y0092929D01*
X0361588Y0093066D01*
X0361910Y0093194D01*
X0362236Y0093315D01*
X0362564Y0093428D01*
X0362895Y0093533D01*
X0363228Y0093630D01*
X0363564Y0093718D01*
X0363901Y0093798D01*
X0364241Y0093870D01*
X0364582Y0093934D01*
X0364925Y0093989D01*
X0365269Y0094036D01*
X0365614Y0094074D01*
X0365960Y0094104D01*
X0366306Y0094125D01*
X0366653Y0094138D01*
X0367000Y0094142D01*
X0367347Y0094138D01*
X0367694Y0094125D01*
X0368040Y0094104D01*
X0368386Y0094074D01*
X0368731Y0094036D01*
X0369075Y0093989D01*
X0369418Y0093934D01*
X0369759Y0093870D01*
X0370099Y0093798D01*
X0370436Y0093718D01*
X0370772Y0093630D01*
X0371105Y0093533D01*
X0371436Y0093428D01*
X0371764Y0093315D01*
X0372090Y0093194D01*
X0372412Y0093066D01*
X0372731Y0092929D01*
X0373046Y0092784D01*
X0373358Y0092632D01*
X0373666Y0092472D01*
X0373971Y0092305D01*
X0374270Y0092130D01*
X0374566Y0091948D01*
X0374857Y0091759D01*
X0375143Y0091562D01*
X0375424Y0091359D01*
X0375701Y0091149D01*
X0375972Y0090932D01*
X0376237Y0090708D01*
X0376497Y0090479D01*
X0376751Y0090242D01*
X0377000Y0090000D01*
X0377242Y0089751D01*
X0377479Y0089497D01*
X0377708Y0089237D01*
X0377932Y0088972D01*
X0378149Y0088701D01*
X0378359Y0088424D01*
X0378562Y0088143D01*
X0378759Y0087857D01*
X0378948Y0087566D01*
X0379130Y0087270D01*
X0379305Y0086971D01*
X0379472Y0086666D01*
X0379632Y0086358D01*
X0379784Y0086046D01*
X0379929Y0085731D01*
X0380066Y0085412D01*
X0380194Y0085090D01*
X0380315Y0084764D01*
X0380428Y0084436D01*
X0380533Y0084105D01*
X0380630Y0083772D01*
X0380718Y0083436D01*
X0380798Y0083099D01*
X0380870Y0082759D01*
X0380934Y0082418D01*
X0380989Y0082075D01*
X0381036Y0081731D01*
X0381074Y0081386D01*
X0381104Y0081040D01*
X0381125Y0080694D01*
X0381138Y0080347D01*
X0381142Y0080000D01*
X0381138Y0079653D01*
X0381125Y0079306D01*
X0381104Y0078960D01*
X0381074Y0078614D01*
X0381036Y0078269D01*
X0380989Y0077925D01*
X0380934Y0077582D01*
X0380870Y0077241D01*
X0380798Y0076901D01*
X0380718Y0076564D01*
X0380630Y0076228D01*
X0380533Y0075895D01*
X0380428Y0075564D01*
X0380315Y0075236D01*
X0380194Y0074910D01*
X0380066Y0074588D01*
X0379929Y0074269D01*
X0379784Y0073954D01*
X0379632Y0073642D01*
X0379472Y0073334D01*
X0379305Y0073029D01*
X0379130Y0072730D01*
X0378948Y0072434D01*
X0378759Y0072143D01*
X0378562Y0071857D01*
X0378359Y0071576D01*
X0378149Y0071299D01*
X0377932Y0071028D01*
X0377708Y0070763D01*
X0377479Y0070503D01*
X0377242Y0070249D01*
X0377000Y0070000D01*
X0376751Y0069758D01*
X0376497Y0069521D01*
X0376237Y0069292D01*
X0375972Y0069068D01*
X0375701Y0068851D01*
X0375424Y0068641D01*
X0375143Y0068438D01*
X0374857Y0068241D01*
X0374566Y0068052D01*
X0374270Y0067870D01*
X0373971Y0067695D01*
X0373666Y0067528D01*
X0373358Y0067368D01*
X0373046Y0067216D01*
X0372731Y0067071D01*
X0372412Y0066934D01*
X0372090Y0066806D01*
X0371764Y0066685D01*
X0371436Y0066572D01*
X0371105Y0066467D01*
X0370772Y0066370D01*
X0370436Y0066282D01*
X0370099Y0066202D01*
X0369759Y0066130D01*
X0369418Y0066066D01*
X0369075Y0066011D01*
X0368731Y0065964D01*
X0368386Y0065926D01*
X0368040Y0065896D01*
X0367694Y0065875D01*
X0367347Y0065862D01*
X0367000Y0065858D01*
X0366653Y0065862D01*
X0366306Y0065875D01*
X0365960Y0065896D01*
X0365614Y0065926D01*
X0365269Y0065964D01*
X0364925Y0066011D01*
X0364582Y0066066D01*
X0364241Y0066130D01*
X0363901Y0066202D01*
X0363564Y0066282D01*
X0363228Y0066370D01*
X0362895Y0066467D01*
X0362564Y0066572D01*
X0362236Y0066685D01*
X0361910Y0066806D01*
X0361588Y0066934D01*
X0361269Y0067071D01*
X0360954Y0067216D01*
X0360642Y0067368D01*
X0360334Y0067528D01*
X0360029Y0067695D01*
X0359730Y0067870D01*
X0359434Y0068052D01*
X0359143Y0068241D01*
X0358857Y0068438D01*
X0358576Y0068641D01*
X0358299Y0068851D01*
X0358028Y0069068D01*
X0357763Y0069292D01*
X0357503Y0069521D01*
X0357249Y0069758D01*
X0357000Y0070000D01*
X0356758Y0070249D01*
X0356521Y0070503D01*
X0356292Y0070763D01*
X0356068Y0071028D01*
X0355851Y0071299D01*
X0355641Y0071576D01*
X0355438Y0071857D01*
X0355241Y0072143D01*
X0355052Y0072434D01*
X0354870Y0072730D01*
X0354695Y0073029D01*
X0354528Y0073334D01*
X0354368Y0073642D01*
X0354216Y0073954D01*
X0354071Y0074269D01*
X0353934Y0074588D01*
X0353806Y0074910D01*
X0353685Y0075236D01*
X0353572Y0075564D01*
X0353467Y0075895D01*
X0353370Y0076228D01*
X0353282Y0076564D01*
X0353202Y0076901D01*
X0353130Y0077241D01*
X0353066Y0077582D01*
X0353011Y0077925D01*
X0352964Y0078269D01*
X0352926Y0078614D01*
X0352896Y0078960D01*
X0352875Y0079306D01*
X0352862Y0079653D01*
X0352858Y0080000D01*
D18*
X0364500Y0403386D02*
X0364500Y0406614D01*
X0369500Y0406614D02*
X0369500Y0403386D01*
X0339500Y0403386D02*
X0339500Y0406614D01*
X0334500Y0406614D02*
X0334500Y0403386D01*
X0309500Y0403386D02*
X0309500Y0406614D01*
X0304500Y0406614D02*
X0304500Y0403386D01*
X0279500Y0403386D02*
X0279500Y0406614D01*
X0274500Y0406614D02*
X0274500Y0403386D01*
X0209500Y0403386D02*
X0209500Y0406614D01*
X0204500Y0406614D02*
X0204500Y0403386D01*
X0179500Y0403386D02*
X0179500Y0406614D01*
X0174500Y0406614D02*
X0174500Y0403386D01*
X0139500Y0403386D02*
X0139500Y0406614D01*
X0134500Y0406614D02*
X0134500Y0403386D01*
X0109500Y0403386D02*
X0109500Y0406614D01*
X0104500Y0406614D02*
X0104500Y0403386D01*
X0069500Y0403386D02*
X0069500Y0406614D01*
X0064500Y0406614D02*
X0064500Y0403386D01*
X0039500Y0403386D02*
X0039500Y0406614D01*
X0034500Y0406614D02*
X0034500Y0403386D01*
X0019500Y0256614D02*
X0019500Y0253386D01*
X0014500Y0253386D02*
X0014500Y0256614D01*
D19*
X0016994Y0257920D03*
X0016994Y0252120D03*
X0037006Y0402080D03*
X0037006Y0407880D03*
X0067006Y0407880D03*
X0067006Y0402080D03*
X0107006Y0402080D03*
X0107006Y0407880D03*
X0137006Y0407880D03*
X0137006Y0402080D03*
X0177006Y0402080D03*
X0177006Y0407880D03*
X0207006Y0407880D03*
X0207006Y0402080D03*
X0277006Y0402080D03*
X0277006Y0407880D03*
X0307006Y0407880D03*
X0307006Y0402080D03*
X0337006Y0402080D03*
X0337006Y0407880D03*
X0367006Y0407880D03*
X0367006Y0402080D03*
M02*
