G75*
%MOIN*%
%OFA0B0*%
%FSLAX25Y25*%
%IPPOS*%
%LPD*%
%AMOC8*
5,1,8,0,0,1.08239X$1,22.5*
%
%ADD10C,0.12811*%
%ADD11R,2.60000X0.35000*%
%ADD12OC8,0.06200*%
%ADD13R,0.05600X0.07300*%
%ADD14R,0.00600X0.07200*%
%ADD15C,0.08000*%
%ADD16R,0.08400X0.08400*%
%ADD17C,0.08400*%
%ADD18OC8,0.07000*%
D10*
X0079000Y0207000D03*
X0079000Y0333000D03*
X0205000Y0333000D03*
X0244000Y0333000D03*
X0244000Y0207000D03*
X0205000Y0207000D03*
X0370000Y0207000D03*
X0370000Y0333000D03*
D11*
X0217000Y0022500D03*
D12*
X0037000Y0275000D03*
X0027000Y0275000D03*
X0027000Y0415000D03*
X0017000Y0415000D03*
X0047000Y0415000D03*
X0057000Y0415000D03*
X0087000Y0415000D03*
X0097000Y0415000D03*
X0117000Y0415000D03*
X0127000Y0415000D03*
X0157000Y0415000D03*
X0167000Y0415000D03*
X0187000Y0415000D03*
X0197000Y0415000D03*
X0257000Y0415000D03*
X0267000Y0415000D03*
X0287000Y0415000D03*
X0297000Y0415000D03*
X0317000Y0415000D03*
X0327000Y0415000D03*
X0347000Y0415000D03*
X0357000Y0415000D03*
D13*
X0119000Y0060000D03*
X0125000Y0060000D03*
D14*
X0122000Y0060000D03*
D15*
X0115000Y0365000D03*
X0115000Y0375000D03*
X0115000Y0385000D03*
X0129000Y0385000D03*
X0129000Y0375000D03*
X0129000Y0365000D03*
X0155000Y0365000D03*
X0155000Y0375000D03*
X0155000Y0385000D03*
X0169000Y0385000D03*
X0169000Y0375000D03*
X0169000Y0365000D03*
X0185000Y0365000D03*
X0185000Y0375000D03*
X0185000Y0385000D03*
X0199000Y0385000D03*
X0199000Y0375000D03*
X0199000Y0365000D03*
X0255000Y0365000D03*
X0255000Y0375000D03*
X0255000Y0385000D03*
X0269000Y0385000D03*
X0269000Y0375000D03*
X0269000Y0365000D03*
X0285000Y0365000D03*
X0285000Y0375000D03*
X0285000Y0385000D03*
X0299000Y0385000D03*
X0299000Y0375000D03*
X0299000Y0365000D03*
X0315000Y0365000D03*
X0315000Y0375000D03*
X0315000Y0385000D03*
X0329000Y0385000D03*
X0329000Y0375000D03*
X0329000Y0365000D03*
X0345000Y0365000D03*
X0345000Y0375000D03*
X0345000Y0385000D03*
X0359000Y0385000D03*
X0359000Y0375000D03*
X0359000Y0365000D03*
X0099000Y0365000D03*
X0099000Y0375000D03*
X0099000Y0385000D03*
X0085000Y0385000D03*
X0085000Y0375000D03*
X0085000Y0365000D03*
X0059000Y0365000D03*
X0059000Y0375000D03*
X0059000Y0385000D03*
X0045000Y0385000D03*
X0045000Y0375000D03*
X0045000Y0365000D03*
X0029000Y0365000D03*
X0029000Y0375000D03*
X0029000Y0385000D03*
X0015000Y0385000D03*
X0015000Y0375000D03*
X0015000Y0365000D03*
D16*
X0032000Y0325000D03*
X0032000Y0225000D03*
D17*
X0032000Y0215000D03*
X0032000Y0315000D03*
D18*
X0097000Y0315000D03*
X0127000Y0315000D03*
X0157000Y0315000D03*
X0187000Y0315000D03*
X0262000Y0315000D03*
X0292000Y0315000D03*
X0322000Y0315000D03*
X0352000Y0315000D03*
X0352000Y0225000D03*
X0322000Y0225000D03*
X0292000Y0225000D03*
X0262000Y0225000D03*
X0187000Y0225000D03*
X0157000Y0225000D03*
X0127000Y0225000D03*
X0097000Y0225000D03*
M02*
